<?xml version="1.0" encoding="utf-8" standalone="no"?>
<!DOCTYPE svg PUBLIC "-//W3C//DTD SVG 1.1//EN"
  "http://www.w3.org/Graphics/SVG/1.1/DTD/svg11.dtd">
<!-- Created with matplotlib (http://matplotlib.org/) -->
<svg height="335pt" version="1.1" viewBox="0 0 437 335" width="437pt" xmlns="http://www.w3.org/2000/svg" xmlns:xlink="http://www.w3.org/1999/xlink">
 <defs>
  <style type="text/css">
*{stroke-linecap:butt;stroke-linejoin:round;}
  </style>
 </defs>
 <g id="figure_1">
  <g id="patch_1">
   <path d="M 0 335.188165 
L 437.1825 335.188165 
L 437.1825 0 
L 0 0 
z
" style="fill:#ffffff;"/>
  </g>
  <g id="axes_1">
   <g id="patch_2">
    <path d="M 69.3625 278.275665 
L 426.4825 278.275665 
L 426.4825 12.163665 
L 69.3625 12.163665 
z
" style="fill:#ffffff;"/>
   </g>
   <g id="line2d_1">
    <path clip-path="url(#p9f189971c0)" d="M 299.430676 278.275665 
L 299.430676 273.884378 
L 300.195619 273.884378 
L 300.195619 269.493091 
L 302.088328 269.493091 
L 302.088328 265.101804 
L 303.587953 265.101804 
L 303.587953 260.710517 
L 306.751714 260.710517 
L 306.751714 256.31923 
L 308.402141 256.31923 
L 308.402141 251.927942 
L 310.108385 251.927942 
L 310.108385 247.536655 
L 310.663632 247.536655 
L 310.663632 243.145368 
L 310.993657 243.145368 
L 310.993657 238.754081 
L 311.157804 238.754081 
L 311.157804 234.362794 
L 311.32138 234.362794 
L 311.32138 229.971507 
L 312.344337 229.971507 
L 312.344337 225.58022 
L 312.71567 225.58022 
L 312.71567 221.188933 
L 312.71567 221.188933 
L 312.71567 216.797645 
L 313.966978 216.797645 
L 313.966978 212.406358 
L 314.833576 212.406358 
L 314.833576 208.015071 
L 315.085445 208.015071 
L 315.085445 203.623784 
L 315.135657 203.623784 
L 315.135657 199.232497 
L 316.61759 199.232497 
L 316.61759 194.84121 
L 317.959779 194.84121 
L 317.959779 190.449923 
L 320.623696 190.449923 
L 320.623696 186.058636 
L 331.744128 186.058636 
L 331.744128 181.667348 
L 333.845965 181.667348 
L 333.845965 177.276061 
L 334.047712 177.276061 
L 334.047712 172.884774 
L 341.680101 172.884774 
L 341.680101 168.493487 
L 342.779438 168.493487 
L 342.779438 164.1022 
L 358.217077 164.1022 
L 358.217077 159.710913 
L 371.795621 159.710913 
L 371.795621 155.319626 
L 387.355584 155.319626 
L 387.355584 150.928338 
L 387.355584 150.928338 
L 387.355584 150.928338 
L 426.4825 150.928338 
" style="fill:none;stroke:#f5deb3;stroke-linecap:square;stroke-width:1.5;"/>
   </g>
   <g id="line2d_2">
    <path clip-path="url(#p9f189971c0)" style="fill:none;stroke:#f5deb3;stroke-linecap:square;stroke-width:1.5;"/>
   </g>
   <g id="line2d_3">
    <path clip-path="url(#p9f189971c0)" d="M 207.175725 278.275665 
L 207.175725 273.884378 
L 251.595787 273.884378 
L 251.595787 269.493091 
L 251.789492 269.493091 
L 251.789492 265.101804 
L 252.746213 265.101804 
L 252.746213 260.710517 
L 255.146162 260.710517 
L 255.146162 256.31923 
L 256.738633 256.31923 
L 256.738633 251.927942 
L 258.446945 251.927942 
L 258.446945 247.536655 
L 260.418146 247.536655 
L 260.418146 243.145368 
L 261.530935 243.145368 
L 261.530935 238.754081 
L 261.844092 238.754081 
L 261.844092 234.362794 
L 262.155176 234.362794 
L 262.155176 229.971507 
L 263.379307 229.971507 
L 263.379307 225.58022 
L 264.1285 225.58022 
L 264.1285 221.188933 
L 265.879264 221.188933 
L 265.879264 216.797645 
L 267.428752 216.797645 
L 267.428752 212.406358 
L 267.428752 212.406358 
L 267.428752 208.015071 
L 271.284462 208.015071 
L 271.284462 203.623784 
L 271.539061 203.623784 
L 271.539061 199.232497 
L 272.791759 199.232497 
L 272.791759 194.84121 
L 274.610311 194.84121 
L 274.610311 190.449923 
L 276.475505 190.449923 
L 276.475505 186.058636 
L 281.664045 186.058636 
L 281.664045 181.667348 
L 281.970062 181.667348 
L 281.970062 177.276061 
L 282.172971 177.276061 
L 282.172971 172.884774 
L 282.172971 172.884774 
L 282.172971 168.493487 
L 282.776492 168.493487 
L 282.776492 164.1022 
L 292.084413 164.1022 
L 292.084413 159.710913 
L 299.570686 159.710913 
L 299.570686 155.319626 
L 299.849461 155.319626 
L 299.849461 150.928338 
L 306.269313 150.928338 
L 306.269313 146.537051 
L 306.931345 146.537051 
L 306.931345 142.145764 
L 308.344185 142.145764 
L 308.344185 137.754477 
L 308.977803 137.754477 
L 308.977803 133.36319 
L 309.433306 133.36319 
L 309.433306 128.971903 
L 311.157804 128.971903 
L 311.157804 124.580616 
L 312.71567 124.580616 
L 312.71567 120.189329 
L 313.188825 120.189329 
L 313.188825 115.798041 
L 323.941858 115.798041 
L 323.941858 111.406754 
L 329.764871 111.406754 
L 329.764871 107.015467 
L 330.458084 107.015467 
L 330.458084 102.62418 
L 331.496806 102.62418 
L 331.496806 98.232893 
L 337.724927 98.232893 
L 337.724927 93.841606 
L 374.806555 93.841606 
L 374.806555 89.450319 
L 381.038454 89.450319 
L 381.038454 85.059032 
L 386.692981 85.059032 
L 386.692981 80.667744 
L 416.003034 80.667744 
L 416.003034 76.276457 
L 416.120116 76.276457 
L 416.120116 71.88517 
L 434.053921 71.88517 
L 434.053921 67.493883 
L 438.1825 67.493883 
" style="fill:none;stroke:#f5deb3;stroke-linecap:square;stroke-width:1.5;"/>
   </g>
   <g id="line2d_4">
    <path clip-path="url(#p9f189971c0)" d="M 264.1285 278.275665 
L 264.1285 273.884378 
L 313.501635 273.884378 
L 313.501635 269.493091 
L 314.833576 269.493091 
L 314.833576 265.101804 
L 322.80484 265.101804 
L 322.80484 260.710517 
L 323.733365 260.710517 
L 323.733365 256.31923 
L 323.983445 256.31923 
L 323.983445 251.927942 
L 324.479648 251.927942 
L 324.479648 247.536655 
L 324.643891 247.536655 
L 324.643891 243.145368 
L 324.725797 243.145368 
L 324.725797 238.754081 
L 324.766697 238.754081 
L 324.766697 234.362794 
L 325.133201 234.362794 
L 325.133201 229.971507 
L 325.375959 229.971507 
L 325.375959 225.58022 
L 325.537102 225.58022 
L 325.537102 221.188933 
L 327.157717 221.188933 
L 327.157717 216.797645 
L 327.467518 216.797645 
L 327.467518 212.406358 
L 330.746929 212.406358 
L 330.746929 208.015071 
L 332.408939 208.015071 
L 332.408939 203.623784 
L 333.91331 203.623784 
L 333.91331 199.232497 
L 334.614668 199.232497 
L 334.614668 194.84121 
L 334.813148 194.84121 
L 334.813148 190.449923 
L 335.954522 190.449923 
L 335.954522 186.058636 
L 336.083216 186.058636 
L 336.083216 181.667348 
L 336.307586 181.667348 
L 336.307586 177.276061 
L 337.068819 177.276061 
L 337.068819 172.884774 
L 338.555247 172.884774 
L 338.555247 168.493487 
L 338.616173 168.493487 
L 338.616173 164.1022 
L 341.13506 164.1022 
L 341.13506 159.710913 
L 342.049413 159.710913 
L 342.049413 155.319626 
L 343.470846 155.319626 
L 343.470846 150.928338 
L 343.498292 150.928338 
L 343.498292 146.537051 
L 343.826396 146.537051 
L 343.826396 142.145764 
L 347.012701 142.145764 
L 347.012701 137.754477 
L 349.274221 137.754477 
L 349.274221 133.36319 
L 350.637251 133.36319 
L 350.637251 128.971903 
L 352.030533 128.971903 
L 352.030533 124.580616 
L 353.428118 124.580616 
L 353.428118 120.189329 
L 353.472516 120.189329 
L 353.472516 115.798041 
L 357.509785 115.798041 
L 357.509785 111.406754 
L 358.036216 111.406754 
L 358.036216 107.015467 
L 359.385777 107.015467 
L 359.385777 102.62418 
L 362.37945 102.62418 
L 362.37945 98.232893 
L 367.024734 98.232893 
L 367.024734 93.841606 
L 369.910609 93.841606 
L 369.910609 89.450319 
L 373.011541 89.450319 
L 373.011541 85.059032 
L 377.156058 85.059032 
L 377.156058 80.667744 
L 377.182854 80.667744 
L 377.182854 76.276457 
L 378.607599 76.276457 
L 378.607599 71.88517 
L 378.918425 71.88517 
L 378.918425 67.493883 
L 381.505 67.493883 
L 381.505 63.102596 
L 382.639562 63.102596 
L 382.639562 58.711309 
L 384.509862 58.711309 
L 384.509862 54.320022 
L 385.316536 54.320022 
L 385.316536 49.928735 
L 386.142806 49.928735 
L 386.142806 45.537447 
L 402.203504 45.537447 
L 402.203504 41.14616 
L 404.855655 41.14616 
L 404.855655 36.754873 
L 414.689464 36.754873 
L 414.689464 32.363586 
L 420.823047 32.363586 
L 420.823047 27.972299 
L 424.210351 27.972299 
L 424.210351 23.581012 
L 438.1825 23.581012 
" style="fill:none;stroke:#f5deb3;stroke-linecap:square;stroke-width:1.5;"/>
   </g>
   <g id="line2d_5">
    <path clip-path="url(#p9f189971c0)" d="M 323.313582 278.275665 
L 323.313582 273.884378 
L 342.723684 273.884378 
L 342.723684 269.493091 
L 346.731804 269.493091 
L 346.731804 265.101804 
L 351.824157 265.101804 
L 351.824157 260.710517 
L 354.17724 260.710517 
L 354.17724 256.31923 
L 355.767525 256.31923 
L 355.767525 251.927942 
L 361.264964 251.927942 
L 361.264964 247.536655 
L 362.047872 247.536655 
L 362.047872 243.145368 
L 363.108017 243.145368 
L 363.108017 238.754081 
L 363.98538 238.754081 
L 363.98538 234.362794 
L 365.176418 234.362794 
L 365.176418 229.971507 
L 367.586703 229.971507 
L 367.586703 225.58022 
L 368.497888 225.58022 
L 368.497888 221.188933 
L 369.201623 221.188933 
L 369.201623 216.797645 
L 370.931474 216.797645 
L 370.931474 212.406358 
L 372.303608 212.406358 
L 372.303608 208.015071 
L 373.317938 208.015071 
L 373.317938 203.623784 
L 374.225316 203.623784 
L 374.225316 199.232497 
L 377.396674 199.232497 
L 377.396674 194.84121 
L 378.866763 194.84121 
L 378.866763 190.449923 
L 379.316888 190.449923 
L 379.316888 186.058636 
L 383.220292 186.058636 
L 383.220292 181.667348 
L 384.612886 181.667348 
L 384.612886 177.276061 
L 387.881151 177.276061 
L 387.881151 172.884774 
L 398.097695 172.884774 
L 398.097695 168.493487 
L 399.21697 168.493487 
L 399.21697 164.1022 
L 399.534303 164.1022 
L 399.534303 159.710913 
L 404.781283 159.710913 
L 404.781283 155.319626 
L 410.460106 155.319626 
L 410.460106 150.928338 
L 411.561732 150.928338 
L 411.561732 146.537051 
L 414.362839 146.537051 
L 414.362839 142.145764 
L 417.763232 142.145764 
L 417.763232 137.754477 
L 421.369989 137.754477 
L 421.369989 133.36319 
L 421.505735 133.36319 
L 421.505735 128.971903 
L 421.85892 128.971903 
L 421.85892 124.580616 
L 424.826437 124.580616 
L 424.826437 120.189329 
L 427.635876 120.189329 
L 427.635876 115.798041 
L 428.416364 115.798041 
L 428.416364 111.406754 
L 430.156809 111.406754 
L 430.156809 107.015467 
L 434.502785 107.015467 
L 434.502785 102.62418 
L 437.135629 102.62418 
L 437.135629 98.232893 
L 437.611652 98.232893 
L 437.611652 93.841606 
L 438.1825 93.841606 
" style="fill:none;stroke:#f5deb3;stroke-linecap:square;stroke-width:1.5;"/>
   </g>
   <g id="line2d_6"/>
   <g id="line2d_7">
    <path clip-path="url(#p9f189971c0)" d="M 303.780074 278.275665 
L 303.780074 273.884378 
L 306.871544 273.884378 
L 306.871544 269.493091 
L 308.863234 269.493091 
L 308.863234 265.101804 
L 346.346036 265.101804 
L 346.346036 260.710517 
L 347.770353 260.710517 
L 347.770353 256.31923 
L 348.688267 256.31923 
L 348.688267 251.927942 
L 349.805 251.927942 
L 349.805 247.536655 
L 350.56649 247.536655 
L 350.56649 243.145368 
L 350.613676 243.145368 
L 350.613676 238.754081 
L 351.431845 238.754081 
L 351.431845 234.362794 
L 351.709111 234.362794 
L 351.709111 229.971507 
L 352.053408 229.971507 
L 352.053408 225.58022 
L 352.053408 225.58022 
L 352.053408 221.188933 
L 352.417898 221.188933 
L 352.417898 216.797645 
L 352.644276 216.797645 
L 352.644276 212.406358 
L 352.802094 212.406358 
L 352.802094 208.015071 
L 352.847088 208.015071 
L 352.847088 203.623784 
L 352.914498 203.623784 
L 352.914498 199.232497 
L 353.138501 199.232497 
L 353.138501 194.84121 
L 353.450322 194.84121 
L 353.450322 190.449923 
L 353.539035 190.449923 
L 353.539035 186.058636 
L 354.023983 186.058636 
L 354.023983 181.667348 
L 354.850005 181.667348 
L 354.850005 177.276061 
L 354.979112 177.276061 
L 354.979112 172.884774 
L 355.150705 172.884774 
L 355.150705 168.493487 
L 356.08342 168.493487 
L 356.08342 164.1022 
L 356.12538 164.1022 
L 356.12538 159.710913 
L 356.167301 159.710913 
L 356.167301 155.319626 
L 356.894941 155.319626 
L 356.894941 150.928338 
L 358.636396 150.928338 
L 358.636396 146.537051 
L 361.50869 146.537051 
L 361.50869 142.145764 
L 361.769757 142.145764 
L 361.769757 137.754477 
L 363.736373 137.754477 
L 363.736373 133.36319 
L 365.777878 133.36319 
L 365.777878 128.971903 
L 366.135092 128.971903 
L 366.135092 124.580616 
L 366.270462 124.580616 
L 366.270462 120.189329 
L 366.506425 120.189329 
L 366.506425 115.798041 
L 367.995668 115.798041 
L 367.995668 111.406754 
L 368.658756 111.406754 
L 368.658756 107.015467 
L 368.978849 107.015467 
L 368.978849 102.62418 
L 370.097879 102.62418 
L 370.097879 98.232893 
L 371.885666 98.232893 
L 371.885666 93.841606 
L 392.451187 93.841606 
L 392.451187 89.450319 
L 396.144021 89.450319 
L 396.144021 85.059032 
L 400.879773 85.059032 
L 400.879773 80.667744 
L 402.446626 80.667744 
L 402.446626 76.276457 
L 409.782497 76.276457 
L 409.782497 71.88517 
L 410.939129 71.88517 
L 410.939129 67.493883 
L 415.815093 67.493883 
L 415.815093 63.102596 
L 422.424686 63.102596 
L 422.424686 58.711309 
L 432.214305 58.711309 
L 432.214305 54.320022 
L 433.910015 54.320022 
L 433.910015 49.928735 
L 438.1825 49.928735 
" style="fill:none;stroke:#f5deb3;stroke-linecap:square;stroke-width:1.5;"/>
   </g>
   <g id="line2d_8">
    <path clip-path="url(#p9f189971c0)" style="fill:none;stroke:#f5deb3;stroke-linecap:square;stroke-width:1.5;"/>
   </g>
   <g id="line2d_9">
    <path clip-path="url(#p9f189971c0)" d="M 273.038339 278.275665 
L 273.038339 273.884378 
L 293.854168 273.884378 
L 293.854168 269.493091 
L 305.781906 269.493091 
L 305.781906 265.101804 
L 324.725797 265.101804 
L 324.725797 260.710517 
L 327.660111 260.710517 
L 327.660111 256.31923 
L 328.422683 256.31923 
L 328.422683 251.927942 
L 329.432902 251.927942 
L 329.432902 247.536655 
L 329.617619 247.536655 
L 329.617619 243.145368 
L 337.037347 243.145368 
L 337.037347 238.754081 
L 338.433159 238.754081 
L 338.433159 234.362794 
L 341.365322 234.362794 
L 341.365322 229.971507 
L 341.537281 229.971507 
L 341.537281 225.58022 
L 341.822488 225.58022 
L 341.822488 221.188933 
L 344.20631 221.188933 
L 344.20631 216.797645 
L 344.23333 216.797645 
L 344.23333 212.406358 
L 344.877178 212.406358 
L 344.877178 208.015071 
L 345.142866 208.015071 
L 345.142866 203.623784 
L 345.327957 203.623784 
L 345.327957 199.232497 
L 345.407059 199.232497 
L 345.407059 194.84121 
L 345.617349 194.84121 
L 345.617349 190.449923 
L 345.878894 190.449923 
L 345.878894 186.058636 
L 346.113046 186.058636 
L 346.113046 181.667348 
L 346.164921 181.667348 
L 346.164921 177.276061 
L 347.493964 177.276061 
L 347.493964 172.884774 
L 347.770353 172.884774 
L 347.770353 168.493487 
L 347.945393 168.493487 
L 347.945393 164.1022 
L 348.737377 164.1022 
L 348.737377 159.710913 
L 349.177068 159.710913 
L 349.177068 155.319626 
L 349.516228 155.319626 
L 349.516228 150.928338 
L 350.495622 150.928338 
L 350.495622 146.537051 
L 350.542879 146.537051 
L 350.542879 142.145764 
L 350.707905 142.145764 
L 350.707905 137.754477 
L 350.754949 137.754477 
L 350.754949 133.36319 
L 351.47817 133.36319 
L 351.47817 128.971903 
L 351.686068 128.971903 
L 351.686068 124.580616 
L 352.213221 124.580616 
L 352.213221 120.189329 
L 353.361441 120.189329 
L 353.361441 115.798041 
L 353.936182 115.798041 
L 353.936182 111.406754 
L 353.980103 111.406754 
L 353.980103 107.015467 
L 354.56905 107.015467 
L 354.56905 102.62418 
L 354.89308 102.62418 
L 354.89308 98.232893 
L 355.086431 98.232893 
L 355.086431 93.841606 
L 355.576964 93.841606 
L 355.576964 89.450319 
L 355.999389 89.450319 
L 355.999389 85.059032 
L 357.059688 85.059032 
L 357.059688 80.667744 
L 357.672393 80.667744 
L 357.672393 76.276457 
L 357.854657 76.276457 
L 357.854657 71.88517 
L 358.397243 71.88517 
L 358.397243 67.493883 
L 359.287855 67.493883 
L 359.287855 63.102596 
L 360.887514 63.102596 
L 360.887514 58.711309 
L 361.433832 58.711309 
L 361.433832 54.320022 
L 364.951042 54.320022 
L 364.951042 49.928735 
L 365.072533 49.928735 
L 365.072533 45.537447 
L 365.107187 45.537447 
L 365.107187 41.14616 
L 368.417247 41.14616 
L 368.417247 36.754873 
L 371.795621 36.754873 
L 371.795621 32.363586 
L 375.616702 32.363586 
L 375.616702 27.972299 
L 376.711703 27.972299 
L 376.711703 23.581012 
L 394.570363 23.581012 
L 394.570363 19.189725 
L 398.770764 19.189725 
L 398.770764 14.798437 
L 398.770764 14.798437 
L 398.770764 14.798437 
L 426.4825 14.798437 
" style="fill:none;stroke:#f5deb3;stroke-linecap:square;stroke-width:1.5;"/>
   </g>
   <g id="line2d_10">
    <path clip-path="url(#p9f189971c0)" d="M 423.506208 278.275665 
L 423.506208 273.884378 
L 438.1825 273.884378 
" style="fill:none;stroke:#f5deb3;stroke-linecap:square;stroke-width:1.5;"/>
   </g>
   <g id="line2d_11">
    <path clip-path="url(#p9f189971c0)" d="M 274.610311 278.275665 
L 274.610311 273.884378 
L 316.373825 273.884378 
L 316.373825 269.493091 
L 318.802794 269.493091 
L 318.802794 265.101804 
L 320.084798 265.101804 
L 320.084798 260.710517 
L 325.011351 260.710517 
L 325.011351 256.31923 
L 326.571275 256.31923 
L 326.571275 251.927942 
L 329.984888 251.927942 
L 329.984888 247.536655 
L 330.167451 247.536655 
L 330.167451 243.145368 
L 332.44367 243.145368 
L 332.44367 238.754081 
L 332.961574 238.754081 
L 332.961574 234.362794 
L 334.014148 234.362794 
L 334.014148 229.971507 
L 334.614668 229.971507 
L 334.614668 225.58022 
L 344.502673 225.58022 
L 344.502673 221.188933 
L 350.942655 221.188933 
L 350.942655 216.797645 
L 360.277213 216.797645 
L 360.277213 212.406358 
L 360.430533 212.406358 
L 360.430533 208.015071 
L 380.529824 208.015071 
L 380.529824 203.623784 
L 438.1825 203.623784 
" style="fill:none;stroke:#f5deb3;stroke-linecap:square;stroke-width:1.5;"/>
   </g>
   <g id="line2d_12">
    <path clip-path="url(#p9f189971c0)" d="M 258.947555 278.275665 
L 258.947555 273.884378 
L 264.572347 273.884378 
L 264.572347 269.493091 
L 266.306946 269.493091 
L 266.306946 265.101804 
L 267.150802 265.101804 
L 267.150802 260.710517 
L 267.150802 260.710517 
L 267.150802 256.31923 
L 270.382339 256.31923 
L 270.382339 251.927942 
L 271.91839 251.927942 
L 271.91839 247.536655 
L 271.91839 247.536655 
L 271.91839 243.145368 
L 272.667982 243.145368 
L 272.667982 238.754081 
L 274.847551 238.754081 
L 274.847551 234.362794 
L 275.552165 234.362794 
L 275.552165 229.971507 
L 276.930457 229.971507 
L 276.930457 225.58022 
L 276.930457 225.58022 
L 276.930457 221.188933 
L 283.27357 221.188933 
L 283.27357 216.797645 
L 283.863202 216.797645 
L 283.863202 212.406358 
L 283.863202 212.406358 
L 283.863202 208.015071 
L 284.445524 208.015071 
L 284.445524 203.623784 
L 286.705201 203.623784 
L 286.705201 199.232497 
L 287.253535 199.232497 
L 287.253535 194.84121 
L 288.331366 194.84121 
L 288.331366 190.449923 
L 289.903113 190.449923 
L 289.903113 186.058636 
L 294.325477 186.058636 
L 294.325477 181.667348 
L 295.711678 181.667348 
L 295.711678 177.276061 
L 303.652081 177.276061 
L 303.652081 172.884774 
L 306.631578 172.884774 
L 306.631578 168.493487 
L 309.772058 168.493487 
L 309.772058 164.1022 
L 309.772058 164.1022 
L 309.772058 159.710913 
L 310.108385 159.710913 
L 310.108385 155.319626 
L 314.884058 155.319626 
L 314.884058 150.928338 
L 349.924799 150.928338 
L 349.924799 146.537051 
L 362.342723 146.537051 
L 362.342723 142.145764 
L 406.763393 142.145764 
L 406.763393 137.754477 
L 436.948364 137.754477 
L 436.948364 133.36319 
L 438.1825 133.36319 
" style="fill:none;stroke:#f5deb3;stroke-linecap:square;stroke-width:1.5;"/>
   </g>
   <g id="line2d_13">
    <path clip-path="url(#p9f189971c0)" d="M 373.564518 278.275665 
L 373.564518 273.884378 
L 377.436657 273.884378 
L 377.436657 269.493091 
L 386.550555 269.493091 
L 386.550555 265.101804 
L 386.550555 265.101804 
L 386.550555 260.710517 
L 393.61722 260.710517 
L 393.61722 256.31923 
L 398.243349 256.31923 
L 398.243349 251.927942 
L 398.243349 251.927942 
L 398.243349 247.536655 
L 414.033926 247.536655 
L 414.033926 243.145368 
L 414.033926 243.145368 
L 414.033926 238.754081 
L 416.487029 238.754081 
L 416.487029 234.362794 
L 416.487029 234.362794 
L 416.487029 229.971507 
L 420.221464 229.971507 
L 420.221464 225.58022 
L 421.967458 225.58022 
L 421.967458 221.188933 
L 422.347936 221.188933 
L 422.347936 216.797645 
L 426.40741 216.797645 
L 426.40741 212.406358 
L 426.40741 212.406358 
L 426.40741 212.406358 
L 426.4825 212.406358 
" style="fill:none;stroke:#f5deb3;stroke-linecap:square;stroke-width:1.5;"/>
   </g>
   <g id="line2d_14">
    <path clip-path="url(#p9f189971c0)" d="M 295.483466 278.275665 
L 295.483466 273.884378 
L 300.057462 273.884378 
L 300.057462 269.493091 
L 313.293327 269.493091 
L 313.293327 265.101804 
L 317.101358 265.101804 
L 317.101358 260.710517 
L 320.310091 260.710517 
L 320.310091 256.31923 
L 321.944497 256.31923 
L 321.944497 251.927942 
L 324.684862 251.927942 
L 324.684862 247.536655 
L 328.119138 247.536655 
L 328.119138 243.145368 
L 329.728102 243.145368 
L 329.728102 238.754081 
L 333.710984 238.754081 
L 333.710984 234.362794 
L 333.91331 234.362794 
L 333.91331 229.971507 
L 334.448626 229.971507 
L 334.448626 225.58022 
L 335.56631 225.58022 
L 335.56631 221.188933 
L 337.910715 221.188933 
L 337.910715 216.797645 
L 340.231978 216.797645 
L 340.231978 212.406358 
L 345.643569 212.406358 
L 345.643569 208.015071 
L 347.291927 208.015071 
L 347.291927 203.623784 
L 348.565268 203.623784 
L 348.565268 199.232497 
L 352.959384 199.232497 
L 352.959384 194.84121 
L 357.100784 194.84121 
L 357.100784 190.449923 
L 362.37945 190.449923 
L 362.37945 186.058636 
L 362.635736 186.058636 
L 362.635736 181.667348 
L 363.071856 181.667348 
L 363.071856 177.276061 
L 367.832509 177.276061 
L 367.832509 172.884774 
L 368.125788 172.884774 
L 368.125788 168.493487 
L 368.851074 168.493487 
L 368.851074 164.1022 
L 375.143485 164.1022 
L 375.143485 159.710913 
L 380.417433 159.710913 
L 380.417433 155.319626 
L 384.406611 155.319626 
L 384.406611 150.928338 
L 388.653392 150.928338 
L 388.653392 146.537051 
L 390.986682 146.537051 
L 390.986682 142.145764 
L 394.477768 142.145764 
L 394.477768 137.754477 
L 397.10911 137.754477 
L 397.10911 133.36319 
L 404.475121 133.36319 
L 404.475121 128.971903 
L 407.239059 128.971903 
L 407.239059 124.580616 
L 413.145397 124.580616 
L 413.145397 120.189329 
L 419.170343 120.189329 
L 419.170343 115.798041 
L 423.963616 115.798041 
L 423.963616 111.406754 
L 438.1825 111.406754 
" style="fill:none;stroke:#f5deb3;stroke-linecap:square;stroke-width:1.5;"/>
   </g>
   <g id="line2d_15">
    <path clip-path="url(#p9f189971c0)" style="fill:none;stroke:#f5deb3;stroke-linecap:square;stroke-width:1.5;"/>
   </g>
   <g id="line2d_16">
    <path clip-path="url(#p9f189971c0)" style="fill:none;stroke:#f5deb3;stroke-linecap:square;stroke-width:1.5;"/>
   </g>
   <g id="line2d_17">
    <path clip-path="url(#p9f189971c0)" d="M 378.307781 278.275665 
L 378.307781 273.884378 
L 398.897479 273.884378 
L 398.897479 269.493091 
L 400.774515 269.493091 
L 400.774515 265.101804 
L 402.077528 265.101804 
L 402.077528 260.710517 
L 404.362609 260.710517 
L 404.362609 256.31923 
L 404.594836 256.31923 
L 404.594836 251.927942 
L 404.781283 251.927942 
L 404.781283 247.536655 
L 405.819208 247.536655 
L 405.819208 243.145368 
L 406.998278 243.145368 
L 406.998278 238.754081 
L 407.674977 238.754081 
L 407.674977 234.362794 
L 407.744909 234.362794 
L 407.744909 229.971507 
L 408.624107 229.971507 
L 408.624107 225.58022 
L 413.782649 225.58022 
L 413.782649 221.188933 
L 414.453796 221.188933 
L 414.453796 216.797645 
L 423.690702 216.797645 
L 423.690702 212.406358 
L 427.17607 212.406358 
L 427.17607 208.015071 
L 438.1825 208.015071 
" style="fill:none;stroke:#f5deb3;stroke-linecap:square;stroke-width:1.5;"/>
   </g>
   <g id="line2d_18">
    <path clip-path="url(#p9f189971c0)" d="M 264.1285 278.275665 
L 264.1285 273.884378 
L 264.276916 273.884378 
L 264.276916 269.493091 
L 265.879264 269.493091 
L 265.879264 265.101804 
L 268.252868 265.101804 
L 268.252868 260.710517 
L 270.771086 260.710517 
L 270.771086 256.31923 
L 271.284462 256.31923 
L 271.284462 251.927942 
L 271.91839 251.927942 
L 271.91839 247.536655 
L 273.038339 247.536655 
L 273.038339 243.145368 
L 274.252189 243.145368 
L 274.252189 238.754081 
L 275.318466 238.754081 
L 275.318466 234.362794 
L 276.703532 234.362794 
L 276.703532 229.971507 
L 276.930457 229.971507 
L 276.930457 225.58022 
L 279.249238 225.58022 
L 279.249238 221.188933 
L 279.891254 221.188933 
L 279.891254 216.797645 
L 280.103324 216.797645 
L 280.103324 212.406358 
L 282.172971 212.406358 
L 282.172971 208.015071 
L 282.172971 208.015071 
L 282.172971 203.623784 
L 283.372357 203.623784 
L 283.372357 199.232497 
L 284.54188 199.232497 
L 284.54188 194.84121 
L 286.888691 194.84121 
L 286.888691 190.449923 
L 288.861147 190.449923 
L 288.861147 186.058636 
L 293.933048 186.058636 
L 293.933048 181.667348 
L 301.219045 181.667348 
L 301.219045 177.276061 
L 307.525201 177.276061 
L 307.525201 172.884774 
L 308.690854 172.884774 
L 308.690854 168.493487 
L 314.884058 168.493487 
L 314.884058 164.1022 
L 318.383177 164.1022 
L 318.383177 159.710913 
L 318.523466 159.710913 
L 318.523466 155.319626 
L 327.966627 155.319626 
L 327.966627 150.928338 
L 332.025196 150.928338 
L 332.025196 146.537051 
L 342.247077 146.537051 
L 342.247077 142.145764 
L 364.497021 142.145764 
L 364.497021 137.754477 
L 371.825655 137.754477 
L 371.825655 133.36319 
L 380.504871 133.36319 
L 380.504871 128.971903 
L 381.942757 128.971903 
L 381.942757 124.580616 
L 383.852073 124.580616 
L 383.852073 120.189329 
L 384.60145 120.189329 
L 384.60145 115.798041 
L 386.725788 115.798041 
L 386.725788 111.406754 
L 387.334007 111.406754 
L 387.334007 107.015467 
L 389.20621 107.015467 
L 389.20621 102.62418 
L 390.272435 102.62418 
L 390.272435 98.232893 
L 393.598336 98.232893 
L 393.598336 93.841606 
L 395.685565 93.841606 
L 395.685565 89.450319 
L 399.816426 89.450319 
L 399.816426 85.059032 
L 419.405361 85.059032 
L 419.405361 80.667744 
L 419.405361 80.667744 
L 419.405361 80.667744 
L 426.4825 80.667744 
" style="fill:none;stroke:#f5deb3;stroke-linecap:square;stroke-width:1.5;"/>
   </g>
   <g id="line2d_19">
    <path clip-path="url(#p9f189971c0)" d="M 432.746716 278.275665 
L 432.746716 276.811903 
L 432.746716 276.811903 
L 432.746716 276.811903 
L 432.746716 275.34814 
L 432.746716 275.34814 
L 432.746716 275.34814 
L 432.746716 273.884378 
L 433.491792 273.884378 
L 433.491792 269.493091 
L 437.507933 269.493091 
L 437.507933 265.101804 
L 438.1825 265.101804 
L 438.1825 265.101804 
" style="fill:none;stroke:#f5deb3;stroke-linecap:square;stroke-width:1.5;"/>
   </g>
   <g id="line2d_20">
    <path clip-path="url(#p9f189971c0)" d="M 283.470937 278.275665 
L 283.470937 273.884378 
L 287.70564 273.884378 
L 287.70564 269.493091 
L 289.471766 269.493091 
L 289.471766 265.101804 
L 293.057989 265.101804 
L 293.057989 260.710517 
L 294.403571 260.710517 
L 294.403571 256.31923 
L 295.17745 256.31923 
L 295.17745 251.927942 
L 295.63573 251.927942 
L 295.63573 247.536655 
L 296.164801 247.536655 
L 296.164801 243.145368 
L 297.571517 243.145368 
L 297.571517 238.754081 
L 298.079342 238.754081 
L 298.079342 234.362794 
L 301.955635 234.362794 
L 301.955635 229.971507 
L 302.549825 229.971507 
L 302.549825 225.58022 
L 303.652081 225.58022 
L 303.652081 221.188933 
L 304.666391 221.188933 
L 304.666391 216.797645 
L 304.729064 216.797645 
L 304.729064 212.406358 
L 305.474689 212.406358 
L 305.474689 208.015071 
L 305.597817 208.015071 
L 305.597817 203.623784 
L 309.26301 203.623784 
L 309.26301 199.232497 
L 311.484388 199.232497 
L 311.484388 194.84121 
L 314.427756 194.84121 
L 314.427756 190.449923 
L 316.32492 190.449923 
L 316.32492 186.058636 
L 320.712914 186.058636 
L 320.712914 181.667348 
L 321.200608 181.667348 
L 321.200608 177.276061 
L 328.799376 177.276061 
L 328.799376 172.884774 
L 330.78291 172.884774 
L 330.78291 168.493487 
L 333.337773 168.493487 
L 333.337773 164.1022 
L 336.051076 164.1022 
L 336.051076 159.710913 
L 338.646606 159.710913 
L 338.646606 155.319626 
L 344.743769 155.319626 
L 344.743769 150.928338 
L 348.020212 150.928338 
L 348.020212 146.537051 
L 386.054177 146.537051 
L 386.054177 142.145764 
L 392.990012 142.145764 
L 392.990012 137.754477 
L 398.787679 137.754477 
L 398.787679 133.36319 
L 414.598963 133.36319 
L 414.598963 128.971903 
L 417.143769 128.971903 
L 417.143769 124.580616 
L 430.390401 124.580616 
L 430.390401 120.189329 
L 438.1825 120.189329 
" style="fill:none;stroke:#f5deb3;stroke-linecap:square;stroke-width:1.5;"/>
   </g>
   <g id="line2d_21"/>
   <g id="line2d_22">
    <path clip-path="url(#p9f189971c0)" d="M 274.371867 278.275665 
L 274.371867 273.884378 
L 277.493019 273.884378 
L 277.493019 269.493091 
L 277.716171 269.493091 
L 277.716171 265.101804 
L 282.375008 265.101804 
L 282.375008 260.710517 
L 287.615567 260.710517 
L 287.615567 256.31923 
L 287.97483 256.31923 
L 287.97483 251.927942 
L 289.036421 251.927942 
L 289.036421 247.536655 
L 290.754104 247.536655 
L 290.754104 243.145368 
L 292.411185 243.145368 
L 292.411185 238.754081 
L 295.02369 238.754081 
L 295.02369 234.362794 
L 296.239898 234.362794 
L 296.239898 229.971507 
L 300.744219 229.971507 
L 300.744219 225.58022 
L 300.948304 225.58022 
L 300.948304 221.188933 
L 307.347831 221.188933 
L 307.347831 216.797645 
L 312.130821 216.797645 
L 312.130821 212.406358 
L 314.732449 212.406358 
L 314.732449 208.015071 
L 315.285972 208.015071 
L 315.285972 203.623784 
L 316.763244 203.623784 
L 316.763244 199.232497 
L 318.988093 199.232497 
L 318.988093 194.84121 
L 319.85842 194.84121 
L 319.85842 190.449923 
L 321.156481 190.449923 
L 321.156481 186.058636 
L 322.719511 186.058636 
L 322.719511 181.667348 
L 324.970664 181.667348 
L 324.970664 177.276061 
L 349.079714 177.276061 
L 349.079714 172.884774 
L 349.467926 172.884774 
L 349.467926 168.493487 
L 361.302542 168.493487 
L 361.302542 164.1022 
L 364.933661 164.1022 
L 364.933661 159.710913 
L 367.273491 159.710913 
L 367.273491 155.319626 
L 368.690864 155.319626 
L 368.690864 150.928338 
L 369.769666 150.928338 
L 369.769666 146.537051 
L 370.670638 146.537051 
L 370.670638 142.145764 
L 372.938294 142.145764 
L 372.938294 137.754477 
L 374.424598 137.754477 
L 374.424598 133.36319 
L 376.508325 133.36319 
L 376.508325 128.971903 
L 388.432538 128.971903 
L 388.432538 124.580616 
L 388.758196 124.580616 
L 388.758196 120.189329 
L 392.364011 120.189329 
L 392.364011 115.798041 
L 393.843235 115.798041 
L 393.843235 111.406754 
L 399.049088 111.406754 
L 399.049088 107.015467 
L 402.006517 107.015467 
L 402.006517 102.62418 
L 403.666582 102.62418 
L 403.666582 98.232893 
L 406.073335 98.232893 
L 406.073335 93.841606 
L 406.927225 93.841606 
L 406.927225 89.450319 
L 408.238456 89.450319 
L 408.238456 85.059032 
L 411.08254 85.059032 
L 411.08254 80.667744 
L 425.544706 80.667744 
L 425.544706 76.276457 
L 438.1825 76.276457 
" style="fill:none;stroke:#f5deb3;stroke-linecap:square;stroke-width:1.5;"/>
   </g>
   <g id="line2d_23">
    <path clip-path="url(#p9f189971c0)" d="M 399.832969 278.275665 
L 399.832969 273.884378 
L 421.25482 273.884378 
L 421.25482 269.493091 
L 438.1825 269.493091 
" style="fill:none;stroke:#f5deb3;stroke-linecap:square;stroke-width:1.5;"/>
   </g>
   <g id="line2d_24">
    <path clip-path="url(#p9f189971c0)" d="M 302.286668 278.275665 
L 302.286668 273.884378 
L 305.165449 273.884378 
L 305.165449 269.493091 
L 306.147935 269.493091 
L 306.147935 265.101804 
L 315.185815 265.101804 
L 315.185815 260.710517 
L 315.285972 260.710517 
L 315.285972 256.31923 
L 318.429987 256.31923 
L 318.429987 251.927942 
L 322.204258 251.927942 
L 322.204258 247.536655 
L 327.157717 247.536655 
L 327.157717 243.145368 
L 340.671121 243.145368 
L 340.671121 238.754081 
L 345.564864 238.754081 
L 345.564864 234.362794 
L 348.859927 234.362794 
L 348.859927 229.971507 
L 356.915566 229.971507 
L 356.915566 225.58022 
L 367.290028 225.58022 
L 367.290028 221.188933 
L 374.834725 221.188933 
L 374.834725 216.797645 
L 375.045463 216.797645 
L 375.045463 212.406358 
L 375.602852 212.406358 
L 375.602852 208.015071 
L 375.630548 208.015071 
L 375.630548 203.623784 
L 380.204401 203.623784 
L 380.204401 199.232497 
L 381.296855 199.232497 
L 381.296855 194.84121 
L 381.443876 194.84121 
L 381.443876 190.449923 
L 383.630748 190.449923 
L 383.630748 186.058636 
L 385.887546 186.058636 
L 385.887546 181.667348 
L 385.943155 181.667348 
L 385.943155 177.276061 
L 386.682041 177.276061 
L 386.682041 172.884774 
L 386.834978 172.884774 
L 386.834978 168.493487 
L 387.355584 168.493487 
L 387.355584 164.1022 
L 388.062125 164.1022 
L 388.062125 159.710913 
L 388.935829 159.710913 
L 388.935829 155.319626 
L 389.351158 155.319626 
L 389.351158 150.928338 
L 391.483234 150.928338 
L 391.483234 146.537051 
L 391.641029 146.537051 
L 391.641029 142.145764 
L 391.709898 142.145764 
L 391.709898 137.754477 
L 392.042974 137.754477 
L 392.042974 133.36319 
L 392.711749 133.36319 
L 392.711749 128.971903 
L 393.104674 128.971903 
L 393.104674 124.580616 
L 393.890185 124.580616 
L 393.890185 120.189329 
L 394.049465 120.189329 
L 394.049465 115.798041 
L 394.068168 115.798041 
L 394.068168 111.406754 
L 394.755007 111.406754 
L 394.755007 107.015467 
L 397.649341 107.015467 
L 397.649341 102.62418 
L 399.609147 102.62418 
L 399.609147 98.232893 
L 399.932104 98.232893 
L 399.932104 93.841606 
L 401.097635 93.841606 
L 401.097635 89.450319 
L 401.895843 89.450319 
L 401.895843 85.059032 
L 403.021945 85.059032 
L 403.021945 80.667744 
L 403.970471 80.667744 
L 403.970471 76.276457 
L 404.053697 76.276457 
L 404.053697 71.88517 
L 408.058322 71.88517 
L 408.058322 67.493883 
L 409.047417 67.493883 
L 409.047417 63.102596 
L 410.222065 63.102596 
L 410.222065 58.711309 
L 411.049985 58.711309 
L 411.049985 54.320022 
L 412.004185 54.320022 
L 412.004185 49.928735 
L 412.277823 49.928735 
L 412.277823 45.537447 
L 412.429861 45.537447 
L 412.429861 41.14616 
L 412.600318 41.14616 
L 412.600318 36.754873 
L 412.61292 36.754873 
L 412.61292 32.363586 
L 438.1825 32.363586 
" style="fill:none;stroke:#f5deb3;stroke-linecap:square;stroke-width:1.5;"/>
   </g>
   <g id="line2d_25">
    <path clip-path="url(#p9f189971c0)" style="fill:none;stroke:#f5deb3;stroke-linecap:square;stroke-width:1.5;"/>
   </g>
   <g id="line2d_26">
    <path clip-path="url(#p9f189971c0)" d="M 378.412283 278.275665 
L 378.412283 273.884378 
L 380.766216 273.884378 
L 380.766216 269.493091 
L 383.0551 269.493091 
L 383.0551 265.101804 
L 389.20621 265.101804 
L 389.20621 260.710517 
L 389.680797 260.710517 
L 389.680797 256.31923 
L 389.773093 256.31923 
L 389.773093 251.927942 
L 390.038711 251.927942 
L 390.038711 247.536655 
L 390.08962 247.536655 
L 390.08962 243.145368 
L 390.505002 243.145368 
L 390.505002 238.754081 
L 390.976697 238.754081 
L 390.976697 234.362794 
L 391.542469 234.362794 
L 391.542469 229.971507 
L 391.572059 229.971507 
L 391.572059 225.58022 
L 391.857134 225.58022 
L 391.857134 221.188933 
L 392.247524 221.188933 
L 392.247524 216.797645 
L 392.364011 216.797645 
L 392.364011 212.406358 
L 392.422147 212.406358 
L 392.422147 208.015071 
L 392.576824 208.015071 
L 392.576824 203.623784 
L 393.41856 203.623784 
L 393.41856 199.232497 
L 398.209118 199.232497 
L 398.209118 194.84121 
L 398.251903 194.84121 
L 398.251903 190.449923 
L 398.311737 190.449923 
L 398.311737 186.058636 
L 398.55031 186.058636 
L 398.55031 181.667348 
L 398.762304 181.667348 
L 398.762304 177.276061 
L 399.082712 177.276061 
L 399.082712 172.884774 
L 399.175056 172.884774 
L 399.175056 168.493487 
L 399.283955 168.493487 
L 399.283955 164.1022 
L 399.425983 164.1022 
L 399.425983 159.710913 
L 399.434324 159.710913 
L 399.434324 155.319626 
L 399.567582 155.319626 
L 399.567582 150.928338 
L 399.592526 150.928338 
L 399.592526 146.537051 
L 399.973348 146.537051 
L 399.973348 142.145764 
L 400.022794 142.145764 
L 400.022794 137.754477 
L 400.121529 137.754477 
L 400.121529 133.36319 
L 400.154395 133.36319 
L 400.154395 128.971903 
L 400.26105 128.971903 
L 400.26105 124.580616 
L 400.48995 124.580616 
L 400.48995 120.189329 
L 401.482468 120.189329 
L 401.482468 115.798041 
L 401.602085 115.798041 
L 401.602085 111.406754 
L 401.673709 111.406754 
L 401.673709 107.015467 
L 401.729341 107.015467 
L 401.729341 102.62418 
L 401.745224 102.62418 
L 401.745224 98.232893 
L 402.109054 98.232893 
L 402.109054 93.841606 
L 406.806187 93.841606 
L 406.806187 89.450319 
L 407.231995 89.450319 
L 407.231995 85.059032 
L 414.556669 85.059032 
L 414.556669 80.667744 
L 414.659316 80.667744 
L 414.659316 76.276457 
L 420.955106 76.276457 
L 420.955106 71.88517 
L 428.779475 71.88517 
L 428.779475 67.493883 
L 428.966656 67.493883 
L 428.966656 63.102596 
L 429.011113 63.102596 
L 429.011113 58.711309 
L 432.12706 58.711309 
L 432.12706 54.320022 
L 434.451364 54.320022 
L 434.451364 49.928735 
L 438.1825 49.928735 
" style="fill:none;stroke:#f5deb3;stroke-linecap:square;stroke-width:1.5;"/>
   </g>
   <g id="line2d_27"/>
   <g id="line2d_28">
    <path clip-path="url(#p9f189971c0)" d="M 288.153436 278.275665 
L 288.153436 273.884378 
L 289.903113 273.884378 
L 289.903113 269.493091 
L 295.407149 269.493091 
L 295.407149 265.101804 
L 303.652081 265.101804 
L 303.652081 260.710517 
L 328.309083 260.710517 
L 328.309083 256.31923 
L 347.342518 256.31923 
L 347.342518 251.927942 
L 352.847088 251.927942 
L 352.847088 247.536655 
L 354.17724 247.536655 
L 354.17724 243.145368 
L 354.395316 243.145368 
L 354.395316 238.754081 
L 356.936182 238.754081 
L 356.936182 234.362794 
L 357.793981 234.362794 
L 357.793981 229.971507 
L 358.616513 229.971507 
L 358.616513 225.58022 
L 360.296406 225.58022 
L 360.296406 221.188933 
L 360.906458 221.188933 
L 360.906458 216.797645 
L 361.396358 216.797645 
L 361.396358 212.406358 
L 361.546074 212.406358 
L 361.546074 208.015071 
L 362.232371 208.015071 
L 362.232371 203.623784 
L 363.486038 203.623784 
L 363.486038 199.232497 
L 366.354871 199.232497 
L 366.354871 194.84121 
L 366.573626 194.84121 
L 366.573626 190.449923 
L 366.791367 190.449923 
L 366.791367 186.058636 
L 367.586703 186.058636 
L 367.586703 181.667348 
L 368.255549 181.667348 
L 368.255549 177.276061 
L 368.336468 177.276061 
L 368.336468 172.884774 
L 368.433387 172.884774 
L 368.433387 168.493487 
L 370.655249 168.493487 
L 370.655249 164.1022 
L 370.900863 164.1022 
L 370.900863 159.710913 
L 371.403419 159.710913 
L 371.403419 155.319626 
L 371.418565 155.319626 
L 371.418565 150.928338 
L 371.87067 150.928338 
L 371.87067 146.537051 
L 372.776747 146.537051 
L 372.776747 142.145764 
L 373.967849 142.145764 
L 373.967849 137.754477 
L 374.296585 137.754477 
L 374.296585 133.36319 
L 375.003391 133.36319 
L 375.003391 128.971903 
L 375.450228 128.971903 
L 375.450228 124.580616 
L 376.222109 124.580616 
L 376.222109 120.189329 
L 377.887435 120.189329 
L 377.887435 115.798041 
L 378.071799 115.798041 
L 378.071799 111.406754 
L 379.673908 111.406754 
L 379.673908 107.015467 
L 380.567228 107.015467 
L 380.567228 102.62418 
L 381.100107 102.62418 
L 381.100107 98.232893 
L 381.272306 98.232893 
L 381.272306 93.841606 
L 381.833699 93.841606 
L 381.833699 89.450319 
L 389.814055 89.450319 
L 389.814055 85.059032 
L 405.826488 85.059032 
L 405.826488 80.667744 
L 406.548837 80.667744 
L 406.548837 76.276457 
L 407.182515 76.276457 
L 407.182515 71.88517 
L 407.330797 71.88517 
L 407.330797 67.493883 
L 408.266108 67.493883 
L 408.266108 63.102596 
L 409.081389 63.102596 
L 409.081389 58.711309 
L 409.473682 58.711309 
L 409.473682 54.320022 
L 409.608199 54.320022 
L 409.608199 49.928735 
L 410.321395 49.928735 
L 410.321395 45.537447 
L 411.219024 45.537447 
L 411.219024 41.14616 
L 428.073095 41.14616 
L 428.073095 36.754873 
L 430.802827 36.754873 
L 430.802827 32.363586 
L 431.947907 32.363586 
L 431.947907 27.972299 
L 432.565796 27.972299 
L 432.565796 23.581012 
L 438.1825 23.581012 
" style="fill:none;stroke:#f5deb3;stroke-linecap:square;stroke-width:1.5;"/>
   </g>
   <g id="line2d_29">
    <path clip-path="url(#p9f189971c0)" d="M 248.382679 278.275665 
L 248.382679 273.884378 
L 248.382679 273.884378 
L 248.382679 269.493091 
L 248.382679 269.493091 
L 248.382679 265.101804 
L 266.306946 265.101804 
L 266.306946 260.710517 
L 266.306946 260.710517 
L 266.306946 256.31923 
L 266.306946 256.31923 
L 266.306946 251.927942 
L 267.979766 251.927942 
L 267.979766 247.536655 
L 267.979766 247.536655 
L 267.979766 243.145368 
L 267.979766 243.145368 
L 267.979766 238.754081 
L 268.388826 238.754081 
L 268.388826 234.362794 
L 268.388826 234.362794 
L 268.388826 229.971507 
L 268.388826 229.971507 
L 268.388826 225.58022 
L 271.028475 225.58022 
L 271.028475 221.188933 
L 271.028475 221.188933 
L 271.028475 216.797645 
L 271.028475 216.797645 
L 271.028475 212.406358 
L 275.318466 212.406358 
L 275.318466 208.015071 
L 275.318466 208.015071 
L 275.318466 203.623784 
L 275.318466 203.623784 
L 275.318466 199.232497 
L 275.66858 199.232497 
L 275.66858 194.84121 
L 275.66858 194.84121 
L 275.66858 190.449923 
L 275.66858 190.449923 
L 275.66858 186.058636 
L 277.493019 186.058636 
L 277.493019 181.667348 
L 277.493019 181.667348 
L 277.493019 177.276061 
L 277.493019 177.276061 
L 277.493019 172.884774 
L 289.64478 172.884774 
L 289.64478 168.493487 
L 289.64478 168.493487 
L 289.64478 164.1022 
L 289.64478 164.1022 
L 289.64478 159.710913 
L 314.018399 159.710913 
L 314.018399 155.319626 
L 314.018399 155.319626 
L 314.018399 150.928338 
L 314.018399 150.928338 
L 314.018399 146.537051 
L 355.767525 146.537051 
L 355.767525 142.145764 
L 355.767525 142.145764 
L 355.767525 137.754477 
L 355.767525 137.754477 
L 355.767525 133.36319 
L 438.1825 133.36319 
" style="fill:none;stroke:#f5deb3;stroke-linecap:square;stroke-width:1.5;"/>
   </g>
   <g id="line2d_30">
    <path clip-path="url(#p9f189971c0)" d="M 394.727357 278.275665 
L 394.727357 273.884378 
L 423.37613 273.884378 
L 423.37613 269.493091 
L 436.616954 269.493091 
L 436.616954 265.101804 
L 438.1825 265.101804 
" style="fill:none;stroke:#f5deb3;stroke-linecap:square;stroke-width:1.5;"/>
   </g>
   <g id="matplotlib.axis_1">
    <g id="xtick_1">
     <g id="line2d_31">
      <path clip-path="url(#p9f189971c0)" d="M 69.3625 278.275665 
L 69.3625 12.163665 
" style="fill:none;stroke:#b0b0b0;stroke-linecap:square;stroke-width:0.8;"/>
     </g>
     <g id="line2d_32">
      <defs>
       <path d="M 0 0 
L 0 3.5 
" id="m195572b3f6" style="stroke:#000000;stroke-width:0.8;"/>
      </defs>
      <g>
       <use style="stroke:#000000;stroke-width:0.8;" x="69.3625" xlink:href="#m195572b3f6" y="278.275665"/>
      </g>
     </g>
     <g id="text_1">
      <!-- 0 -->
      <defs>
       <path d="M 31.78125 66.40625 
Q 24.171875 66.40625 20.328125 58.90625 
Q 16.5 51.421875 16.5 36.375 
Q 16.5 21.390625 20.328125 13.890625 
Q 24.171875 6.390625 31.78125 6.390625 
Q 39.453125 6.390625 43.28125 13.890625 
Q 47.125 21.390625 47.125 36.375 
Q 47.125 51.421875 43.28125 58.90625 
Q 39.453125 66.40625 31.78125 66.40625 
z
M 31.78125 74.21875 
Q 44.046875 74.21875 50.515625 64.515625 
Q 56.984375 54.828125 56.984375 36.375 
Q 56.984375 17.96875 50.515625 8.265625 
Q 44.046875 -1.421875 31.78125 -1.421875 
Q 19.53125 -1.421875 13.0625 8.265625 
Q 6.59375 17.96875 6.59375 36.375 
Q 6.59375 54.828125 13.0625 64.515625 
Q 19.53125 74.21875 31.78125 74.21875 
z
" id="DejaVuSans-30"/>
      </defs>
      <g transform="translate(63 300.47254)scale(0.2 -0.2)">
       <use xlink:href="#DejaVuSans-30"/>
      </g>
     </g>
    </g>
    <g id="xtick_2">
     <g id="line2d_33">
      <path clip-path="url(#p9f189971c0)" d="M 285.68299 278.275665 
L 285.68299 12.163665 
" style="fill:none;stroke:#b0b0b0;stroke-linecap:square;stroke-width:0.8;"/>
     </g>
     <g id="line2d_34">
      <g>
       <use style="stroke:#000000;stroke-width:0.8;" x="285.68299" xlink:href="#m195572b3f6" y="278.275665"/>
      </g>
     </g>
     <g id="text_2">
      <!-- 2 -->
      <defs>
       <path d="M 19.1875 8.296875 
L 53.609375 8.296875 
L 53.609375 0 
L 7.328125 0 
L 7.328125 8.296875 
Q 12.9375 14.109375 22.625 23.890625 
Q 32.328125 33.6875 34.8125 36.53125 
Q 39.546875 41.84375 41.421875 45.53125 
Q 43.3125 49.21875 43.3125 52.78125 
Q 43.3125 58.59375 39.234375 62.25 
Q 35.15625 65.921875 28.609375 65.921875 
Q 23.96875 65.921875 18.8125 64.3125 
Q 13.671875 62.703125 7.8125 59.421875 
L 7.8125 69.390625 
Q 13.765625 71.78125 18.9375 73 
Q 24.125 74.21875 28.421875 74.21875 
Q 39.75 74.21875 46.484375 68.546875 
Q 53.21875 62.890625 53.21875 53.421875 
Q 53.21875 48.921875 51.53125 44.890625 
Q 49.859375 40.875 45.40625 35.40625 
Q 44.1875 33.984375 37.640625 27.21875 
Q 31.109375 20.453125 19.1875 8.296875 
z
" id="DejaVuSans-32"/>
      </defs>
      <g transform="translate(279.32049 300.47254)scale(0.2 -0.2)">
       <use xlink:href="#DejaVuSans-32"/>
      </g>
     </g>
    </g>
    <g id="xtick_3">
     <g id="line2d_35">
      <defs>
       <path d="M 0 0 
L 0 2 
" id="m64e95566f5" style="stroke:#000000;stroke-width:0.6;"/>
      </defs>
      <g>
       <use style="stroke:#000000;stroke-width:0.6;" x="101.921978" xlink:href="#m64e95566f5" y="278.275665"/>
      </g>
     </g>
    </g>
    <g id="xtick_4">
     <g id="line2d_36">
      <g>
       <use style="stroke:#000000;stroke-width:0.6;" x="120.968052" xlink:href="#m64e95566f5" y="278.275665"/>
      </g>
     </g>
    </g>
    <g id="xtick_5">
     <g id="line2d_37">
      <g>
       <use style="stroke:#000000;stroke-width:0.6;" x="134.481456" xlink:href="#m64e95566f5" y="278.275665"/>
      </g>
     </g>
    </g>
    <g id="xtick_6">
     <g id="line2d_38">
      <g>
       <use style="stroke:#000000;stroke-width:0.6;" x="144.963267" xlink:href="#m64e95566f5" y="278.275665"/>
      </g>
     </g>
    </g>
    <g id="xtick_7">
     <g id="line2d_39">
      <g>
       <use style="stroke:#000000;stroke-width:0.6;" x="153.52753" xlink:href="#m64e95566f5" y="278.275665"/>
      </g>
     </g>
    </g>
    <g id="xtick_8">
     <g id="line2d_40">
      <g>
       <use style="stroke:#000000;stroke-width:0.6;" x="160.768511" xlink:href="#m64e95566f5" y="278.275665"/>
      </g>
     </g>
    </g>
    <g id="xtick_9">
     <g id="line2d_41">
      <g>
       <use style="stroke:#000000;stroke-width:0.6;" x="167.040934" xlink:href="#m64e95566f5" y="278.275665"/>
      </g>
     </g>
    </g>
    <g id="xtick_10">
     <g id="line2d_42">
      <g>
       <use style="stroke:#000000;stroke-width:0.6;" x="172.573604" xlink:href="#m64e95566f5" y="278.275665"/>
      </g>
     </g>
    </g>
    <g id="xtick_11">
     <g id="line2d_43">
      <g>
       <use style="stroke:#000000;stroke-width:0.6;" x="210.082223" xlink:href="#m64e95566f5" y="278.275665"/>
      </g>
     </g>
    </g>
    <g id="xtick_12">
     <g id="line2d_44">
      <g>
       <use style="stroke:#000000;stroke-width:0.6;" x="229.128297" xlink:href="#m64e95566f5" y="278.275665"/>
      </g>
     </g>
    </g>
    <g id="xtick_13">
     <g id="line2d_45">
      <g>
       <use style="stroke:#000000;stroke-width:0.6;" x="242.641701" xlink:href="#m64e95566f5" y="278.275665"/>
      </g>
     </g>
    </g>
    <g id="xtick_14">
     <g id="line2d_46">
      <g>
       <use style="stroke:#000000;stroke-width:0.6;" x="253.123512" xlink:href="#m64e95566f5" y="278.275665"/>
      </g>
     </g>
    </g>
    <g id="xtick_15">
     <g id="line2d_47">
      <g>
       <use style="stroke:#000000;stroke-width:0.6;" x="261.687775" xlink:href="#m64e95566f5" y="278.275665"/>
      </g>
     </g>
    </g>
    <g id="xtick_16">
     <g id="line2d_48">
      <g>
       <use style="stroke:#000000;stroke-width:0.6;" x="268.928756" xlink:href="#m64e95566f5" y="278.275665"/>
      </g>
     </g>
    </g>
    <g id="xtick_17">
     <g id="line2d_49">
      <g>
       <use style="stroke:#000000;stroke-width:0.6;" x="275.201179" xlink:href="#m64e95566f5" y="278.275665"/>
      </g>
     </g>
    </g>
    <g id="xtick_18">
     <g id="line2d_50">
      <g>
       <use style="stroke:#000000;stroke-width:0.6;" x="280.733849" xlink:href="#m64e95566f5" y="278.275665"/>
      </g>
     </g>
    </g>
    <g id="xtick_19">
     <g id="line2d_51">
      <g>
       <use style="stroke:#000000;stroke-width:0.6;" x="318.242468" xlink:href="#m64e95566f5" y="278.275665"/>
      </g>
     </g>
    </g>
    <g id="xtick_20">
     <g id="line2d_52">
      <g>
       <use style="stroke:#000000;stroke-width:0.6;" x="337.288542" xlink:href="#m64e95566f5" y="278.275665"/>
      </g>
     </g>
    </g>
    <g id="xtick_21">
     <g id="line2d_53">
      <g>
       <use style="stroke:#000000;stroke-width:0.6;" x="350.801946" xlink:href="#m64e95566f5" y="278.275665"/>
      </g>
     </g>
    </g>
    <g id="xtick_22">
     <g id="line2d_54">
      <g>
       <use style="stroke:#000000;stroke-width:0.6;" x="361.283757" xlink:href="#m64e95566f5" y="278.275665"/>
      </g>
     </g>
    </g>
    <g id="xtick_23">
     <g id="line2d_55">
      <g>
       <use style="stroke:#000000;stroke-width:0.6;" x="369.84802" xlink:href="#m64e95566f5" y="278.275665"/>
      </g>
     </g>
    </g>
    <g id="xtick_24">
     <g id="line2d_56">
      <g>
       <use style="stroke:#000000;stroke-width:0.6;" x="377.089001" xlink:href="#m64e95566f5" y="278.275665"/>
      </g>
     </g>
    </g>
    <g id="xtick_25">
     <g id="line2d_57">
      <g>
       <use style="stroke:#000000;stroke-width:0.6;" x="383.361424" xlink:href="#m64e95566f5" y="278.275665"/>
      </g>
     </g>
    </g>
    <g id="xtick_26">
     <g id="line2d_58">
      <g>
       <use style="stroke:#000000;stroke-width:0.6;" x="388.894094" xlink:href="#m64e95566f5" y="278.275665"/>
      </g>
     </g>
    </g>
    <g id="xtick_27">
     <g id="line2d_59">
      <g>
       <use style="stroke:#000000;stroke-width:0.6;" x="426.402713" xlink:href="#m64e95566f5" y="278.275665"/>
      </g>
     </g>
    </g>
    <g id="text_3">
     <!-- log10 of FEvals / DIM -->
     <defs>
      <path d="M 9.421875 75.984375 
L 18.40625 75.984375 
L 18.40625 0 
L 9.421875 0 
z
" id="DejaVuSans-6c"/>
      <path d="M 30.609375 48.390625 
Q 23.390625 48.390625 19.1875 42.75 
Q 14.984375 37.109375 14.984375 27.296875 
Q 14.984375 17.484375 19.15625 11.84375 
Q 23.34375 6.203125 30.609375 6.203125 
Q 37.796875 6.203125 41.984375 11.859375 
Q 46.1875 17.53125 46.1875 27.296875 
Q 46.1875 37.015625 41.984375 42.703125 
Q 37.796875 48.390625 30.609375 48.390625 
z
M 30.609375 56 
Q 42.328125 56 49.015625 48.375 
Q 55.71875 40.765625 55.71875 27.296875 
Q 55.71875 13.875 49.015625 6.21875 
Q 42.328125 -1.421875 30.609375 -1.421875 
Q 18.84375 -1.421875 12.171875 6.21875 
Q 5.515625 13.875 5.515625 27.296875 
Q 5.515625 40.765625 12.171875 48.375 
Q 18.84375 56 30.609375 56 
z
" id="DejaVuSans-6f"/>
      <path d="M 45.40625 27.984375 
Q 45.40625 37.75 41.375 43.109375 
Q 37.359375 48.484375 30.078125 48.484375 
Q 22.859375 48.484375 18.828125 43.109375 
Q 14.796875 37.75 14.796875 27.984375 
Q 14.796875 18.265625 18.828125 12.890625 
Q 22.859375 7.515625 30.078125 7.515625 
Q 37.359375 7.515625 41.375 12.890625 
Q 45.40625 18.265625 45.40625 27.984375 
z
M 54.390625 6.78125 
Q 54.390625 -7.171875 48.1875 -13.984375 
Q 42 -20.796875 29.203125 -20.796875 
Q 24.46875 -20.796875 20.265625 -20.09375 
Q 16.0625 -19.390625 12.109375 -17.921875 
L 12.109375 -9.1875 
Q 16.0625 -11.328125 19.921875 -12.34375 
Q 23.78125 -13.375 27.78125 -13.375 
Q 36.625 -13.375 41.015625 -8.765625 
Q 45.40625 -4.15625 45.40625 5.171875 
L 45.40625 9.625 
Q 42.625 4.78125 38.28125 2.390625 
Q 33.9375 0 27.875 0 
Q 17.828125 0 11.671875 7.65625 
Q 5.515625 15.328125 5.515625 27.984375 
Q 5.515625 40.671875 11.671875 48.328125 
Q 17.828125 56 27.875 56 
Q 33.9375 56 38.28125 53.609375 
Q 42.625 51.21875 45.40625 46.390625 
L 45.40625 54.6875 
L 54.390625 54.6875 
z
" id="DejaVuSans-67"/>
      <path d="M 12.40625 8.296875 
L 28.515625 8.296875 
L 28.515625 63.921875 
L 10.984375 60.40625 
L 10.984375 69.390625 
L 28.421875 72.90625 
L 38.28125 72.90625 
L 38.28125 8.296875 
L 54.390625 8.296875 
L 54.390625 0 
L 12.40625 0 
z
" id="DejaVuSans-31"/>
      <path id="DejaVuSans-20"/>
      <path d="M 37.109375 75.984375 
L 37.109375 68.5 
L 28.515625 68.5 
Q 23.6875 68.5 21.796875 66.546875 
Q 19.921875 64.59375 19.921875 59.515625 
L 19.921875 54.6875 
L 34.71875 54.6875 
L 34.71875 47.703125 
L 19.921875 47.703125 
L 19.921875 0 
L 10.890625 0 
L 10.890625 47.703125 
L 2.296875 47.703125 
L 2.296875 54.6875 
L 10.890625 54.6875 
L 10.890625 58.5 
Q 10.890625 67.625 15.140625 71.796875 
Q 19.390625 75.984375 28.609375 75.984375 
z
" id="DejaVuSans-66"/>
      <path d="M 9.8125 72.90625 
L 51.703125 72.90625 
L 51.703125 64.59375 
L 19.671875 64.59375 
L 19.671875 43.109375 
L 48.578125 43.109375 
L 48.578125 34.8125 
L 19.671875 34.8125 
L 19.671875 0 
L 9.8125 0 
z
" id="DejaVuSans-46"/>
      <path d="M 9.8125 72.90625 
L 55.90625 72.90625 
L 55.90625 64.59375 
L 19.671875 64.59375 
L 19.671875 43.015625 
L 54.390625 43.015625 
L 54.390625 34.71875 
L 19.671875 34.71875 
L 19.671875 8.296875 
L 56.78125 8.296875 
L 56.78125 0 
L 9.8125 0 
z
" id="DejaVuSans-45"/>
      <path d="M 2.984375 54.6875 
L 12.5 54.6875 
L 29.59375 8.796875 
L 46.6875 54.6875 
L 56.203125 54.6875 
L 35.6875 0 
L 23.484375 0 
z
" id="DejaVuSans-76"/>
      <path d="M 34.28125 27.484375 
Q 23.390625 27.484375 19.1875 25 
Q 14.984375 22.515625 14.984375 16.5 
Q 14.984375 11.71875 18.140625 8.90625 
Q 21.296875 6.109375 26.703125 6.109375 
Q 34.1875 6.109375 38.703125 11.40625 
Q 43.21875 16.703125 43.21875 25.484375 
L 43.21875 27.484375 
z
M 52.203125 31.203125 
L 52.203125 0 
L 43.21875 0 
L 43.21875 8.296875 
Q 40.140625 3.328125 35.546875 0.953125 
Q 30.953125 -1.421875 24.3125 -1.421875 
Q 15.921875 -1.421875 10.953125 3.296875 
Q 6 8.015625 6 15.921875 
Q 6 25.140625 12.171875 29.828125 
Q 18.359375 34.515625 30.609375 34.515625 
L 43.21875 34.515625 
L 43.21875 35.40625 
Q 43.21875 41.609375 39.140625 45 
Q 35.0625 48.390625 27.6875 48.390625 
Q 23 48.390625 18.546875 47.265625 
Q 14.109375 46.140625 10.015625 43.890625 
L 10.015625 52.203125 
Q 14.9375 54.109375 19.578125 55.046875 
Q 24.21875 56 28.609375 56 
Q 40.484375 56 46.34375 49.84375 
Q 52.203125 43.703125 52.203125 31.203125 
z
" id="DejaVuSans-61"/>
      <path d="M 44.28125 53.078125 
L 44.28125 44.578125 
Q 40.484375 46.53125 36.375 47.5 
Q 32.28125 48.484375 27.875 48.484375 
Q 21.1875 48.484375 17.84375 46.4375 
Q 14.5 44.390625 14.5 40.28125 
Q 14.5 37.15625 16.890625 35.375 
Q 19.28125 33.59375 26.515625 31.984375 
L 29.59375 31.296875 
Q 39.15625 29.25 43.1875 25.515625 
Q 47.21875 21.78125 47.21875 15.09375 
Q 47.21875 7.46875 41.1875 3.015625 
Q 35.15625 -1.421875 24.609375 -1.421875 
Q 20.21875 -1.421875 15.453125 -0.5625 
Q 10.6875 0.296875 5.421875 2 
L 5.421875 11.28125 
Q 10.40625 8.6875 15.234375 7.390625 
Q 20.0625 6.109375 24.8125 6.109375 
Q 31.15625 6.109375 34.5625 8.28125 
Q 37.984375 10.453125 37.984375 14.40625 
Q 37.984375 18.0625 35.515625 20.015625 
Q 33.0625 21.96875 24.703125 23.78125 
L 21.578125 24.515625 
Q 13.234375 26.265625 9.515625 29.90625 
Q 5.8125 33.546875 5.8125 39.890625 
Q 5.8125 47.609375 11.28125 51.796875 
Q 16.75 56 26.8125 56 
Q 31.78125 56 36.171875 55.265625 
Q 40.578125 54.546875 44.28125 53.078125 
z
" id="DejaVuSans-73"/>
      <path d="M 25.390625 72.90625 
L 33.6875 72.90625 
L 8.296875 -9.28125 
L 0 -9.28125 
z
" id="DejaVuSans-2f"/>
      <path d="M 19.671875 64.796875 
L 19.671875 8.109375 
L 31.59375 8.109375 
Q 46.6875 8.109375 53.6875 14.9375 
Q 60.6875 21.78125 60.6875 36.53125 
Q 60.6875 51.171875 53.6875 57.984375 
Q 46.6875 64.796875 31.59375 64.796875 
z
M 9.8125 72.90625 
L 30.078125 72.90625 
Q 51.265625 72.90625 61.171875 64.09375 
Q 71.09375 55.28125 71.09375 36.53125 
Q 71.09375 17.671875 61.125 8.828125 
Q 51.171875 0 30.078125 0 
L 9.8125 0 
z
" id="DejaVuSans-44"/>
      <path d="M 9.8125 72.90625 
L 19.671875 72.90625 
L 19.671875 0 
L 9.8125 0 
z
" id="DejaVuSans-49"/>
      <path d="M 9.8125 72.90625 
L 24.515625 72.90625 
L 43.109375 23.296875 
L 61.8125 72.90625 
L 76.515625 72.90625 
L 76.515625 0 
L 66.890625 0 
L 66.890625 64.015625 
L 48.09375 14.015625 
L 38.1875 14.015625 
L 19.390625 64.015625 
L 19.390625 0 
L 9.8125 0 
z
" id="DejaVuSans-4d"/>
     </defs>
     <g transform="translate(142.849063 323.82879)scale(0.2 -0.2)">
      <use xlink:href="#DejaVuSans-6c"/>
      <use x="27.783203" xlink:href="#DejaVuSans-6f"/>
      <use x="88.964844" xlink:href="#DejaVuSans-67"/>
      <use x="152.441406" xlink:href="#DejaVuSans-31"/>
      <use x="216.064453" xlink:href="#DejaVuSans-30"/>
      <use x="279.6875" xlink:href="#DejaVuSans-20"/>
      <use x="311.474609" xlink:href="#DejaVuSans-6f"/>
      <use x="372.65625" xlink:href="#DejaVuSans-66"/>
      <use x="407.861328" xlink:href="#DejaVuSans-20"/>
      <use x="439.648438" xlink:href="#DejaVuSans-46"/>
      <use x="497.167969" xlink:href="#DejaVuSans-45"/>
      <use x="560.351562" xlink:href="#DejaVuSans-76"/>
      <use x="619.53125" xlink:href="#DejaVuSans-61"/>
      <use x="680.810547" xlink:href="#DejaVuSans-6c"/>
      <use x="708.59375" xlink:href="#DejaVuSans-73"/>
      <use x="760.693359" xlink:href="#DejaVuSans-20"/>
      <use x="792.480469" xlink:href="#DejaVuSans-2f"/>
      <use x="826.171875" xlink:href="#DejaVuSans-20"/>
      <use x="857.958984" xlink:href="#DejaVuSans-44"/>
      <use x="934.960938" xlink:href="#DejaVuSans-49"/>
      <use x="964.453125" xlink:href="#DejaVuSans-4d"/>
     </g>
    </g>
   </g>
   <g id="matplotlib.axis_2">
    <g id="ytick_1">
     <g id="line2d_60">
      <path clip-path="url(#p9f189971c0)" d="M 69.3625 278.275665 
L 426.4825 278.275665 
" style="fill:none;stroke:#b0b0b0;stroke-linecap:square;stroke-width:0.8;"/>
     </g>
     <g id="line2d_61">
      <defs>
       <path d="M 0 0 
L -3.5 0 
" id="ma5b6762624" style="stroke:#000000;stroke-width:0.8;"/>
      </defs>
      <g>
       <use style="stroke:#000000;stroke-width:0.8;" x="69.3625" xlink:href="#ma5b6762624" y="278.275665"/>
      </g>
     </g>
     <g id="text_4">
      <!-- 0.0 -->
      <defs>
       <path d="M 10.6875 12.40625 
L 21 12.40625 
L 21 0 
L 10.6875 0 
z
" id="DejaVuSans-2e"/>
      </defs>
      <g transform="translate(30.55625 285.874103)scale(0.2 -0.2)">
       <use xlink:href="#DejaVuSans-30"/>
       <use x="63.623047" xlink:href="#DejaVuSans-2e"/>
       <use x="95.410156" xlink:href="#DejaVuSans-30"/>
      </g>
     </g>
    </g>
    <g id="ytick_2">
     <g id="line2d_62">
      <path clip-path="url(#p9f189971c0)" d="M 69.3625 225.58022 
L 426.4825 225.58022 
" style="fill:none;stroke:#b0b0b0;stroke-linecap:square;stroke-width:0.8;"/>
     </g>
     <g id="line2d_63">
      <g>
       <use style="stroke:#000000;stroke-width:0.8;" x="69.3625" xlink:href="#ma5b6762624" y="225.58022"/>
      </g>
     </g>
     <g id="text_5">
      <!-- 0.2 -->
      <g transform="translate(30.55625 233.178657)scale(0.2 -0.2)">
       <use xlink:href="#DejaVuSans-30"/>
       <use x="63.623047" xlink:href="#DejaVuSans-2e"/>
       <use x="95.410156" xlink:href="#DejaVuSans-32"/>
      </g>
     </g>
    </g>
    <g id="ytick_3">
     <g id="line2d_64">
      <path clip-path="url(#p9f189971c0)" d="M 69.3625 172.884774 
L 426.4825 172.884774 
" style="fill:none;stroke:#b0b0b0;stroke-linecap:square;stroke-width:0.8;"/>
     </g>
     <g id="line2d_65">
      <g>
       <use style="stroke:#000000;stroke-width:0.8;" x="69.3625" xlink:href="#ma5b6762624" y="172.884774"/>
      </g>
     </g>
     <g id="text_6">
      <!-- 0.4 -->
      <defs>
       <path d="M 37.796875 64.3125 
L 12.890625 25.390625 
L 37.796875 25.390625 
z
M 35.203125 72.90625 
L 47.609375 72.90625 
L 47.609375 25.390625 
L 58.015625 25.390625 
L 58.015625 17.1875 
L 47.609375 17.1875 
L 47.609375 0 
L 37.796875 0 
L 37.796875 17.1875 
L 4.890625 17.1875 
L 4.890625 26.703125 
z
" id="DejaVuSans-34"/>
      </defs>
      <g transform="translate(30.55625 180.483212)scale(0.2 -0.2)">
       <use xlink:href="#DejaVuSans-30"/>
       <use x="63.623047" xlink:href="#DejaVuSans-2e"/>
       <use x="95.410156" xlink:href="#DejaVuSans-34"/>
      </g>
     </g>
    </g>
    <g id="ytick_4">
     <g id="line2d_66">
      <path clip-path="url(#p9f189971c0)" d="M 69.3625 120.189329 
L 426.4825 120.189329 
" style="fill:none;stroke:#b0b0b0;stroke-linecap:square;stroke-width:0.8;"/>
     </g>
     <g id="line2d_67">
      <g>
       <use style="stroke:#000000;stroke-width:0.8;" x="69.3625" xlink:href="#ma5b6762624" y="120.189329"/>
      </g>
     </g>
     <g id="text_7">
      <!-- 0.6 -->
      <defs>
       <path d="M 33.015625 40.375 
Q 26.375 40.375 22.484375 35.828125 
Q 18.609375 31.296875 18.609375 23.390625 
Q 18.609375 15.53125 22.484375 10.953125 
Q 26.375 6.390625 33.015625 6.390625 
Q 39.65625 6.390625 43.53125 10.953125 
Q 47.40625 15.53125 47.40625 23.390625 
Q 47.40625 31.296875 43.53125 35.828125 
Q 39.65625 40.375 33.015625 40.375 
z
M 52.59375 71.296875 
L 52.59375 62.3125 
Q 48.875 64.0625 45.09375 64.984375 
Q 41.3125 65.921875 37.59375 65.921875 
Q 27.828125 65.921875 22.671875 59.328125 
Q 17.53125 52.734375 16.796875 39.40625 
Q 19.671875 43.65625 24.015625 45.921875 
Q 28.375 48.1875 33.59375 48.1875 
Q 44.578125 48.1875 50.953125 41.515625 
Q 57.328125 34.859375 57.328125 23.390625 
Q 57.328125 12.15625 50.6875 5.359375 
Q 44.046875 -1.421875 33.015625 -1.421875 
Q 20.359375 -1.421875 13.671875 8.265625 
Q 6.984375 17.96875 6.984375 36.375 
Q 6.984375 53.65625 15.1875 63.9375 
Q 23.390625 74.21875 37.203125 74.21875 
Q 40.921875 74.21875 44.703125 73.484375 
Q 48.484375 72.75 52.59375 71.296875 
z
" id="DejaVuSans-36"/>
      </defs>
      <g transform="translate(30.55625 127.787766)scale(0.2 -0.2)">
       <use xlink:href="#DejaVuSans-30"/>
       <use x="63.623047" xlink:href="#DejaVuSans-2e"/>
       <use x="95.410156" xlink:href="#DejaVuSans-36"/>
      </g>
     </g>
    </g>
    <g id="ytick_5">
     <g id="line2d_68">
      <path clip-path="url(#p9f189971c0)" d="M 69.3625 67.493883 
L 426.4825 67.493883 
" style="fill:none;stroke:#b0b0b0;stroke-linecap:square;stroke-width:0.8;"/>
     </g>
     <g id="line2d_69">
      <g>
       <use style="stroke:#000000;stroke-width:0.8;" x="69.3625" xlink:href="#ma5b6762624" y="67.493883"/>
      </g>
     </g>
     <g id="text_8">
      <!-- 0.8 -->
      <defs>
       <path d="M 31.78125 34.625 
Q 24.75 34.625 20.71875 30.859375 
Q 16.703125 27.09375 16.703125 20.515625 
Q 16.703125 13.921875 20.71875 10.15625 
Q 24.75 6.390625 31.78125 6.390625 
Q 38.8125 6.390625 42.859375 10.171875 
Q 46.921875 13.96875 46.921875 20.515625 
Q 46.921875 27.09375 42.890625 30.859375 
Q 38.875 34.625 31.78125 34.625 
z
M 21.921875 38.8125 
Q 15.578125 40.375 12.03125 44.71875 
Q 8.5 49.078125 8.5 55.328125 
Q 8.5 64.0625 14.71875 69.140625 
Q 20.953125 74.21875 31.78125 74.21875 
Q 42.671875 74.21875 48.875 69.140625 
Q 55.078125 64.0625 55.078125 55.328125 
Q 55.078125 49.078125 51.53125 44.71875 
Q 48 40.375 41.703125 38.8125 
Q 48.828125 37.15625 52.796875 32.3125 
Q 56.78125 27.484375 56.78125 20.515625 
Q 56.78125 9.90625 50.3125 4.234375 
Q 43.84375 -1.421875 31.78125 -1.421875 
Q 19.734375 -1.421875 13.25 4.234375 
Q 6.78125 9.90625 6.78125 20.515625 
Q 6.78125 27.484375 10.78125 32.3125 
Q 14.796875 37.15625 21.921875 38.8125 
z
M 18.3125 54.390625 
Q 18.3125 48.734375 21.84375 45.5625 
Q 25.390625 42.390625 31.78125 42.390625 
Q 38.140625 42.390625 41.71875 45.5625 
Q 45.3125 48.734375 45.3125 54.390625 
Q 45.3125 60.0625 41.71875 63.234375 
Q 38.140625 66.40625 31.78125 66.40625 
Q 25.390625 66.40625 21.84375 63.234375 
Q 18.3125 60.0625 18.3125 54.390625 
z
" id="DejaVuSans-38"/>
      </defs>
      <g transform="translate(30.55625 75.092321)scale(0.2 -0.2)">
       <use xlink:href="#DejaVuSans-30"/>
       <use x="63.623047" xlink:href="#DejaVuSans-2e"/>
       <use x="95.410156" xlink:href="#DejaVuSans-38"/>
      </g>
     </g>
    </g>
    <g id="ytick_6">
     <g id="line2d_70">
      <path clip-path="url(#p9f189971c0)" d="M 69.3625 14.798437 
L 426.4825 14.798437 
" style="fill:none;stroke:#b0b0b0;stroke-linecap:square;stroke-width:0.8;"/>
     </g>
     <g id="line2d_71">
      <g>
       <use style="stroke:#000000;stroke-width:0.8;" x="69.3625" xlink:href="#ma5b6762624" y="14.798437"/>
      </g>
     </g>
     <g id="text_9">
      <!-- 1.0 -->
      <g transform="translate(30.55625 22.396875)scale(0.2 -0.2)">
       <use xlink:href="#DejaVuSans-31"/>
       <use x="63.623047" xlink:href="#DejaVuSans-2e"/>
       <use x="95.410156" xlink:href="#DejaVuSans-30"/>
      </g>
     </g>
    </g>
    <g id="text_10">
     <!-- proportion of trials -->
     <defs>
      <path d="M 18.109375 8.203125 
L 18.109375 -20.796875 
L 9.078125 -20.796875 
L 9.078125 54.6875 
L 18.109375 54.6875 
L 18.109375 46.390625 
Q 20.953125 51.265625 25.265625 53.625 
Q 29.59375 56 35.59375 56 
Q 45.5625 56 51.78125 48.09375 
Q 58.015625 40.1875 58.015625 27.296875 
Q 58.015625 14.40625 51.78125 6.484375 
Q 45.5625 -1.421875 35.59375 -1.421875 
Q 29.59375 -1.421875 25.265625 0.953125 
Q 20.953125 3.328125 18.109375 8.203125 
z
M 48.6875 27.296875 
Q 48.6875 37.203125 44.609375 42.84375 
Q 40.53125 48.484375 33.40625 48.484375 
Q 26.265625 48.484375 22.1875 42.84375 
Q 18.109375 37.203125 18.109375 27.296875 
Q 18.109375 17.390625 22.1875 11.75 
Q 26.265625 6.109375 33.40625 6.109375 
Q 40.53125 6.109375 44.609375 11.75 
Q 48.6875 17.390625 48.6875 27.296875 
z
" id="DejaVuSans-70"/>
      <path d="M 41.109375 46.296875 
Q 39.59375 47.171875 37.8125 47.578125 
Q 36.03125 48 33.890625 48 
Q 26.265625 48 22.1875 43.046875 
Q 18.109375 38.09375 18.109375 28.8125 
L 18.109375 0 
L 9.078125 0 
L 9.078125 54.6875 
L 18.109375 54.6875 
L 18.109375 46.1875 
Q 20.953125 51.171875 25.484375 53.578125 
Q 30.03125 56 36.53125 56 
Q 37.453125 56 38.578125 55.875 
Q 39.703125 55.765625 41.0625 55.515625 
z
" id="DejaVuSans-72"/>
      <path d="M 18.3125 70.21875 
L 18.3125 54.6875 
L 36.8125 54.6875 
L 36.8125 47.703125 
L 18.3125 47.703125 
L 18.3125 18.015625 
Q 18.3125 11.328125 20.140625 9.421875 
Q 21.96875 7.515625 27.59375 7.515625 
L 36.8125 7.515625 
L 36.8125 0 
L 27.59375 0 
Q 17.1875 0 13.234375 3.875 
Q 9.28125 7.765625 9.28125 18.015625 
L 9.28125 47.703125 
L 2.6875 47.703125 
L 2.6875 54.6875 
L 9.28125 54.6875 
L 9.28125 70.21875 
z
" id="DejaVuSans-74"/>
      <path d="M 9.421875 54.6875 
L 18.40625 54.6875 
L 18.40625 0 
L 9.421875 0 
z
M 9.421875 75.984375 
L 18.40625 75.984375 
L 18.40625 64.59375 
L 9.421875 64.59375 
z
" id="DejaVuSans-69"/>
      <path d="M 54.890625 33.015625 
L 54.890625 0 
L 45.90625 0 
L 45.90625 32.71875 
Q 45.90625 40.484375 42.875 44.328125 
Q 39.84375 48.1875 33.796875 48.1875 
Q 26.515625 48.1875 22.3125 43.546875 
Q 18.109375 38.921875 18.109375 30.90625 
L 18.109375 0 
L 9.078125 0 
L 9.078125 54.6875 
L 18.109375 54.6875 
L 18.109375 46.1875 
Q 21.34375 51.125 25.703125 53.5625 
Q 30.078125 56 35.796875 56 
Q 45.21875 56 50.046875 50.171875 
Q 54.890625 44.34375 54.890625 33.015625 
z
" id="DejaVuSans-6e"/>
     </defs>
     <g transform="translate(22.396875 238.44779)rotate(-90)scale(0.2 -0.2)">
      <use xlink:href="#DejaVuSans-70"/>
      <use x="63.476562" xlink:href="#DejaVuSans-72"/>
      <use x="104.558594" xlink:href="#DejaVuSans-6f"/>
      <use x="165.740234" xlink:href="#DejaVuSans-70"/>
      <use x="229.216797" xlink:href="#DejaVuSans-6f"/>
      <use x="290.398438" xlink:href="#DejaVuSans-72"/>
      <use x="331.511719" xlink:href="#DejaVuSans-74"/>
      <use x="370.720703" xlink:href="#DejaVuSans-69"/>
      <use x="398.503906" xlink:href="#DejaVuSans-6f"/>
      <use x="459.685547" xlink:href="#DejaVuSans-6e"/>
      <use x="523.064453" xlink:href="#DejaVuSans-20"/>
      <use x="554.851562" xlink:href="#DejaVuSans-6f"/>
      <use x="616.033203" xlink:href="#DejaVuSans-66"/>
      <use x="651.238281" xlink:href="#DejaVuSans-20"/>
      <use x="683.025391" xlink:href="#DejaVuSans-74"/>
      <use x="722.234375" xlink:href="#DejaVuSans-72"/>
      <use x="763.347656" xlink:href="#DejaVuSans-69"/>
      <use x="791.130859" xlink:href="#DejaVuSans-61"/>
      <use x="852.410156" xlink:href="#DejaVuSans-6c"/>
      <use x="880.193359" xlink:href="#DejaVuSans-73"/>
     </g>
    </g>
   </g>
   <g id="line2d_72">
    <path clip-path="url(#p9f189971c0)" d="M -1 273.884378 
L 138.958499 273.884378 
L 138.958499 269.493091 
L 138.958499 269.493091 
L 138.958499 265.101804 
L 162.091793 265.101804 
L 162.091793 260.710517 
L 184.494537 260.710517 
L 184.494537 256.31923 
L 185.297521 256.31923 
L 185.297521 251.927942 
L 189.846886 251.927942 
L 189.846886 247.536655 
L 190.564051 247.536655 
L 190.564051 243.145368 
L 203.540611 243.145368 
L 203.540611 238.754081 
L 212.819312 238.754081 
L 212.819312 234.362794 
L 212.819312 234.362794 
L 212.819312 229.971507 
L 218.253401 229.971507 
L 218.253401 225.58022 
L 218.646486 225.58022 
L 218.646486 221.188933 
L 224.869953 221.188933 
L 224.869953 216.797645 
L 227.858668 216.797645 
L 227.858668 212.406358 
L 241.931762 212.406358 
L 241.931762 208.015071 
L 247.331776 208.015071 
L 247.331776 203.623784 
L 250.416477 203.623784 
L 250.416477 199.232497 
L 251.982402 199.232497 
L 251.982402 194.84121 
L 259.278355 194.84121 
L 259.278355 190.449923 
L 264.865931 190.449923 
L 264.865931 186.058636 
L 267.150802 186.058636 
L 267.150802 181.667348 
L 269.46255 181.667348 
L 269.46255 177.276061 
L 270.382339 177.276061 
L 270.382339 172.884774 
L 270.771086 172.884774 
L 270.771086 168.493487 
L 272.791759 168.493487 
L 272.791759 164.1022 
L 274.847551 164.1022 
L 274.847551 159.710913 
L 274.847551 159.710913 
L 274.847551 155.319626 
L 275.66858 155.319626 
L 275.66858 150.928338 
L 275.900548 150.928338 
L 275.900548 146.537051 
L 277.604727 146.537051 
L 277.604727 142.145764 
L 277.938268 142.145764 
L 277.938268 137.754477 
L 278.379336 137.754477 
L 278.379336 133.36319 
L 281.045965 133.36319 
L 281.045965 128.971903 
L 281.252897 128.971903 
L 281.252897 124.580616 
L 281.356022 124.580616 
L 281.356022 120.189329 
L 284.829767 120.189329 
L 284.829767 115.798041 
L 286.243315 115.798041 
L 286.243315 111.406754 
L 288.508624 111.406754 
L 288.508624 107.015467 
L 288.948865 107.015467 
L 288.948865 102.62418 
L 290.245362 102.62418 
L 290.245362 98.232893 
L 290.922467 98.232893 
L 290.922467 93.841606 
L 293.775155 93.841606 
L 293.775155 89.450319 
L 294.325477 89.450319 
L 294.325477 85.059032 
L 294.481535 85.059032 
L 294.481535 80.667744 
L 295.330707 80.667744 
L 295.330707 76.276457 
L 296.314876 76.276457 
L 296.314876 71.88517 
L 298.079342 71.88517 
L 298.079342 67.493883 
L 298.438742 67.493883 
L 298.438742 63.102596 
L 298.724296 63.102596 
L 298.724296 58.711309 
L 298.795414 58.711309 
L 298.795414 54.320022 
L 299.430676 54.320022 
L 299.430676 49.928735 
L 300.539244 49.928735 
L 300.539244 45.537447 
L 301.421081 45.537447 
L 301.421081 41.14616 
L 307.050718 41.14616 
L 307.050718 36.754873 
L 309.433306 36.754873 
L 309.433306 32.363586 
L 316.61759 32.363586 
L 316.61759 27.972299 
L 320.35502 27.972299 
L 320.35502 23.581012 
L 321.288739 23.581012 
L 321.288739 19.189725 
L 346.859693 19.189725 
L 346.859693 14.798437 
L 346.859693 14.798437 
L 346.859693 14.798437 
L 426.4825 14.798437 
" style="fill:none;stroke:#000000;stroke-linecap:square;stroke-width:1.5;"/>
   </g>
   <g id="line2d_73"/>
   <g id="line2d_74">
    <path clip-path="url(#p9f189971c0)" d="M 282.172971 278.275665 
L 282.172971 273.884378 
L 293.378082 273.884378 
L 293.378082 269.493091 
L 293.378082 269.493091 
L 293.378082 265.101804 
L 293.775155 265.101804 
L 293.775155 260.710517 
L 296.613595 260.710517 
L 296.613595 256.31923 
L 308.575582 256.31923 
L 308.575582 251.927942 
L 311.430115 251.927942 
L 311.430115 247.536655 
L 327.966627 247.536655 
L 327.966627 243.145368 
L 328.536008 243.145368 
L 328.536008 238.754081 
L 329.469904 238.754081 
L 329.469904 234.362794 
L 334.315368 234.362794 
L 334.315368 229.971507 
L 334.481881 229.971507 
L 334.481881 225.58022 
L 336.784801 225.58022 
L 336.784801 221.188933 
L 338.095771 221.188933 
L 338.095771 216.797645 
L 339.070611 216.797645 
L 339.070611 212.406358 
L 339.877683 212.406358 
L 339.877683 208.015071 
L 342.443913 208.015071 
L 342.443913 203.623784 
L 343.333376 203.623784 
L 343.333376 199.232497 
L 344.179275 199.232497 
L 344.179275 194.84121 
L 344.23333 194.84121 
L 344.23333 190.449923 
L 345.169352 190.449923 
L 345.169352 186.058636 
L 349.22567 186.058636 
L 349.22567 181.667348 
L 351.082944 181.667348 
L 351.082944 177.276061 
L 351.938923 177.276061 
L 351.938923 172.884774 
L 353.227804 172.884774 
L 353.227804 168.493487 
L 362.342723 168.493487 
L 362.342723 164.1022 
L 362.507768 164.1022 
L 362.507768 159.710913 
L 363.62925 159.710913 
L 363.62925 155.319626 
L 367.240399 155.319626 
L 367.240399 150.928338 
L 371.357954 150.928338 
L 371.357954 146.537051 
L 371.660229 146.537051 
L 371.660229 142.145764 
L 375.71354 142.145764 
L 375.71354 137.754477 
L 376.317708 137.754477 
L 376.317708 133.36319 
L 377.861038 133.36319 
L 377.861038 128.971903 
L 378.827979 128.971903 
L 378.827979 124.580616 
L 379.72469 124.580616 
L 379.72469 120.189329 
L 379.838749 120.189329 
L 379.838749 115.798041 
L 380.778624 115.798041 
L 380.778624 111.406754 
L 381.627009 111.406754 
L 381.627009 107.015467 
L 382.794334 107.015467 
L 382.794334 102.62418 
L 384.037648 102.62418 
L 384.037648 98.232893 
L 384.13016 98.232893 
L 384.13016 93.841606 
L 384.738499 93.841606 
L 384.738499 89.450319 
L 389.413142 89.450319 
L 389.413142 85.059032 
L 393.522725 85.059032 
L 393.522725 80.667744 
L 397.449657 80.667744 
L 397.449657 76.276457 
L 414.30818 76.276457 
L 414.30818 71.88517 
L 415.216924 71.88517 
L 415.216924 67.493883 
L 415.216924 67.493883 
L 415.216924 67.493883 
L 426.4825 67.493883 
" style="fill:none;stroke:#00bfbf;stroke-linecap:square;stroke-width:1.5;"/>
   </g>
   <g id="line2d_75"/>
   <g id="line2d_76">
    <path clip-path="url(#p9f189971c0)" d="M 314.478675 278.275665 
L 314.478675 273.884378 
L 319.356514 273.884378 
L 319.356514 269.493091 
L 322.505509 269.493091 
L 322.505509 265.101804 
L 324.190834 265.101804 
L 324.190834 260.710517 
L 324.970664 260.710517 
L 324.970664 256.31923 
L 326.531917 256.31923 
L 326.531917 251.927942 
L 337.693891 251.927942 
L 337.693891 247.536655 
L 360.887514 247.536655 
L 360.887514 243.145368 
L 362.37945 243.145368 
L 362.37945 238.754081 
L 364.881478 238.754081 
L 364.881478 234.362794 
L 366.791367 234.362794 
L 366.791367 229.971507 
L 367.832509 229.971507 
L 367.832509 225.58022 
L 368.17449 225.58022 
L 368.17449 221.188933 
L 369.391735 221.188933 
L 369.391735 216.797645 
L 370.191234 216.797645 
L 370.191234 212.406358 
L 370.485642 212.406358 
L 370.485642 208.015071 
L 370.686021 208.015071 
L 370.686021 203.623784 
L 371.007916 203.623784 
L 371.007916 199.232497 
L 372.363012 199.232497 
L 372.363012 194.84121 
L 373.274289 194.84121 
L 373.274289 190.449923 
L 373.332478 190.449923 
L 373.332478 186.058636 
L 374.21105 186.058636 
L 374.21105 181.667348 
L 375.311047 181.667348 
L 375.311047 177.276061 
L 375.672063 177.276061 
L 375.672063 172.884774 
L 375.823968 172.884774 
L 375.823968 168.493487 
L 377.289885 168.493487 
L 377.289885 164.1022 
L 380.828227 164.1022 
L 380.828227 159.710913 
L 383.090548 159.710913 
L 383.090548 155.319626 
L 383.805565 155.319626 
L 383.805565 150.928338 
L 386.020898 150.928338 
L 386.020898 146.537051 
L 387.549333 146.537051 
L 387.549333 142.145764 
L 388.390353 142.145764 
L 388.390353 137.754477 
L 388.684858 137.754477 
L 388.684858 133.36319 
L 388.726779 133.36319 
L 388.726779 128.971903 
L 390.181116 128.971903 
L 390.181116 124.580616 
L 390.996665 124.580616 
L 390.996665 120.189329 
L 391.925687 120.189329 
L 391.925687 115.798041 
L 392.970874 115.798041 
L 392.970874 111.406754 
L 393.209536 111.406754 
L 393.209536 107.015467 
L 396.251246 107.015467 
L 396.251246 102.62418 
L 396.615762 102.62418 
L 396.615762 98.232893 
L 396.836647 98.232893 
L 396.836647 93.841606 
L 398.53331 93.841606 
L 398.53331 89.450319 
L 398.703042 89.450319 
L 398.703042 85.059032 
L 403.552115 85.059032 
L 403.552115 80.667744 
L 405.921024 80.667744 
L 405.921024 76.276457 
L 425.711846 76.276457 
L 425.711846 71.88517 
L 425.711846 71.88517 
L 425.711846 71.88517 
L 426.4825 71.88517 
" style="fill:none;stroke:#bf00bf;stroke-linecap:square;stroke-width:1.5;"/>
   </g>
   <g id="line2d_77"/>
   <g id="line2d_78">
    <path clip-path="url(#p9f189971c0)" d="M 317.005002 278.275665 
L 317.005002 273.884378 
L 327.698535 273.884378 
L 327.698535 269.493091 
L 331.248175 269.493091 
L 331.248175 265.101804 
L 337.037347 265.101804 
L 337.037347 260.710517 
L 345.45972 260.710517 
L 345.45972 256.31923 
L 346.987234 256.31923 
L 346.987234 251.927942 
L 376.630457 251.927942 
L 376.630457 247.536655 
L 384.21096 247.536655 
L 384.21096 243.145368 
L 386.275437 243.145368 
L 386.275437 238.754081 
L 387.463321 238.754081 
L 387.463321 234.362794 
L 387.506347 234.362794 
L 387.506347 229.971507 
L 387.699477 229.971507 
L 387.699477 225.58022 
L 389.578033 225.58022 
L 389.578033 221.188933 
L 390.836687 221.188933 
L 390.836687 216.797645 
L 391.255472 216.797645 
L 391.255472 212.406358 
L 391.680395 212.406358 
L 391.680395 208.015071 
L 391.778665 208.015071 
L 391.778665 203.623784 
L 392.247524 203.623784 
L 392.247524 199.232497 
L 392.788676 199.232497 
L 392.788676 194.84121 
L 392.798283 194.84121 
L 392.798283 190.449923 
L 393.228577 190.449923 
L 393.228577 186.058636 
L 393.749194 186.058636 
L 393.749194 181.667348 
L 393.833839 181.667348 
L 393.833839 177.276061 
L 395.249951 177.276061 
L 395.249951 172.884774 
L 396.331504 172.884774 
L 396.331504 168.493487 
L 396.438303 168.493487 
L 396.438303 164.1022 
L 396.898309 164.1022 
L 396.898309 159.710913 
L 397.074042 159.710913 
L 397.074042 155.319626 
L 397.196666 155.319626 
L 397.196666 150.928338 
L 397.353855 150.928338 
L 397.353855 146.537051 
L 397.874053 146.537051 
L 397.874053 142.145764 
L 399.107915 142.145764 
L 399.107915 137.754477 
L 400.449157 137.754477 
L 400.449157 133.36319 
L 401.161993 133.36319 
L 401.161993 128.971903 
L 401.410552 128.971903 
L 401.410552 124.580616 
L 402.952349 124.580616 
L 402.952349 120.189329 
L 403.757956 120.189329 
L 403.757956 115.798041 
L 403.826369 115.798041 
L 403.826369 111.406754 
L 404.460135 111.406754 
L 404.460135 107.015467 
L 405.51243 107.015467 
L 405.51243 102.62418 
L 405.673373 102.62418 
L 405.673373 98.232893 
L 406.434005 98.232893 
L 406.434005 93.841606 
L 406.620464 93.841606 
L 406.620464 89.450319 
L 411.121576 89.450319 
L 411.121576 85.059032 
L 413.319488 85.059032 
L 413.319488 80.667744 
L 413.319488 80.667744 
L 413.319488 80.667744 
L 426.4825 80.667744 
" style="fill:none;stroke:#ff0000;stroke-linecap:square;stroke-width:3;"/>
   </g>
   <g id="line2d_79"/>
   <g id="line2d_80">
    <path clip-path="url(#p9f189971c0)" d="M 426.4825 278.275665 
L 426.4825 12.163665 
" style="fill:none;stroke:#000000;stroke-linecap:square;stroke-width:1.5;"/>
   </g>
   <g id="patch_3">
    <path d="M 69.3625 278.275665 
L 69.3625 12.163665 
" style="fill:none;stroke:#000000;stroke-linecap:square;stroke-linejoin:miter;stroke-width:0.8;"/>
   </g>
   <g id="patch_4">
    <path d="M 426.4825 278.275665 
L 426.4825 12.163665 
" style="fill:none;stroke:#000000;stroke-linecap:square;stroke-linejoin:miter;stroke-width:0.8;"/>
   </g>
   <g id="patch_5">
    <path d="M 69.3625 278.275665 
L 426.4825 278.275665 
" style="fill:none;stroke:#000000;stroke-linecap:square;stroke-linejoin:miter;stroke-width:0.8;"/>
   </g>
   <g id="patch_6">
    <path d="M 69.3625 12.163665 
L 426.4825 12.163665 
" style="fill:none;stroke:#000000;stroke-linecap:square;stroke-linejoin:miter;stroke-width:0.8;"/>
   </g>
   <g id="text_11">
    <!-- {f6-f9}, 5-D -->
    <defs>
     <path d="M 51.125 -9.28125 
L 51.125 -16.3125 
L 48.09375 -16.3125 
Q 35.9375 -16.3125 31.8125 -12.6875 
Q 27.6875 -9.078125 27.6875 1.703125 
L 27.6875 13.375 
Q 27.6875 20.75 25.046875 23.578125 
Q 22.40625 26.421875 15.484375 26.421875 
L 12.5 26.421875 
L 12.5 33.40625 
L 15.484375 33.40625 
Q 22.46875 33.40625 25.078125 36.203125 
Q 27.6875 39.015625 27.6875 46.296875 
L 27.6875 58.015625 
Q 27.6875 68.796875 31.8125 72.390625 
Q 35.9375 75.984375 48.09375 75.984375 
L 51.125 75.984375 
L 51.125 69 
L 47.796875 69 
Q 40.921875 69 38.8125 66.84375 
Q 36.71875 64.703125 36.71875 57.8125 
L 36.71875 45.703125 
Q 36.71875 38.03125 34.5 34.5625 
Q 32.28125 31.109375 26.90625 29.890625 
Q 32.328125 28.5625 34.515625 25.09375 
Q 36.71875 21.625 36.71875 14.015625 
L 36.71875 1.90625 
Q 36.71875 -4.984375 38.8125 -7.125 
Q 40.921875 -9.28125 47.796875 -9.28125 
z
" id="DejaVuSans-7b"/>
     <path d="M 4.890625 31.390625 
L 31.203125 31.390625 
L 31.203125 23.390625 
L 4.890625 23.390625 
z
" id="DejaVuSans-2d"/>
     <path d="M 10.984375 1.515625 
L 10.984375 10.5 
Q 14.703125 8.734375 18.5 7.8125 
Q 22.3125 6.890625 25.984375 6.890625 
Q 35.75 6.890625 40.890625 13.453125 
Q 46.046875 20.015625 46.78125 33.40625 
Q 43.953125 29.203125 39.59375 26.953125 
Q 35.25 24.703125 29.984375 24.703125 
Q 19.046875 24.703125 12.671875 31.3125 
Q 6.296875 37.9375 6.296875 49.421875 
Q 6.296875 60.640625 12.9375 67.421875 
Q 19.578125 74.21875 30.609375 74.21875 
Q 43.265625 74.21875 49.921875 64.515625 
Q 56.59375 54.828125 56.59375 36.375 
Q 56.59375 19.140625 48.40625 8.859375 
Q 40.234375 -1.421875 26.421875 -1.421875 
Q 22.703125 -1.421875 18.890625 -0.6875 
Q 15.09375 0.046875 10.984375 1.515625 
z
M 30.609375 32.421875 
Q 37.25 32.421875 41.125 36.953125 
Q 45.015625 41.5 45.015625 49.421875 
Q 45.015625 57.28125 41.125 61.84375 
Q 37.25 66.40625 30.609375 66.40625 
Q 23.96875 66.40625 20.09375 61.84375 
Q 16.21875 57.28125 16.21875 49.421875 
Q 16.21875 41.5 20.09375 36.953125 
Q 23.96875 32.421875 30.609375 32.421875 
z
" id="DejaVuSans-39"/>
     <path d="M 12.5 -9.28125 
L 15.921875 -9.28125 
Q 22.75 -9.28125 24.828125 -7.171875 
Q 26.90625 -5.078125 26.90625 1.90625 
L 26.90625 14.015625 
Q 26.90625 21.625 29.09375 25.09375 
Q 31.296875 28.5625 36.71875 29.890625 
Q 31.296875 31.109375 29.09375 34.5625 
Q 26.90625 38.03125 26.90625 45.703125 
L 26.90625 57.8125 
Q 26.90625 64.75 24.828125 66.875 
Q 22.75 69 15.921875 69 
L 12.5 69 
L 12.5 75.984375 
L 15.578125 75.984375 
Q 27.734375 75.984375 31.8125 72.390625 
Q 35.890625 68.796875 35.890625 58.015625 
L 35.890625 46.296875 
Q 35.890625 39.015625 38.515625 36.203125 
Q 41.15625 33.40625 48.09375 33.40625 
L 51.125 33.40625 
L 51.125 26.421875 
L 48.09375 26.421875 
Q 41.15625 26.421875 38.515625 23.578125 
Q 35.890625 20.75 35.890625 13.375 
L 35.890625 1.703125 
Q 35.890625 -9.078125 31.8125 -12.6875 
Q 27.734375 -16.3125 15.578125 -16.3125 
L 12.5 -16.3125 
z
" id="DejaVuSans-7d"/>
     <path d="M 11.71875 12.40625 
L 22.015625 12.40625 
L 22.015625 4 
L 14.015625 -11.625 
L 7.71875 -11.625 
L 11.71875 4 
z
" id="DejaVuSans-2c"/>
     <path d="M 10.796875 72.90625 
L 49.515625 72.90625 
L 49.515625 64.59375 
L 19.828125 64.59375 
L 19.828125 46.734375 
Q 21.96875 47.46875 24.109375 47.828125 
Q 26.265625 48.1875 28.421875 48.1875 
Q 40.625 48.1875 47.75 41.5 
Q 54.890625 34.8125 54.890625 23.390625 
Q 54.890625 11.625 47.5625 5.09375 
Q 40.234375 -1.421875 26.90625 -1.421875 
Q 22.3125 -1.421875 17.546875 -0.640625 
Q 12.796875 0.140625 7.71875 1.703125 
L 7.71875 11.625 
Q 12.109375 9.234375 16.796875 8.0625 
Q 21.484375 6.890625 26.703125 6.890625 
Q 35.15625 6.890625 40.078125 11.328125 
Q 45.015625 15.765625 45.015625 23.390625 
Q 45.015625 31 40.078125 35.4375 
Q 35.15625 39.890625 26.703125 39.890625 
Q 22.75 39.890625 18.8125 39.015625 
Q 14.890625 38.140625 10.796875 36.28125 
z
" id="DejaVuSans-35"/>
    </defs>
    <g transform="translate(187.7975 32.68278)scale(0.2 -0.2)">
     <use xlink:href="#DejaVuSans-7b"/>
     <use x="63.623047" xlink:href="#DejaVuSans-66"/>
     <use x="98.828125" xlink:href="#DejaVuSans-36"/>
     <use x="162.451172" xlink:href="#DejaVuSans-2d"/>
     <use x="198.535156" xlink:href="#DejaVuSans-66"/>
     <use x="233.740234" xlink:href="#DejaVuSans-39"/>
     <use x="297.363281" xlink:href="#DejaVuSans-7d"/>
     <use x="360.986328" xlink:href="#DejaVuSans-2c"/>
     <use x="392.773438" xlink:href="#DejaVuSans-20"/>
     <use x="424.560547" xlink:href="#DejaVuSans-35"/>
     <use x="488.183594" xlink:href="#DejaVuSans-2d"/>
     <use x="524.267578" xlink:href="#DejaVuSans-44"/>
    </g>
   </g>
   <g id="text_12">
    <!-- absolute targets -->
    <defs>
     <path d="M 48.6875 27.296875 
Q 48.6875 37.203125 44.609375 42.84375 
Q 40.53125 48.484375 33.40625 48.484375 
Q 26.265625 48.484375 22.1875 42.84375 
Q 18.109375 37.203125 18.109375 27.296875 
Q 18.109375 17.390625 22.1875 11.75 
Q 26.265625 6.109375 33.40625 6.109375 
Q 40.53125 6.109375 44.609375 11.75 
Q 48.6875 17.390625 48.6875 27.296875 
z
M 18.109375 46.390625 
Q 20.953125 51.265625 25.265625 53.625 
Q 29.59375 56 35.59375 56 
Q 45.5625 56 51.78125 48.09375 
Q 58.015625 40.1875 58.015625 27.296875 
Q 58.015625 14.40625 51.78125 6.484375 
Q 45.5625 -1.421875 35.59375 -1.421875 
Q 29.59375 -1.421875 25.265625 0.953125 
Q 20.953125 3.328125 18.109375 8.203125 
L 18.109375 0 
L 9.078125 0 
L 9.078125 75.984375 
L 18.109375 75.984375 
z
" id="DejaVuSans-62"/>
     <path d="M 8.5 21.578125 
L 8.5 54.6875 
L 17.484375 54.6875 
L 17.484375 21.921875 
Q 17.484375 14.15625 20.5 10.265625 
Q 23.53125 6.390625 29.59375 6.390625 
Q 36.859375 6.390625 41.078125 11.03125 
Q 45.3125 15.671875 45.3125 23.6875 
L 45.3125 54.6875 
L 54.296875 54.6875 
L 54.296875 0 
L 45.3125 0 
L 45.3125 8.40625 
Q 42.046875 3.421875 37.71875 1 
Q 33.40625 -1.421875 27.6875 -1.421875 
Q 18.265625 -1.421875 13.375 4.4375 
Q 8.5 10.296875 8.5 21.578125 
z
M 31.109375 56 
z
" id="DejaVuSans-75"/>
     <path d="M 56.203125 29.59375 
L 56.203125 25.203125 
L 14.890625 25.203125 
Q 15.484375 15.921875 20.484375 11.0625 
Q 25.484375 6.203125 34.421875 6.203125 
Q 39.59375 6.203125 44.453125 7.46875 
Q 49.3125 8.734375 54.109375 11.28125 
L 54.109375 2.78125 
Q 49.265625 0.734375 44.1875 -0.34375 
Q 39.109375 -1.421875 33.890625 -1.421875 
Q 20.796875 -1.421875 13.15625 6.1875 
Q 5.515625 13.8125 5.515625 26.8125 
Q 5.515625 40.234375 12.765625 48.109375 
Q 20.015625 56 32.328125 56 
Q 43.359375 56 49.78125 48.890625 
Q 56.203125 41.796875 56.203125 29.59375 
z
M 47.21875 32.234375 
Q 47.125 39.59375 43.09375 43.984375 
Q 39.0625 48.390625 32.421875 48.390625 
Q 24.90625 48.390625 20.390625 44.140625 
Q 15.875 39.890625 15.1875 32.171875 
z
" id="DejaVuSans-65"/>
    </defs>
    <g transform="translate(69.3625 291.449527)scale(0.14 -0.14)">
     <use xlink:href="#DejaVuSans-61"/>
     <use x="61.279297" xlink:href="#DejaVuSans-62"/>
     <use x="124.755859" xlink:href="#DejaVuSans-73"/>
     <use x="176.855469" xlink:href="#DejaVuSans-6f"/>
     <use x="238.037109" xlink:href="#DejaVuSans-6c"/>
     <use x="265.820312" xlink:href="#DejaVuSans-75"/>
     <use x="329.199219" xlink:href="#DejaVuSans-74"/>
     <use x="368.408203" xlink:href="#DejaVuSans-65"/>
     <use x="429.931641" xlink:href="#DejaVuSans-20"/>
     <use x="461.71875" xlink:href="#DejaVuSans-74"/>
     <use x="500.927734" xlink:href="#DejaVuSans-61"/>
     <use x="562.207031" xlink:href="#DejaVuSans-72"/>
     <use x="603.304688" xlink:href="#DejaVuSans-67"/>
     <use x="666.78125" xlink:href="#DejaVuSans-65"/>
     <use x="728.304688" xlink:href="#DejaVuSans-74"/>
     <use x="767.513672" xlink:href="#DejaVuSans-73"/>
    </g>
   </g>
   <g id="text_13">
    <!-- v2.1 -->
    <g style="fill:#808080;" transform="translate(237.011563 273.534858)scale(0.1 -0.1)">
     <use xlink:href="#DejaVuSans-76"/>
     <use x="59.179688" xlink:href="#DejaVuSans-32"/>
     <use x="122.802734" xlink:href="#DejaVuSans-2e"/>
     <use x="154.589844" xlink:href="#DejaVuSans-31"/>
    </g>
   </g>
   <g id="legend_1">
    <g id="patch_7">
     <path d="M 83.3625 145.588665 
L 212.584375 145.588665 
Q 216.584375 145.588665 216.584375 141.588665 
L 216.584375 26.163665 
Q 216.584375 22.163665 212.584375 22.163665 
L 83.3625 22.163665 
Q 79.3625 22.163665 79.3625 26.163665 
L 79.3625 141.588665 
Q 79.3625 145.588665 83.3625 145.588665 
z
" style="fill:#ffffff;opacity:0.2;stroke:#cccccc;stroke-linejoin:miter;"/>
    </g>
    <g id="line2d_81">
     <path d="M 87.3625 38.36054 
L 127.3625 38.36054 
" style="fill:none;stroke:#000000;stroke-linecap:square;stroke-width:1.5;"/>
    </g>
    <g id="line2d_82"/>
    <g id="text_14">
     <!-- 1: 4/4 -->
     <defs>
      <path d="M 11.71875 12.40625 
L 22.015625 12.40625 
L 22.015625 0 
L 11.71875 0 
z
M 11.71875 51.703125 
L 22.015625 51.703125 
L 22.015625 39.3125 
L 11.71875 39.3125 
z
" id="DejaVuSans-3a"/>
     </defs>
     <g transform="translate(143.3625 45.36054)scale(0.2 -0.2)">
      <use xlink:href="#DejaVuSans-31"/>
      <use x="63.623047" xlink:href="#DejaVuSans-3a"/>
      <use x="97.314453" xlink:href="#DejaVuSans-20"/>
      <use x="129.101562" xlink:href="#DejaVuSans-34"/>
      <use x="192.724609" xlink:href="#DejaVuSans-2f"/>
      <use x="226.416016" xlink:href="#DejaVuSans-34"/>
     </g>
    </g>
    <g id="line2d_83">
     <path d="M 87.3625 67.71679 
L 127.3625 67.71679 
" style="fill:none;stroke:#00bfbf;stroke-linecap:square;stroke-width:1.5;"/>
    </g>
    <g id="line2d_84"/>
    <g id="text_15">
     <!-- -1: 4/4 -->
     <g transform="translate(143.3625 74.71679)scale(0.2 -0.2)">
      <use xlink:href="#DejaVuSans-2d"/>
      <use x="36.083984" xlink:href="#DejaVuSans-31"/>
      <use x="99.707031" xlink:href="#DejaVuSans-3a"/>
      <use x="133.398438" xlink:href="#DejaVuSans-20"/>
      <use x="165.185547" xlink:href="#DejaVuSans-34"/>
      <use x="228.808594" xlink:href="#DejaVuSans-2f"/>
      <use x="262.5" xlink:href="#DejaVuSans-34"/>
     </g>
    </g>
    <g id="line2d_85">
     <path d="M 87.3625 97.07304 
L 127.3625 97.07304 
" style="fill:none;stroke:#bf00bf;stroke-linecap:square;stroke-width:1.5;"/>
    </g>
    <g id="line2d_86"/>
    <g id="text_16">
     <!-- -4: 4/4 -->
     <g transform="translate(143.3625 104.07304)scale(0.2 -0.2)">
      <use xlink:href="#DejaVuSans-2d"/>
      <use x="36.083984" xlink:href="#DejaVuSans-34"/>
      <use x="99.707031" xlink:href="#DejaVuSans-3a"/>
      <use x="133.398438" xlink:href="#DejaVuSans-20"/>
      <use x="165.185547" xlink:href="#DejaVuSans-34"/>
      <use x="228.808594" xlink:href="#DejaVuSans-2f"/>
      <use x="262.5" xlink:href="#DejaVuSans-34"/>
     </g>
    </g>
    <g id="line2d_87">
     <path d="M 87.3625 126.42929 
L 127.3625 126.42929 
" style="fill:none;stroke:#ff0000;stroke-linecap:square;stroke-width:3;"/>
    </g>
    <g id="line2d_88"/>
    <g id="text_17">
     <!-- -8: 4/4 -->
     <g transform="translate(143.3625 133.42929)scale(0.2 -0.2)">
      <use xlink:href="#DejaVuSans-2d"/>
      <use x="36.083984" xlink:href="#DejaVuSans-38"/>
      <use x="99.707031" xlink:href="#DejaVuSans-3a"/>
      <use x="133.398438" xlink:href="#DejaVuSans-20"/>
      <use x="165.185547" xlink:href="#DejaVuSans-34"/>
      <use x="228.808594" xlink:href="#DejaVuSans-2f"/>
      <use x="262.5" xlink:href="#DejaVuSans-34"/>
     </g>
    </g>
   </g>
  </g>
 </g>
 <defs>
  <clipPath id="p9f189971c0">
   <rect height="266.112" width="357.12" x="69.3625" y="12.163665"/>
  </clipPath>
 </defs>
</svg>
