<?xml version="1.0" encoding="utf-8" standalone="no"?>
<!DOCTYPE svg PUBLIC "-//W3C//DTD SVG 1.1//EN"
  "http://www.w3.org/Graphics/SVG/1.1/DTD/svg11.dtd">
<!-- Created with matplotlib (http://matplotlib.org/) -->
<svg height="335pt" version="1.1" viewBox="0 0 437 335" width="437pt" xmlns="http://www.w3.org/2000/svg" xmlns:xlink="http://www.w3.org/1999/xlink">
 <defs>
  <style type="text/css">
*{stroke-linecap:butt;stroke-linejoin:round;}
  </style>
 </defs>
 <g id="figure_1">
  <g id="patch_1">
   <path d="M 0 335.188165 
L 437.1825 335.188165 
L 437.1825 0 
L 0 0 
z
" style="fill:#ffffff;"/>
  </g>
  <g id="axes_1">
   <g id="patch_2">
    <path d="M 69.3625 278.275665 
L 426.4825 278.275665 
L 426.4825 12.163665 
L 69.3625 12.163665 
z
" style="fill:#ffffff;"/>
   </g>
   <g id="line2d_1">
    <path clip-path="url(#pc92735537f)" d="M 308.575582 278.275665 
L 308.575582 274.762636 
L 312.130821 274.762636 
L 312.130821 271.249606 
L 313.397596 271.249606 
L 313.397596 267.736576 
L 313.863966 267.736576 
L 313.863966 264.223546 
L 314.274665 264.223546 
L 314.274665 260.710517 
L 315.085445 260.710517 
L 315.085445 257.197487 
L 315.135657 257.197487 
L 315.135657 253.684457 
L 315.435807 253.684457 
L 315.435807 250.171428 
L 317.437055 250.171428 
L 317.437055 246.658398 
L 318.663338 246.658398 
L 318.663338 243.145368 
L 319.172665 243.145368 
L 319.172665 239.632338 
L 319.49393 239.632338 
L 319.49393 236.119309 
L 335.273031 236.119309 
L 335.273031 232.606279 
L 341.56588 232.606279 
L 341.56588 229.093249 
L 341.907713 229.093249 
L 341.907713 225.58022 
L 347.038154 225.58022 
L 347.038154 222.06719 
L 347.418302 222.06719 
L 347.418302 218.55416 
L 353.760086 218.55416 
L 353.760086 215.041131 
L 365.280074 215.041131 
L 365.280074 211.528101 
L 365.829075 211.528101 
L 365.829075 208.015071 
L 369.51805 208.015071 
L 369.51805 204.502041 
L 380.964364 204.502041 
L 380.964364 200.989012 
L 390.404028 200.989012 
L 390.404028 197.475982 
L 414.1743 197.475982 
L 414.1743 193.962952 
L 418.07834 193.962952 
L 418.07834 190.449923 
L 424.022951 190.449923 
L 424.022951 186.936893 
L 438.1825 186.936893 
" style="fill:none;stroke:#f5deb3;stroke-linecap:square;stroke-width:1.5;"/>
   </g>
   <g id="line2d_2"/>
   <g id="line2d_3">
    <path clip-path="url(#pc92735537f)" d="M 193.327989 278.275665 
L 193.327989 274.762636 
L 194.651271 274.762636 
L 194.651271 271.249606 
L 206.673331 271.249606 
L 206.673331 267.736576 
L 284.54188 267.736576 
L 284.54188 264.223546 
L 304.225323 264.223546 
L 304.225323 260.710517 
L 346.526456 260.710517 
L 346.526456 257.197487 
L 358.036216 257.197487 
L 358.036216 253.684457 
L 363.878824 253.684457 
L 363.878824 250.171428 
L 376.235778 250.171428 
L 376.235778 246.658398 
L 378.412283 246.658398 
L 378.412283 243.145368 
L 384.326147 243.145368 
L 384.326147 239.632338 
L 391.572059 239.632338 
L 391.572059 236.119309 
L 397.301517 236.119309 
L 397.301517 232.606279 
L 399.915596 232.606279 
L 399.915596 229.093249 
L 405.159356 229.093249 
L 405.159356 225.58022 
L 429.157524 225.58022 
L 429.157524 222.06719 
L 431.776448 222.06719 
L 431.776448 218.55416 
L 433.309669 218.55416 
L 433.309669 215.041131 
L 433.725491 215.041131 
L 433.725491 211.528101 
L 434.475103 211.528101 
L 434.475103 208.015071 
L 434.759051 208.015071 
L 434.759051 204.502041 
L 436.438989 204.502041 
L 436.438989 200.989012 
L 436.564014 200.989012 
L 436.564014 197.475982 
L 438.1825 197.475982 
" style="fill:none;stroke:#f5deb3;stroke-linecap:square;stroke-width:1.5;"/>
   </g>
   <g id="line2d_4">
    <path clip-path="url(#pc92735537f)" d="M 321.944497 278.275665 
L 321.944497 274.762636 
L 328.536008 274.762636 
L 328.536008 271.249606 
L 329.801612 271.249606 
L 329.911663 264.223546 
L 330.057998 264.223546 
L 330.057998 260.710517 
L 331.955086 260.710517 
L 331.955086 257.197487 
L 332.755097 257.197487 
L 332.755097 253.684457 
L 334.415346 253.684457 
L 334.415346 250.171428 
L 334.680921 250.171428 
L 334.680921 246.658398 
L 336.371496 246.658398 
L 336.371496 243.145368 
L 337.507241 243.145368 
L 337.507241 239.632338 
L 338.188027 239.632338 
L 338.188027 236.119309 
L 338.91962 236.119309 
L 338.91962 232.606279 
L 339.130872 232.606279 
L 339.130872 229.093249 
L 339.550548 229.093249 
L 339.550548 225.58022 
L 339.848037 225.58022 
L 339.936918 218.55416 
L 339.966507 218.55416 
L 339.966507 215.041131 
L 340.290768 215.041131 
L 340.290768 211.528101 
L 340.408128 211.528101 
L 340.408128 208.015071 
L 340.641972 208.015071 
L 340.641972 204.502041 
L 341.765585 204.502041 
L 341.765585 200.989012 
L 342.667863 200.989012 
L 342.667863 197.475982 
L 343.029519 197.475982 
L 343.029519 193.962952 
L 343.195503 193.962952 
L 343.195503 190.449923 
L 343.962433 190.449923 
L 344.070979 183.423863 
L 345.904968 183.423863 
L 345.904968 179.910834 
L 346.371853 179.910834 
L 346.371853 176.397804 
L 346.731804 176.397804 
L 346.731804 172.884774 
L 347.190582 172.884774 
L 347.190582 169.371744 
L 347.895448 169.371744 
L 347.995285 162.345685 
L 348.268749 162.345685 
L 348.268749 158.832655 
L 349.104072 158.832655 
L 349.104072 155.319626 
L 349.828984 155.319626 
L 349.828984 151.806596 
L 350.211078 151.806596 
L 350.211078 148.293566 
L 350.329848 148.293566 
L 350.377272 141.267507 
L 350.754949 141.267507 
L 350.778454 134.241447 
L 351.455013 134.241447 
L 351.524449 127.215388 
L 351.915992 127.215388 
L 351.961842 120.189329 
L 352.621687 120.189329 
L 352.644276 113.163269 
L 352.914498 113.163269 
L 352.959384 106.13721 
L 353.738028 106.13721 
L 353.738028 102.62418 
L 354.045907 102.62418 
L 354.045907 99.11115 
L 356.522134 99.11115 
L 356.522134 95.598121 
L 359.424889 95.598121 
L 359.424889 92.085091 
L 361.095486 92.085091 
L 361.095486 88.572061 
L 362.672234 88.572061 
L 362.672234 85.059032 
L 367.240399 85.059032 
L 367.240399 81.546002 
L 376.508325 81.546002 
L 376.508325 78.032972 
L 376.900731 78.032972 
L 376.900731 74.519942 
L 378.399233 74.519942 
L 378.399233 71.006913 
L 378.931331 71.006913 
L 378.931331 67.493883 
L 379.227207 67.493883 
L 379.227207 63.980853 
L 382.746766 63.980853 
L 382.746766 60.467824 
L 386.550555 60.467824 
L 386.550555 56.954794 
L 396.063442 56.954794 
L 396.063442 53.441764 
L 401.250342 53.441764 
L 401.250342 49.928735 
L 407.737921 49.928735 
L 407.737921 46.415705 
L 407.954083 46.415705 
L 407.954083 42.902675 
L 412.86425 42.902675 
L 412.86425 39.389645 
L 419.78545 39.389645 
L 419.78545 35.876616 
L 423.290883 35.876616 
L 423.290883 32.363586 
L 438.1825 32.363586 
L 438.1825 32.363586 
" style="fill:none;stroke:#f5deb3;stroke-linecap:square;stroke-width:1.5;"/>
   </g>
   <g id="line2d_5">
    <path clip-path="url(#pc92735537f)" d="M 376.181078 278.275665 
L 376.181078 274.762636 
L 377.543112 274.762636 
L 377.543112 271.249606 
L 390.170959 271.249606 
L 390.170959 267.736576 
L 390.956721 267.736576 
L 390.956721 264.223546 
L 391.285243 264.223546 
L 391.285243 260.710517 
L 400.326564 260.710517 
L 400.326564 257.197487 
L 408.342066 257.197487 
L 408.342066 253.684457 
L 418.458151 253.684457 
L 418.458151 250.171428 
L 418.890068 250.171428 
L 418.890068 246.658398 
L 420.786004 246.658398 
L 420.786004 243.145368 
L 427.38814 243.145368 
L 427.38814 239.632338 
L 428.384852 239.632338 
L 428.384852 236.119309 
L 432.869672 236.119309 
L 432.869672 232.606279 
L 434.739387 232.606279 
L 434.739387 229.093249 
L 438.1825 229.093249 
" style="fill:none;stroke:#f5deb3;stroke-linecap:square;stroke-width:1.5;"/>
   </g>
   <g id="line2d_6"/>
   <g id="line2d_7">
    <path clip-path="url(#pc92735537f)" d="M 354.308207 278.275665 
L 354.308207 274.762636 
L 355.064987 274.762636 
L 355.064987 271.249606 
L 355.725245 271.249606 
L 355.725245 267.736576 
L 356.41805 267.736576 
L 356.41805 264.223546 
L 356.563704 264.223546 
L 356.563704 260.710517 
L 358.814964 260.710517 
L 358.814964 257.197487 
L 358.992857 257.197487 
L 358.992857 253.684457 
L 359.697764 253.684457 
L 359.697764 250.171428 
L 360.123391 250.171428 
L 360.161894 243.145368 
L 360.411396 243.145368 
L 360.4879 232.606279 
L 360.583355 232.606279 
L 360.583355 229.093249 
L 360.697645 229.093249 
L 360.697645 225.58022 
L 361.095486 225.58022 
L 361.170885 218.55416 
L 361.246163 218.55416 
L 361.302542 211.528101 
L 361.489986 211.528101 
L 361.546074 197.475982 
L 362.158658 197.475982 
L 362.158658 193.962952 
L 362.342723 193.962952 
L 362.342723 190.449923 
L 362.690473 190.449923 
L 362.690473 186.936893 
L 363.503964 186.936893 
L 363.503964 183.423863 
L 363.789843 183.423863 
L 363.789843 179.910834 
L 364.091695 179.910834 
L 364.12708 172.884774 
L 364.268354 172.884774 
L 364.268354 169.371744 
L 364.42678 169.371744 
L 364.42678 165.858715 
L 364.829237 165.858715 
L 364.916273 158.832655 
L 365.50388 158.832655 
L 365.521052 151.806596 
L 365.79495 151.806596 
L 365.79495 148.293566 
L 366.858162 148.293566 
L 366.858162 144.780537 
L 367.57027 144.780537 
L 367.57027 141.267507 
L 368.142028 141.267507 
L 368.142028 137.754477 
L 368.255549 137.754477 
L 368.287933 130.728418 
L 368.514 130.728418 
L 368.514 127.215388 
L 368.738984 127.215388 
L 368.738984 123.702358 
L 369.84802 123.702358 
L 369.926244 116.676299 
L 370.916171 116.676299 
L 370.916171 113.163269 
L 374.552262 113.163269 
L 374.552262 109.650239 
L 374.862878 109.650239 
L 374.862878 106.13721 
L 379.533973 106.13721 
L 379.533973 102.62418 
L 379.712 102.62418 
L 379.712 99.11115 
L 381.785148 99.11115 
L 381.785148 95.598121 
L 383.161362 95.598121 
L 383.161362 92.085091 
L 383.337932 92.085091 
L 383.337932 88.572061 
L 384.715685 88.572061 
L 384.806874 81.546002 
L 385.563706 81.546002 
L 385.563706 78.032972 
L 385.753814 78.032972 
L 385.798433 71.006913 
L 386.692981 71.006913 
L 386.692981 67.493883 
L 388.08337 67.493883 
L 388.08337 63.980853 
L 388.527317 63.980853 
L 388.527317 60.467824 
L 390.08962 60.467824 
L 390.08962 56.954794 
L 392.884658 56.954794 
L 392.884658 53.441764 
L 393.560546 53.441764 
L 393.560546 49.928735 
L 396.08136 49.928735 
L 396.08136 46.415705 
L 398.736915 46.415705 
L 398.736915 42.902675 
L 405.797362 42.902675 
L 405.797362 39.389645 
L 414.689464 39.389645 
L 414.689464 35.876616 
L 425.740439 35.876616 
L 425.740439 32.363586 
L 428.564637 32.363586 
L 428.564637 28.850556 
L 432.462689 28.850556 
L 432.462689 25.337527 
L 433.220374 25.337527 
L 433.220374 21.824497 
L 438.1825 21.824497 
L 438.1825 21.824497 
" style="fill:none;stroke:#f5deb3;stroke-linecap:square;stroke-width:1.5;"/>
   </g>
   <g id="line2d_8">
    <path clip-path="url(#pc92735537f)" style="fill:none;stroke:#f5deb3;stroke-linecap:square;stroke-width:1.5;"/>
   </g>
   <g id="line2d_9">
    <path clip-path="url(#pc92735537f)" d="M 348.268749 278.275665 
L 348.268749 274.762636 
L 349.443757 274.762636 
L 349.443757 271.249606 
L 350.353566 271.249606 
L 350.353566 267.736576 
L 351.847133 267.736576 
L 351.847133 264.223546 
L 352.236007 264.223546 
L 352.236007 260.710517 
L 352.372491 260.710517 
L 352.372491 257.197487 
L 353.116149 257.197487 
L 353.116149 253.684457 
L 353.914206 253.684457 
L 353.914206 250.171428 
L 354.43881 250.171428 
L 354.43881 246.658398 
L 354.698931 246.658398 
L 354.785318 239.632338 
L 354.828453 239.632338 
L 354.850005 232.606279 
L 355.534511 232.606279 
L 355.534511 229.093249 
L 355.809768 229.093249 
L 355.809768 225.58022 
L 356.020411 225.58022 
L 356.041423 218.55416 
L 356.209186 218.55416 
L 356.209186 215.041131 
L 356.355488 215.041131 
L 356.355488 211.528101 
L 356.646732 211.528101 
L 356.750312 204.502041 
L 357.367039 204.502041 
L 357.367039 200.989012 
L 357.874865 200.989012 
L 357.874865 197.475982 
L 358.116685 197.475982 
L 358.116685 193.962952 
L 358.317255 193.962952 
L 358.317255 190.449923 
L 358.636396 190.449923 
L 358.735684 179.910834 
L 359.012581 179.910834 
L 359.111078 162.345685 
L 359.170078 162.345685 
L 359.170078 158.832655 
L 359.483496 158.832655 
L 359.483496 155.319626 
L 359.775439 155.319626 
L 359.794837 148.293566 
L 360.507006 148.293566 
L 360.564279 141.267507 
L 361.114348 141.267507 
L 361.114348 137.754477 
L 361.527386 137.754477 
L 361.620754 130.728418 
L 362.140212 130.728418 
L 362.250781 123.702358 
L 362.562654 123.702358 
L 362.562654 120.189329 
L 363.736373 120.189329 
L 363.843252 109.650239 
L 365.020504 109.650239 
L 365.020504 106.13721 
L 365.829075 106.13721 
L 365.829075 102.62418 
L 371.930624 102.62418 
L 371.930624 99.11115 
L 372.703132 99.11115 
L 372.703132 95.598121 
L 373.550049 95.598121 
L 373.550049 92.085091 
L 374.961281 92.085091 
L 374.961281 88.572061 
L 375.241302 88.572061 
L 375.241302 85.059032 
L 376.900731 85.059032 
L 376.900731 81.546002 
L 378.672524 81.546002 
L 378.672524 78.032972 
L 378.918425 78.032972 
L 378.918425 74.519942 
L 379.342479 74.519942 
L 379.342479 71.006913 
L 381.541636 71.006913 
L 381.541636 67.493883 
L 382.69915 67.493883 
L 382.69915 63.980853 
L 383.466996 63.980853 
L 383.466996 60.467824 
L 386.242315 60.467824 
L 386.242315 56.954794 
L 395.085548 56.954794 
L 395.085548 53.441764 
L 395.286407 53.441764 
L 395.286407 49.928735 
L 396.42052 49.928735 
L 396.42052 46.415705 
L 402.618404 46.415705 
L 402.618404 42.902675 
L 409.128909 42.902675 
L 409.128909 39.389645 
L 410.664124 39.389645 
L 410.664124 35.876616 
L 411.690409 35.876616 
L 411.690409 32.363586 
L 412.10619 32.363586 
L 412.10619 28.850556 
L 413.702694 28.850556 
L 413.702694 25.337527 
L 415.738527 25.337527 
L 415.738527 21.824497 
L 419.801671 21.824497 
L 419.801671 18.311467 
L 422.857248 18.311467 
L 422.857248 14.798437 
L 422.857248 14.798437 
L 426.4825 14.798437 
L 426.4825 14.798437 
" style="fill:none;stroke:#f5deb3;stroke-linecap:square;stroke-width:1.5;"/>
   </g>
   <g id="line2d_10">
    <path clip-path="url(#pc92735537f)" style="fill:none;stroke:#f5deb3;stroke-linecap:square;stroke-width:1.5;"/>
   </g>
   <g id="line2d_11">
    <path clip-path="url(#pc92735537f)" style="fill:none;stroke:#f5deb3;stroke-linecap:square;stroke-width:1.5;"/>
   </g>
   <g id="line2d_12">
    <path clip-path="url(#pc92735537f)" d="M 309.772058 278.275665 
L 309.772058 274.762636 
L 366.253562 274.762636 
L 366.253562 271.249606 
L 369.106278 271.249606 
L 369.106278 267.736576 
L 435.438252 267.736576 
L 435.438252 264.223546 
L 438.1825 264.223546 
" style="fill:none;stroke:#f5deb3;stroke-linecap:square;stroke-width:1.5;"/>
   </g>
   <g id="line2d_13"/>
   <g id="line2d_14">
    <path clip-path="url(#pc92735537f)" d="M 341.13506 278.275665 
L 341.13506 274.762636 
L 347.468757 274.762636 
L 347.468757 271.249606 
L 360.659579 271.249606 
L 360.659579 267.736576 
L 362.250781 267.736576 
L 362.250781 264.223546 
L 367.816162 264.223546 
L 367.816162 260.710517 
L 368.20693 260.710517 
L 368.20693 257.197487 
L 371.297265 257.197487 
L 371.297265 253.684457 
L 375.045463 253.684457 
L 375.045463 250.171428 
L 376.044049 250.171428 
L 376.044049 246.658398 
L 381.370423 246.658398 
L 381.370423 243.145368 
L 382.544063 243.145368 
L 382.544063 239.632338 
L 384.199426 239.632338 
L 384.199426 236.119309 
L 385.339059 236.119309 
L 385.339059 232.606279 
L 390.42424 232.606279 
L 390.42424 229.093249 
L 394.468499 229.093249 
L 394.468499 225.58022 
L 395.021458 225.58022 
L 395.021458 222.06719 
L 396.491611 222.06719 
L 396.491611 218.55416 
L 397.117873 218.55416 
L 397.117873 215.041131 
L 406.691983 215.041131 
L 406.691983 211.528101 
L 407.884462 211.528101 
L 407.884462 208.015071 
L 412.64441 208.015071 
L 412.64441 204.502041 
L 416.184387 204.502041 
L 416.184387 200.989012 
L 416.868365 200.989012 
L 416.868365 197.475982 
L 419.290731 197.475982 
L 419.290731 193.962952 
L 421.936473 193.962952 
L 421.936473 190.449923 
L 423.889342 190.449923 
L 423.889342 186.936893 
L 425.030016 186.936893 
L 425.030016 183.423863 
L 428.348812 183.423863 
L 428.348812 179.910834 
L 429.237193 179.910834 
L 429.237193 176.397804 
L 438.1825 176.397804 
" style="fill:none;stroke:#f5deb3;stroke-linecap:square;stroke-width:1.5;"/>
   </g>
   <g id="line2d_15"/>
   <g id="line2d_16"/>
   <g id="line2d_17">
    <path clip-path="url(#pc92735537f)" d="M 418.246283 278.275665 
L 418.246283 274.762636 
L 419.769224 274.762636 
L 419.769224 271.249606 
L 421.144621 271.249606 
L 421.144621 267.736576 
L 421.677466 267.736576 
L 421.677466 264.223546 
L 423.95372 264.223546 
L 423.95372 260.710517 
L 424.485165 260.710517 
L 424.485165 257.197487 
L 424.665861 257.197487 
L 424.665861 253.684457 
L 424.971941 253.684457 
L 424.971941 250.171428 
L 425.792814 250.171428 
L 425.849884 243.145368 
L 426.823583 243.145368 
L 426.893362 229.093249 
L 428.389355 229.093249 
L 428.43886 222.06719 
L 428.694553 222.06719 
L 428.716916 215.041131 
L 429.113205 215.041131 
L 429.113205 211.528101 
L 429.38731 211.528101 
L 429.38731 208.015071 
L 429.874085 208.015071 
L 429.874085 204.502041 
L 430.195822 204.502041 
L 430.195822 200.989012 
L 430.742907 200.989012 
L 430.742907 197.475982 
L 431.097038 197.475982 
L 431.097038 193.962952 
L 432.168625 193.962952 
L 432.168625 190.449923 
L 432.41725 190.449923 
L 432.41725 186.936893 
L 432.648119 186.936893 
L 432.648119 183.423863 
L 432.812333 183.423863 
L 432.873765 176.397804 
L 433.106479 176.397804 
L 433.171596 169.371744 
L 433.358304 169.371744 
L 433.358304 165.858715 
L 433.889993 165.858715 
L 433.889993 162.345685 
L 434.145631 162.345685 
L 434.145631 158.832655 
L 434.85332 158.832655 
L 434.85332 155.319626 
L 435.430501 155.319626 
L 435.430501 151.806596 
L 435.600737 151.806596 
L 435.681769 144.780537 
L 436.820596 144.780537 
L 436.820596 141.267507 
L 437.71145 141.267507 
L 437.71145 137.754477 
L 437.921441 137.754477 
L 437.921441 134.241447 
L 438.1825 134.241447 
L 438.1825 134.241447 
" style="fill:none;stroke:#f5deb3;stroke-linecap:square;stroke-width:1.5;"/>
   </g>
   <g id="line2d_18">
    <path clip-path="url(#pc92735537f)" d="M 263.076252 278.275665 
L 263.076252 274.762636 
L 295.863205 274.762636 
L 295.863205 271.249606 
L 297.352185 271.249606 
L 297.352185 267.736576 
L 305.22746 267.736576 
L 305.22746 264.223546 
L 306.147935 264.223546 
L 306.147935 260.710517 
L 320.579023 260.710517 
L 320.579023 257.197487 
L 324.561841 257.197487 
L 324.561841 253.684457 
L 340.437422 253.684457 
L 340.437422 250.171428 
L 344.314295 250.171428 
L 344.314295 246.658398 
L 359.83361 246.658398 
L 359.83361 243.145368 
L 360.430533 243.145368 
L 360.430533 239.632338 
L 367.389128 239.632338 
L 367.389128 236.119309 
L 371.69035 236.119309 
L 371.69035 232.606279 
L 373.535575 232.606279 
L 373.535575 229.093249 
L 373.723383 229.093249 
L 373.723383 225.58022 
L 373.838584 225.58022 
L 373.838584 222.06719 
L 379.008696 222.06719 
L 379.008696 218.55416 
L 379.864058 218.55416 
L 379.864058 215.041131 
L 380.504871 215.041131 
L 380.504871 211.528101 
L 380.629502 211.528101 
L 380.629502 208.015071 
L 381.260027 208.015071 
L 381.260027 204.502041 
L 381.966957 204.502041 
L 381.966957 200.989012 
L 386.998288 200.989012 
L 386.998288 197.475982 
L 391.89632 197.475982 
L 391.89632 193.962952 
L 392.091757 193.962952 
L 392.091757 190.449923 
L 396.036551 190.449923 
L 396.036551 186.936893 
L 397.658004 186.936893 
L 397.658004 183.423863 
L 398.990187 183.423863 
L 398.990187 179.910834 
L 413.288448 179.910834 
L 413.288448 176.397804 
L 417.943553 176.397804 
L 417.943553 172.884774 
L 433.511984 172.884774 
L 433.511984 169.371744 
L 438.042587 169.371744 
L 438.042587 165.858715 
L 438.1825 165.858715 
" style="fill:none;stroke:#f5deb3;stroke-linecap:square;stroke-width:1.5;"/>
   </g>
   <g id="line2d_19">
    <path clip-path="url(#pc92735537f)" style="fill:none;stroke:#f5deb3;stroke-linecap:square;stroke-width:1.5;"/>
   </g>
   <g id="line2d_20">
    <path clip-path="url(#pc92735537f)" d="M 280.31444 278.275665 
L 280.31444 274.762636 
L 285.49472 274.762636 
L 285.49472 271.249606 
L 289.558353 271.249606 
L 289.558353 267.736576 
L 290.500421 267.736576 
L 290.500421 264.223546 
L 292.411185 264.223546 
L 292.411185 257.197487 
L 292.735701 257.197487 
L 292.735701 253.684457 
L 293.537314 253.684457 
L 293.537314 250.171428 
L 293.933048 250.171428 
L 293.933048 246.658398 
L 295.55966 246.658398 
L 295.63573 239.632338 
L 296.836394 239.632338 
L 296.836394 236.119309 
L 297.789829 236.119309 
L 297.789829 232.606279 
L 300.812346 232.606279 
L 300.812346 229.093249 
L 301.822566 229.093249 
L 301.822566 222.06719 
L 304.161974 222.06719 
L 304.161974 218.55416 
L 306.329885 218.55416 
L 306.329885 215.041131 
L 309.715769 215.041131 
L 309.715769 208.015071 
L 310.108385 208.015071 
L 310.108385 204.502041 
L 310.773898 204.502041 
L 310.773898 200.989012 
L 311.266918 200.989012 
L 311.266918 197.475982 
L 312.07729 197.475982 
L 312.07729 193.962952 
L 314.478675 193.962952 
L 314.478675 190.449923 
L 315.23592 190.449923 
L 315.23592 186.936893 
L 316.128789 186.936893 
L 316.128789 183.423863 
L 317.053205 183.423863 
L 317.053205 179.910834 
L 320.03961 179.910834 
L 320.03961 176.397804 
L 320.175045 176.397804 
L 320.220103 169.371744 
L 320.668326 169.371744 
L 320.668326 165.858715 
L 321.683291 165.858715 
L 321.726926 158.832655 
L 323.733365 158.832655 
L 323.733365 155.319626 
L 327.041013 155.319626 
L 327.041013 151.806596 
L 327.54465 151.806596 
L 327.54465 148.293566 
L 329.617619 148.293566 
L 329.728102 141.267507 
L 335.109303 141.267507 
L 335.109303 137.754477 
L 335.825474 137.754477 
L 335.825474 134.241447 
L 335.986729 134.241447 
L 335.986729 130.728418 
L 336.784801 130.728418 
L 336.784801 127.215388 
L 337.194501 127.215388 
L 337.288542 120.189329 
L 344.341253 120.189329 
L 344.341253 116.676299 
L 350.139672 116.676299 
L 350.139672 113.163269 
L 350.872353 113.163269 
L 350.872353 109.650239 
L 353.428118 109.650239 
L 353.428118 106.13721 
L 358.096581 106.13721 
L 358.096581 102.62418 
L 358.735684 102.62418 
L 358.735684 99.11115 
L 361.152047 99.11115 
L 361.152047 95.598121 
L 365.982333 95.598121 
L 365.982333 92.085091 
L 368.594475 92.085091 
L 368.594475 88.572061 
L 371.129964 88.572061 
L 371.129964 85.059032 
L 371.554654 85.059032 
L 371.554654 81.546002 
L 375.782588 81.546002 
L 375.782588 78.032972 
L 375.989126 78.032972 
L 375.989126 74.519942 
L 377.715589 74.519942 
L 377.715589 71.006913 
L 379.368057 71.006913 
L 379.368057 67.493883 
L 381.173984 67.493883 
L 381.173984 63.980853 
L 383.208512 63.980853 
L 383.208512 60.467824 
L 394.883827 60.467824 
L 394.883827 56.954794 
L 398.956496 56.954794 
L 398.956496 53.441764 
L 399.492671 53.441764 
L 399.492671 49.928735 
L 406.01537 49.928735 
L 406.01537 46.415705 
L 411.857163 46.415705 
L 411.857163 42.902675 
L 418.851468 42.902675 
L 418.851468 39.389645 
L 431.249811 39.389645 
L 431.249811 35.876616 
L 437.225251 35.876616 
L 437.225251 32.363586 
L 438.1825 32.363586 
L 438.1825 32.363586 
" style="fill:none;stroke:#f5deb3;stroke-linecap:square;stroke-width:1.5;"/>
   </g>
   <g id="line2d_21"/>
   <g id="line2d_22">
    <path clip-path="url(#pc92735537f)" d="M 278.70744 278.275665 
L 278.70744 274.762636 
L 281.045965 274.762636 
L 281.045965 271.249606 
L 285.963988 271.249606 
L 285.963988 267.736576 
L 286.520992 267.736576 
L 286.520992 264.223546 
L 287.253535 264.223546 
L 287.253535 260.710517 
L 287.4349 260.710517 
L 287.4349 257.197487 
L 287.885271 257.197487 
L 287.885271 253.684457 
L 288.420079 253.684457 
L 288.508624 246.658398 
L 289.558353 246.658398 
L 289.558353 243.145368 
L 290.585134 243.145368 
L 290.585134 239.632338 
L 292.411185 239.632338 
L 292.411185 236.119309 
L 293.696008 236.119309 
L 293.696008 232.606279 
L 295.17745 232.606279 
L 295.17745 229.093249 
L 295.863205 229.093249 
L 295.863205 225.58022 
L 296.014245 225.58022 
L 296.014245 222.06719 
L 296.314876 222.06719 
L 296.314876 218.55416 
L 298.866424 218.55416 
L 298.866424 215.041131 
L 300.057462 215.041131 
L 300.057462 211.528101 
L 300.948304 211.528101 
L 300.948304 208.015071 
L 302.022028 208.015071 
L 302.022028 204.502041 
L 309.489935 204.502041 
L 309.489935 200.989012 
L 310.108385 200.989012 
L 310.108385 197.475982 
L 310.718798 197.475982 
L 310.718798 193.962952 
L 313.084091 193.962952 
L 313.084091 190.449923 
L 315.035179 190.449923 
L 315.035179 186.936893 
L 317.484816 186.936893 
L 317.484816 183.423863 
L 318.61676 183.423863 
L 318.61676 179.910834 
L 320.579023 179.910834 
L 320.579023 176.397804 
L 324.602884 176.397804 
L 324.602884 172.884774 
L 326.295076 172.884774 
L 326.295076 169.371744 
L 326.845859 169.371744 
L 326.845859 165.858715 
L 327.736928 165.858715 
L 327.736928 162.345685 
L 328.042944 162.345685 
L 328.042944 158.832655 
L 329.691303 158.832655 
L 329.691303 155.319626 
L 330.710921 155.319626 
L 330.710921 151.806596 
L 334.148262 151.806596 
L 334.148262 148.293566 
L 338.463711 148.293566 
L 338.463711 144.780537 
L 339.251162 144.780537 
L 339.251162 141.267507 
L 339.936918 141.267507 
L 339.936918 137.754477 
L 342.247077 137.754477 
L 342.247077 134.241447 
L 344.556357 134.241447 
L 344.556357 130.728418 
L 347.063593 130.728418 
L 347.063593 127.215388 
L 348.194326 127.215388 
L 348.194326 123.702358 
L 349.419575 123.702358 
L 349.419575 120.189329 
L 350.778454 120.189329 
L 350.872353 113.163269 
L 350.942655 113.163269 
L 350.942655 109.650239 
L 352.007647 109.650239 
L 352.007647 106.13721 
L 352.757058 106.13721 
L 352.757058 102.62418 
L 353.649691 102.62418 
L 353.649691 99.11115 
L 357.611481 99.11115 
L 357.631794 92.085091 
L 360.4879 92.085091 
L 360.4879 88.572061 
L 361.881201 88.572061 
L 361.881201 85.059032 
L 362.416148 85.059032 
L 362.416148 81.546002 
L 365.210995 81.546002 
L 365.210995 78.032972 
L 365.897251 78.032972 
L 365.897251 74.519942 
L 366.405443 74.519942 
L 366.405443 71.006913 
L 366.774654 71.006913 
L 366.774654 67.493883 
L 367.057978 67.493883 
L 367.057978 63.980853 
L 367.520937 63.980853 
L 367.586703 56.954794 
L 370.7014 56.954794 
L 370.7014 53.441764 
L 378.071799 53.441764 
L 378.071799 49.928735 
L 379.368057 49.928735 
L 379.368057 46.415705 
L 384.670025 46.415705 
L 384.670025 42.902675 
L 385.124646 42.902675 
L 385.124646 39.389645 
L 388.263569 39.389645 
L 388.263569 35.876616 
L 389.071214 35.876616 
L 389.071214 32.363586 
L 390.464639 32.363586 
L 390.464639 28.850556 
L 398.82994 28.850556 
L 398.82994 25.337527 
L 399.550945 25.337527 
L 399.550945 21.824497 
L 414.064478 21.824497 
L 414.064478 18.311467 
L 424.514514 18.311467 
L 424.514514 14.798437 
L 424.514514 14.798437 
L 426.4825 14.798437 
L 426.4825 14.798437 
" style="fill:none;stroke:#f5deb3;stroke-linecap:square;stroke-width:1.5;"/>
   </g>
   <g id="line2d_23">
    <path clip-path="url(#pc92735537f)" style="fill:none;stroke:#f5deb3;stroke-linecap:square;stroke-width:1.5;"/>
   </g>
   <g id="line2d_24">
    <path clip-path="url(#pc92735537f)" d="M 332.961574 278.275665 
L 332.961574 274.762636 
L 335.142094 274.762636 
L 335.142094 271.249606 
L 340.671121 271.249606 
L 340.671121 267.736576 
L 341.336601 267.736576 
L 341.336601 264.223546 
L 341.45138 264.223546 
L 341.45138 260.710517 
L 341.594461 260.710517 
L 341.594461 257.197487 
L 342.162466 257.197487 
L 342.162466 253.684457 
L 342.611975 253.684457 
L 342.611975 250.171428 
L 345.800583 250.171428 
L 345.826701 243.145368 
L 346.21674 243.145368 
L 346.21674 239.632338 
L 346.603567 239.632338 
L 346.603567 236.119309 
L 347.139828 236.119309 
L 347.139828 232.606279 
L 347.970346 232.606279 
L 347.970346 229.093249 
L 348.441945 229.093249 
L 348.441945 225.58022 
L 349.516228 225.58022 
L 349.516228 222.06719 
L 349.948723 222.06719 
L 349.948723 218.55416 
L 351.292595 218.55416 
L 351.292595 215.041131 
L 352.167615 215.041131 
L 352.236007 208.015071 
L 353.671791 208.015071 
L 353.671791 204.502041 
L 355.043533 204.502041 
L 355.043533 200.989012 
L 355.851972 200.989012 
L 355.851972 197.475982 
L 357.448661 197.475982 
L 357.448661 193.962952 
L 357.652098 193.962952 
L 357.753487 186.936893 
L 358.056346 186.936893 
L 358.056346 183.423863 
L 358.65627 183.423863 
L 358.65627 179.910834 
L 358.775341 179.910834 
L 358.775341 176.397804 
L 359.091395 176.397804 
L 359.170078 169.371744 
L 359.775439 169.371744 
L 359.775439 165.858715 
L 360.526105 165.858715 
L 360.526105 162.345685 
L 360.792675 162.345685 
L 360.792675 158.832655 
L 361.91829 158.832655 
L 361.91829 155.319626 
L 362.836127 155.319626 
L 362.836127 151.806596 
L 363.180256 151.806596 
L 363.252384 144.780537 
L 364.672164 144.780537 
L 364.672164 141.267507 
L 365.99933 141.267507 
L 365.99933 137.754477 
L 366.590411 137.754477 
L 366.590411 134.241447 
L 367.635967 134.241447 
L 367.635967 130.728418 
L 368.20693 130.728418 
L 368.20693 127.215388 
L 368.352635 127.215388 
L 368.352635 123.702358 
L 370.808908 123.702358 
L 370.808908 120.189329 
L 371.630089 120.189329 
L 371.630089 116.676299 
L 373.564518 116.676299 
L 373.564518 113.163269 
L 374.196779 113.163269 
L 374.196779 109.650239 
L 374.848804 109.650239 
L 374.848804 106.13721 
L 375.602852 106.13721 
L 375.602852 102.62418 
L 375.989126 102.62418 
L 375.989126 99.11115 
L 376.385874 99.11115 
L 376.385874 95.598121 
L 378.071799 95.598121 
L 378.071799 92.085091 
L 379.45747 92.085091 
L 379.495737 85.059032 
L 379.610353 85.059032 
L 379.610353 81.546002 
L 380.229514 81.546002 
L 380.229514 78.032972 
L 380.853008 78.032972 
L 380.853008 74.519942 
L 381.845829 74.519942 
L 381.845829 71.006913 
L 382.160115 71.006913 
L 382.160115 67.493883 
L 383.114164 67.493883 
L 383.114164 63.980853 
L 383.232069 63.980853 
L 383.232069 60.467824 
L 388.030239 60.467824 
L 388.030239 56.954794 
L 389.578033 56.954794 
L 389.578033 53.441764 
L 390.856714 53.441764 
L 390.856714 49.928735 
L 391.324908 49.928735 
L 391.324908 46.415705 
L 400.790724 46.415705 
L 400.790724 42.902675 
L 405.033669 42.902675 
L 405.033669 39.389645 
L 410.965236 39.389645 
L 410.965236 35.876616 
L 425.218267 35.876616 
L 425.218267 32.363586 
L 425.376969 32.363586 
L 425.376969 28.850556 
L 429.343207 28.850556 
L 429.343207 25.337527 
L 433.004554 25.337527 
L 433.004554 21.824497 
L 438.1825 21.824497 
L 438.1825 21.824497 
" style="fill:none;stroke:#f5deb3;stroke-linecap:square;stroke-width:1.5;"/>
   </g>
   <g id="line2d_25"/>
   <g id="line2d_26">
    <path clip-path="url(#pc92735537f)" d="M 390.494915 278.275665 
L 390.494915 274.762636 
L 392.169705 274.762636 
L 392.169705 271.249606 
L 393.209536 271.249606 
L 393.295159 264.223546 
L 393.342659 264.223546 
L 393.342659 260.710517 
L 393.494339 260.710517 
L 393.494339 257.197487 
L 393.626659 257.197487 
L 393.626659 253.684457 
L 398.431175 253.684457 
L 398.465244 246.658398 
L 398.69457 246.658398 
L 398.69457 243.145368 
L 399.166668 243.145368 
L 399.166668 239.632338 
L 399.283955 239.632338 
L 399.283955 236.119309 
L 399.542625 236.119309 
L 399.634069 229.093249 
L 399.741911 229.093249 
L 399.741911 225.58022 
L 399.90734 225.58022 
L 399.973348 218.55416 
L 400.220058 218.55416 
L 400.326564 211.528101 
L 400.669021 211.528101 
L 400.669021 208.015071 
L 400.839317 208.015071 
L 400.839317 204.502041 
L 401.000932 204.502041 
L 401.000932 200.989012 
L 401.362546 200.989012 
L 401.410552 190.449923 
L 401.705506 190.449923 
L 401.705506 186.936893 
L 402.038091 186.936893 
L 402.140558 172.884774 
L 406.051606 172.884774 
L 406.102291 162.345685 
L 406.426818 162.345685 
L 406.498632 155.319626 
L 406.955659 155.319626 
L 406.955659 151.806596 
L 407.196658 151.806596 
L 407.267305 144.780537 
L 407.891429 144.780537 
L 407.891429 141.267507 
L 408.30065 141.267507 
L 408.30065 137.754477 
L 408.918098 137.754477 
L 408.918098 134.241447 
L 412.995661 134.241447 
L 412.995661 130.728418 
L 413.610269 130.728418 
L 413.622603 123.702358 
L 414.033926 123.702358 
L 414.033926 120.189329 
L 414.374977 120.189329 
L 414.374977 116.676299 
L 419.104546 116.676299 
L 419.104546 113.163269 
L 420.461956 113.163269 
L 420.467287 106.13721 
L 420.642848 106.13721 
L 420.680005 95.598121 
L 421.039429 95.598121 
L 421.039429 92.085091 
L 424.10688 92.085091 
L 424.10688 88.572061 
L 424.724315 88.572061 
L 424.724315 85.059032 
L 425.078358 85.059032 
L 425.179713 74.519942 
L 425.973298 74.519942 
L 425.973298 71.006913 
L 428.922157 71.006913 
L 428.922157 67.493883 
L 429.033326 67.493883 
L 429.033326 63.980853 
L 429.519369 63.980853 
L 429.519369 60.467824 
L 430.256444 60.467824 
L 430.27375 53.441764 
L 434.427612 53.441764 
L 434.427612 49.928735 
L 437.415133 49.928735 
L 437.415133 46.415705 
L 438.1825 46.415705 
L 438.1825 46.415705 
" style="fill:none;stroke:#f5deb3;stroke-linecap:square;stroke-width:1.5;"/>
   </g>
   <g id="line2d_27"/>
   <g id="line2d_28">
    <path clip-path="url(#pc92735537f)" d="M 325.4566 278.275665 
L 325.4566 274.762636 
L 325.93756 274.762636 
L 325.93756 271.249606 
L 327.157717 271.249606 
L 327.157717 267.736576 
L 329.173073 267.736576 
L 329.173073 264.223546 
L 329.506876 264.223546 
L 329.506876 260.710517 
L 329.984888 260.710517 
L 329.984888 257.197487 
L 331.60296 257.197487 
L 331.60296 253.684457 
L 333.47383 253.684457 
L 333.47383 250.171428 
L 333.643348 250.171428 
L 333.643348 246.658398 
L 335.109303 246.658398 
L 335.109303 243.145368 
L 335.696071 243.145368 
L 335.696071 239.632338 
L 335.954522 239.632338 
L 335.954522 236.119309 
L 337.131702 236.119309 
L 337.131702 232.606279 
L 338.188027 232.606279 
L 338.188027 229.093249 
L 338.371996 229.093249 
L 338.371996 225.58022 
L 338.737787 225.58022 
L 338.737787 222.06719 
L 338.91962 222.06719 
L 338.91962 218.55416 
L 339.371146 218.55416 
L 339.371146 215.041131 
L 339.729267 215.041131 
L 339.729267 211.528101 
L 340.055164 211.528101 
L 340.055164 208.015071 
L 340.261382 208.015071 
L 340.261382 204.502041 
L 341.019504 204.502041 
L 341.019504 200.989012 
L 341.250332 200.989012 
L 341.250332 197.475982 
L 341.422712 197.475982 
L 341.422712 193.962952 
L 342.584006 193.962952 
L 342.584006 190.449923 
L 343.22311 190.449923 
L 343.22311 186.936893 
L 343.443384 186.936893 
L 343.443384 183.423863 
L 344.60998 183.423863 
L 344.60998 179.910834 
L 345.433397 179.910834 
L 345.433397 176.397804 
L 346.449218 176.397804 
L 346.449218 172.884774 
L 346.936259 172.884774 
L 346.936259 169.371744 
L 347.945393 169.371744 
L 347.945393 165.858715 
L 349.298478 165.858715 
L 349.298478 162.345685 
L 349.900864 162.345685 
L 349.900864 158.832655 
L 350.187288 158.832655 
L 350.187288 155.319626 
L 350.400966 155.319626 
L 350.400966 151.806596 
L 351.847133 151.806596 
L 351.847133 148.293566 
L 352.030533 148.293566 
L 352.030533 144.780537 
L 352.576477 144.780537 
L 352.576477 141.267507 
L 352.757058 141.267507 
L 352.757058 137.754477 
L 353.205494 137.754477 
L 353.205494 134.241447 
L 353.428118 134.241447 
L 353.428118 130.728418 
L 353.60546 130.728418 
L 353.60546 127.215388 
L 354.155377 127.215388 
L 354.155377 123.702358 
L 354.979112 123.702358 
L 354.979112 120.189329 
L 355.492021 120.189329 
L 355.492021 116.676299 
L 355.915207 116.676299 
L 355.915207 113.163269 
L 356.041423 113.163269 
L 356.12538 102.62418 
L 356.956789 102.62418 
L 356.956789 99.11115 
L 358.096581 99.11115 
L 358.096581 95.598121 
L 359.287855 95.598121 
L 359.287855 92.085091 
L 359.639424 92.085091 
L 359.639424 88.572061 
L 360.468785 88.572061 
L 360.468785 85.059032 
L 360.73568 85.059032 
L 360.73568 81.546002 
L 362.195529 81.546002 
L 362.195529 78.032972 
L 362.963205 78.032972 
L 362.963205 74.519942 
L 363.414268 74.519942 
L 363.414268 71.006913 
L 363.772026 71.006913 
L 363.772026 67.493883 
L 365.107187 67.493883 
L 365.107187 63.980853 
L 365.50388 63.980853 
L 365.50388 60.467824 
L 365.948319 60.467824 
L 365.948319 56.954794 
L 366.506425 56.954794 
L 366.506425 53.441764 
L 366.874846 53.441764 
L 366.874846 49.928735 
L 367.914159 49.928735 
L 367.914159 46.415705 
L 369.926244 46.415705 
L 369.926244 42.902675 
L 370.315421 42.902675 
L 370.315421 39.389645 
L 370.824246 39.389645 
L 370.824246 35.876616 
L 387.247599 35.876616 
L 387.247599 32.363586 
L 388.072749 32.363586 
L 388.072749 28.850556 
L 391.215748 28.850556 
L 391.215748 25.337527 
L 393.99331 25.337527 
L 393.99331 21.824497 
L 396.721916 21.824497 
L 396.721916 18.311467 
L 411.991419 18.311467 
L 411.991419 14.798437 
L 411.991419 14.798437 
L 426.4825 14.798437 
L 426.4825 14.798437 
" style="fill:none;stroke:#f5deb3;stroke-linecap:square;stroke-width:1.5;"/>
   </g>
   <g id="line2d_29">
    <path clip-path="url(#pc92735537f)" d="M 402.727391 278.275665 
L 402.727391 274.762636 
L 402.727391 274.762636 
L 402.727391 271.249606 
L 402.727391 271.249606 
L 402.727391 267.736576 
L 433.813832 267.736576 
L 433.813832 264.223546 
L 433.813832 264.223546 
L 433.813832 260.710517 
L 433.813832 260.710517 
L 433.813832 257.197487 
L 433.813832 257.197487 
" style="fill:none;stroke:#f5deb3;stroke-linecap:square;stroke-width:1.5;"/>
   </g>
   <g id="line2d_30"/>
   <g id="matplotlib.axis_1">
    <g id="xtick_1">
     <g id="line2d_31">
      <path clip-path="url(#pc92735537f)" d="M 69.3625 278.275665 
L 69.3625 12.163665 
" style="fill:none;stroke:#b0b0b0;stroke-linecap:square;stroke-width:0.8;"/>
     </g>
     <g id="line2d_32">
      <defs>
       <path d="M 0 0 
L 0 3.5 
" id="mf6a1502699" style="stroke:#000000;stroke-width:0.8;"/>
      </defs>
      <g>
       <use style="stroke:#000000;stroke-width:0.8;" x="69.3625" xlink:href="#mf6a1502699" y="278.275665"/>
      </g>
     </g>
     <g id="text_1">
      <!-- 0 -->
      <defs>
       <path d="M 31.78125 66.40625 
Q 24.171875 66.40625 20.328125 58.90625 
Q 16.5 51.421875 16.5 36.375 
Q 16.5 21.390625 20.328125 13.890625 
Q 24.171875 6.390625 31.78125 6.390625 
Q 39.453125 6.390625 43.28125 13.890625 
Q 47.125 21.390625 47.125 36.375 
Q 47.125 51.421875 43.28125 58.90625 
Q 39.453125 66.40625 31.78125 66.40625 
z
M 31.78125 74.21875 
Q 44.046875 74.21875 50.515625 64.515625 
Q 56.984375 54.828125 56.984375 36.375 
Q 56.984375 17.96875 50.515625 8.265625 
Q 44.046875 -1.421875 31.78125 -1.421875 
Q 19.53125 -1.421875 13.0625 8.265625 
Q 6.59375 17.96875 6.59375 36.375 
Q 6.59375 54.828125 13.0625 64.515625 
Q 19.53125 74.21875 31.78125 74.21875 
z
" id="DejaVuSans-30"/>
      </defs>
      <g transform="translate(63 300.47254)scale(0.2 -0.2)">
       <use xlink:href="#DejaVuSans-30"/>
      </g>
     </g>
    </g>
    <g id="xtick_2">
     <g id="line2d_33">
      <path clip-path="url(#pc92735537f)" d="M 285.68299 278.275665 
L 285.68299 12.163665 
" style="fill:none;stroke:#b0b0b0;stroke-linecap:square;stroke-width:0.8;"/>
     </g>
     <g id="line2d_34">
      <g>
       <use style="stroke:#000000;stroke-width:0.8;" x="285.68299" xlink:href="#mf6a1502699" y="278.275665"/>
      </g>
     </g>
     <g id="text_2">
      <!-- 2 -->
      <defs>
       <path d="M 19.1875 8.296875 
L 53.609375 8.296875 
L 53.609375 0 
L 7.328125 0 
L 7.328125 8.296875 
Q 12.9375 14.109375 22.625 23.890625 
Q 32.328125 33.6875 34.8125 36.53125 
Q 39.546875 41.84375 41.421875 45.53125 
Q 43.3125 49.21875 43.3125 52.78125 
Q 43.3125 58.59375 39.234375 62.25 
Q 35.15625 65.921875 28.609375 65.921875 
Q 23.96875 65.921875 18.8125 64.3125 
Q 13.671875 62.703125 7.8125 59.421875 
L 7.8125 69.390625 
Q 13.765625 71.78125 18.9375 73 
Q 24.125 74.21875 28.421875 74.21875 
Q 39.75 74.21875 46.484375 68.546875 
Q 53.21875 62.890625 53.21875 53.421875 
Q 53.21875 48.921875 51.53125 44.890625 
Q 49.859375 40.875 45.40625 35.40625 
Q 44.1875 33.984375 37.640625 27.21875 
Q 31.109375 20.453125 19.1875 8.296875 
z
" id="DejaVuSans-32"/>
      </defs>
      <g transform="translate(279.32049 300.47254)scale(0.2 -0.2)">
       <use xlink:href="#DejaVuSans-32"/>
      </g>
     </g>
    </g>
    <g id="xtick_3">
     <g id="line2d_35">
      <defs>
       <path d="M 0 0 
L 0 2 
" id="meade9274b8" style="stroke:#000000;stroke-width:0.6;"/>
      </defs>
      <g>
       <use style="stroke:#000000;stroke-width:0.6;" x="101.921978" xlink:href="#meade9274b8" y="278.275665"/>
      </g>
     </g>
    </g>
    <g id="xtick_4">
     <g id="line2d_36">
      <g>
       <use style="stroke:#000000;stroke-width:0.6;" x="120.968052" xlink:href="#meade9274b8" y="278.275665"/>
      </g>
     </g>
    </g>
    <g id="xtick_5">
     <g id="line2d_37">
      <g>
       <use style="stroke:#000000;stroke-width:0.6;" x="134.481456" xlink:href="#meade9274b8" y="278.275665"/>
      </g>
     </g>
    </g>
    <g id="xtick_6">
     <g id="line2d_38">
      <g>
       <use style="stroke:#000000;stroke-width:0.6;" x="144.963267" xlink:href="#meade9274b8" y="278.275665"/>
      </g>
     </g>
    </g>
    <g id="xtick_7">
     <g id="line2d_39">
      <g>
       <use style="stroke:#000000;stroke-width:0.6;" x="153.52753" xlink:href="#meade9274b8" y="278.275665"/>
      </g>
     </g>
    </g>
    <g id="xtick_8">
     <g id="line2d_40">
      <g>
       <use style="stroke:#000000;stroke-width:0.6;" x="160.768511" xlink:href="#meade9274b8" y="278.275665"/>
      </g>
     </g>
    </g>
    <g id="xtick_9">
     <g id="line2d_41">
      <g>
       <use style="stroke:#000000;stroke-width:0.6;" x="167.040934" xlink:href="#meade9274b8" y="278.275665"/>
      </g>
     </g>
    </g>
    <g id="xtick_10">
     <g id="line2d_42">
      <g>
       <use style="stroke:#000000;stroke-width:0.6;" x="172.573604" xlink:href="#meade9274b8" y="278.275665"/>
      </g>
     </g>
    </g>
    <g id="xtick_11">
     <g id="line2d_43">
      <g>
       <use style="stroke:#000000;stroke-width:0.6;" x="210.082223" xlink:href="#meade9274b8" y="278.275665"/>
      </g>
     </g>
    </g>
    <g id="xtick_12">
     <g id="line2d_44">
      <g>
       <use style="stroke:#000000;stroke-width:0.6;" x="229.128297" xlink:href="#meade9274b8" y="278.275665"/>
      </g>
     </g>
    </g>
    <g id="xtick_13">
     <g id="line2d_45">
      <g>
       <use style="stroke:#000000;stroke-width:0.6;" x="242.641701" xlink:href="#meade9274b8" y="278.275665"/>
      </g>
     </g>
    </g>
    <g id="xtick_14">
     <g id="line2d_46">
      <g>
       <use style="stroke:#000000;stroke-width:0.6;" x="253.123512" xlink:href="#meade9274b8" y="278.275665"/>
      </g>
     </g>
    </g>
    <g id="xtick_15">
     <g id="line2d_47">
      <g>
       <use style="stroke:#000000;stroke-width:0.6;" x="261.687775" xlink:href="#meade9274b8" y="278.275665"/>
      </g>
     </g>
    </g>
    <g id="xtick_16">
     <g id="line2d_48">
      <g>
       <use style="stroke:#000000;stroke-width:0.6;" x="268.928756" xlink:href="#meade9274b8" y="278.275665"/>
      </g>
     </g>
    </g>
    <g id="xtick_17">
     <g id="line2d_49">
      <g>
       <use style="stroke:#000000;stroke-width:0.6;" x="275.201179" xlink:href="#meade9274b8" y="278.275665"/>
      </g>
     </g>
    </g>
    <g id="xtick_18">
     <g id="line2d_50">
      <g>
       <use style="stroke:#000000;stroke-width:0.6;" x="280.733849" xlink:href="#meade9274b8" y="278.275665"/>
      </g>
     </g>
    </g>
    <g id="xtick_19">
     <g id="line2d_51">
      <g>
       <use style="stroke:#000000;stroke-width:0.6;" x="318.242468" xlink:href="#meade9274b8" y="278.275665"/>
      </g>
     </g>
    </g>
    <g id="xtick_20">
     <g id="line2d_52">
      <g>
       <use style="stroke:#000000;stroke-width:0.6;" x="337.288542" xlink:href="#meade9274b8" y="278.275665"/>
      </g>
     </g>
    </g>
    <g id="xtick_21">
     <g id="line2d_53">
      <g>
       <use style="stroke:#000000;stroke-width:0.6;" x="350.801946" xlink:href="#meade9274b8" y="278.275665"/>
      </g>
     </g>
    </g>
    <g id="xtick_22">
     <g id="line2d_54">
      <g>
       <use style="stroke:#000000;stroke-width:0.6;" x="361.283757" xlink:href="#meade9274b8" y="278.275665"/>
      </g>
     </g>
    </g>
    <g id="xtick_23">
     <g id="line2d_55">
      <g>
       <use style="stroke:#000000;stroke-width:0.6;" x="369.84802" xlink:href="#meade9274b8" y="278.275665"/>
      </g>
     </g>
    </g>
    <g id="xtick_24">
     <g id="line2d_56">
      <g>
       <use style="stroke:#000000;stroke-width:0.6;" x="377.089001" xlink:href="#meade9274b8" y="278.275665"/>
      </g>
     </g>
    </g>
    <g id="xtick_25">
     <g id="line2d_57">
      <g>
       <use style="stroke:#000000;stroke-width:0.6;" x="383.361424" xlink:href="#meade9274b8" y="278.275665"/>
      </g>
     </g>
    </g>
    <g id="xtick_26">
     <g id="line2d_58">
      <g>
       <use style="stroke:#000000;stroke-width:0.6;" x="388.894094" xlink:href="#meade9274b8" y="278.275665"/>
      </g>
     </g>
    </g>
    <g id="xtick_27">
     <g id="line2d_59">
      <g>
       <use style="stroke:#000000;stroke-width:0.6;" x="426.402713" xlink:href="#meade9274b8" y="278.275665"/>
      </g>
     </g>
    </g>
    <g id="text_3">
     <!-- log10 of FEvals / DIM -->
     <defs>
      <path d="M 9.421875 75.984375 
L 18.40625 75.984375 
L 18.40625 0 
L 9.421875 0 
z
" id="DejaVuSans-6c"/>
      <path d="M 30.609375 48.390625 
Q 23.390625 48.390625 19.1875 42.75 
Q 14.984375 37.109375 14.984375 27.296875 
Q 14.984375 17.484375 19.15625 11.84375 
Q 23.34375 6.203125 30.609375 6.203125 
Q 37.796875 6.203125 41.984375 11.859375 
Q 46.1875 17.53125 46.1875 27.296875 
Q 46.1875 37.015625 41.984375 42.703125 
Q 37.796875 48.390625 30.609375 48.390625 
z
M 30.609375 56 
Q 42.328125 56 49.015625 48.375 
Q 55.71875 40.765625 55.71875 27.296875 
Q 55.71875 13.875 49.015625 6.21875 
Q 42.328125 -1.421875 30.609375 -1.421875 
Q 18.84375 -1.421875 12.171875 6.21875 
Q 5.515625 13.875 5.515625 27.296875 
Q 5.515625 40.765625 12.171875 48.375 
Q 18.84375 56 30.609375 56 
z
" id="DejaVuSans-6f"/>
      <path d="M 45.40625 27.984375 
Q 45.40625 37.75 41.375 43.109375 
Q 37.359375 48.484375 30.078125 48.484375 
Q 22.859375 48.484375 18.828125 43.109375 
Q 14.796875 37.75 14.796875 27.984375 
Q 14.796875 18.265625 18.828125 12.890625 
Q 22.859375 7.515625 30.078125 7.515625 
Q 37.359375 7.515625 41.375 12.890625 
Q 45.40625 18.265625 45.40625 27.984375 
z
M 54.390625 6.78125 
Q 54.390625 -7.171875 48.1875 -13.984375 
Q 42 -20.796875 29.203125 -20.796875 
Q 24.46875 -20.796875 20.265625 -20.09375 
Q 16.0625 -19.390625 12.109375 -17.921875 
L 12.109375 -9.1875 
Q 16.0625 -11.328125 19.921875 -12.34375 
Q 23.78125 -13.375 27.78125 -13.375 
Q 36.625 -13.375 41.015625 -8.765625 
Q 45.40625 -4.15625 45.40625 5.171875 
L 45.40625 9.625 
Q 42.625 4.78125 38.28125 2.390625 
Q 33.9375 0 27.875 0 
Q 17.828125 0 11.671875 7.65625 
Q 5.515625 15.328125 5.515625 27.984375 
Q 5.515625 40.671875 11.671875 48.328125 
Q 17.828125 56 27.875 56 
Q 33.9375 56 38.28125 53.609375 
Q 42.625 51.21875 45.40625 46.390625 
L 45.40625 54.6875 
L 54.390625 54.6875 
z
" id="DejaVuSans-67"/>
      <path d="M 12.40625 8.296875 
L 28.515625 8.296875 
L 28.515625 63.921875 
L 10.984375 60.40625 
L 10.984375 69.390625 
L 28.421875 72.90625 
L 38.28125 72.90625 
L 38.28125 8.296875 
L 54.390625 8.296875 
L 54.390625 0 
L 12.40625 0 
z
" id="DejaVuSans-31"/>
      <path id="DejaVuSans-20"/>
      <path d="M 37.109375 75.984375 
L 37.109375 68.5 
L 28.515625 68.5 
Q 23.6875 68.5 21.796875 66.546875 
Q 19.921875 64.59375 19.921875 59.515625 
L 19.921875 54.6875 
L 34.71875 54.6875 
L 34.71875 47.703125 
L 19.921875 47.703125 
L 19.921875 0 
L 10.890625 0 
L 10.890625 47.703125 
L 2.296875 47.703125 
L 2.296875 54.6875 
L 10.890625 54.6875 
L 10.890625 58.5 
Q 10.890625 67.625 15.140625 71.796875 
Q 19.390625 75.984375 28.609375 75.984375 
z
" id="DejaVuSans-66"/>
      <path d="M 9.8125 72.90625 
L 51.703125 72.90625 
L 51.703125 64.59375 
L 19.671875 64.59375 
L 19.671875 43.109375 
L 48.578125 43.109375 
L 48.578125 34.8125 
L 19.671875 34.8125 
L 19.671875 0 
L 9.8125 0 
z
" id="DejaVuSans-46"/>
      <path d="M 9.8125 72.90625 
L 55.90625 72.90625 
L 55.90625 64.59375 
L 19.671875 64.59375 
L 19.671875 43.015625 
L 54.390625 43.015625 
L 54.390625 34.71875 
L 19.671875 34.71875 
L 19.671875 8.296875 
L 56.78125 8.296875 
L 56.78125 0 
L 9.8125 0 
z
" id="DejaVuSans-45"/>
      <path d="M 2.984375 54.6875 
L 12.5 54.6875 
L 29.59375 8.796875 
L 46.6875 54.6875 
L 56.203125 54.6875 
L 35.6875 0 
L 23.484375 0 
z
" id="DejaVuSans-76"/>
      <path d="M 34.28125 27.484375 
Q 23.390625 27.484375 19.1875 25 
Q 14.984375 22.515625 14.984375 16.5 
Q 14.984375 11.71875 18.140625 8.90625 
Q 21.296875 6.109375 26.703125 6.109375 
Q 34.1875 6.109375 38.703125 11.40625 
Q 43.21875 16.703125 43.21875 25.484375 
L 43.21875 27.484375 
z
M 52.203125 31.203125 
L 52.203125 0 
L 43.21875 0 
L 43.21875 8.296875 
Q 40.140625 3.328125 35.546875 0.953125 
Q 30.953125 -1.421875 24.3125 -1.421875 
Q 15.921875 -1.421875 10.953125 3.296875 
Q 6 8.015625 6 15.921875 
Q 6 25.140625 12.171875 29.828125 
Q 18.359375 34.515625 30.609375 34.515625 
L 43.21875 34.515625 
L 43.21875 35.40625 
Q 43.21875 41.609375 39.140625 45 
Q 35.0625 48.390625 27.6875 48.390625 
Q 23 48.390625 18.546875 47.265625 
Q 14.109375 46.140625 10.015625 43.890625 
L 10.015625 52.203125 
Q 14.9375 54.109375 19.578125 55.046875 
Q 24.21875 56 28.609375 56 
Q 40.484375 56 46.34375 49.84375 
Q 52.203125 43.703125 52.203125 31.203125 
z
" id="DejaVuSans-61"/>
      <path d="M 44.28125 53.078125 
L 44.28125 44.578125 
Q 40.484375 46.53125 36.375 47.5 
Q 32.28125 48.484375 27.875 48.484375 
Q 21.1875 48.484375 17.84375 46.4375 
Q 14.5 44.390625 14.5 40.28125 
Q 14.5 37.15625 16.890625 35.375 
Q 19.28125 33.59375 26.515625 31.984375 
L 29.59375 31.296875 
Q 39.15625 29.25 43.1875 25.515625 
Q 47.21875 21.78125 47.21875 15.09375 
Q 47.21875 7.46875 41.1875 3.015625 
Q 35.15625 -1.421875 24.609375 -1.421875 
Q 20.21875 -1.421875 15.453125 -0.5625 
Q 10.6875 0.296875 5.421875 2 
L 5.421875 11.28125 
Q 10.40625 8.6875 15.234375 7.390625 
Q 20.0625 6.109375 24.8125 6.109375 
Q 31.15625 6.109375 34.5625 8.28125 
Q 37.984375 10.453125 37.984375 14.40625 
Q 37.984375 18.0625 35.515625 20.015625 
Q 33.0625 21.96875 24.703125 23.78125 
L 21.578125 24.515625 
Q 13.234375 26.265625 9.515625 29.90625 
Q 5.8125 33.546875 5.8125 39.890625 
Q 5.8125 47.609375 11.28125 51.796875 
Q 16.75 56 26.8125 56 
Q 31.78125 56 36.171875 55.265625 
Q 40.578125 54.546875 44.28125 53.078125 
z
" id="DejaVuSans-73"/>
      <path d="M 25.390625 72.90625 
L 33.6875 72.90625 
L 8.296875 -9.28125 
L 0 -9.28125 
z
" id="DejaVuSans-2f"/>
      <path d="M 19.671875 64.796875 
L 19.671875 8.109375 
L 31.59375 8.109375 
Q 46.6875 8.109375 53.6875 14.9375 
Q 60.6875 21.78125 60.6875 36.53125 
Q 60.6875 51.171875 53.6875 57.984375 
Q 46.6875 64.796875 31.59375 64.796875 
z
M 9.8125 72.90625 
L 30.078125 72.90625 
Q 51.265625 72.90625 61.171875 64.09375 
Q 71.09375 55.28125 71.09375 36.53125 
Q 71.09375 17.671875 61.125 8.828125 
Q 51.171875 0 30.078125 0 
L 9.8125 0 
z
" id="DejaVuSans-44"/>
      <path d="M 9.8125 72.90625 
L 19.671875 72.90625 
L 19.671875 0 
L 9.8125 0 
z
" id="DejaVuSans-49"/>
      <path d="M 9.8125 72.90625 
L 24.515625 72.90625 
L 43.109375 23.296875 
L 61.8125 72.90625 
L 76.515625 72.90625 
L 76.515625 0 
L 66.890625 0 
L 66.890625 64.015625 
L 48.09375 14.015625 
L 38.1875 14.015625 
L 19.390625 64.015625 
L 19.390625 0 
L 9.8125 0 
z
" id="DejaVuSans-4d"/>
     </defs>
     <g transform="translate(142.849063 323.82879)scale(0.2 -0.2)">
      <use xlink:href="#DejaVuSans-6c"/>
      <use x="27.783203" xlink:href="#DejaVuSans-6f"/>
      <use x="88.964844" xlink:href="#DejaVuSans-67"/>
      <use x="152.441406" xlink:href="#DejaVuSans-31"/>
      <use x="216.064453" xlink:href="#DejaVuSans-30"/>
      <use x="279.6875" xlink:href="#DejaVuSans-20"/>
      <use x="311.474609" xlink:href="#DejaVuSans-6f"/>
      <use x="372.65625" xlink:href="#DejaVuSans-66"/>
      <use x="407.861328" xlink:href="#DejaVuSans-20"/>
      <use x="439.648438" xlink:href="#DejaVuSans-46"/>
      <use x="497.167969" xlink:href="#DejaVuSans-45"/>
      <use x="560.351562" xlink:href="#DejaVuSans-76"/>
      <use x="619.53125" xlink:href="#DejaVuSans-61"/>
      <use x="680.810547" xlink:href="#DejaVuSans-6c"/>
      <use x="708.59375" xlink:href="#DejaVuSans-73"/>
      <use x="760.693359" xlink:href="#DejaVuSans-20"/>
      <use x="792.480469" xlink:href="#DejaVuSans-2f"/>
      <use x="826.171875" xlink:href="#DejaVuSans-20"/>
      <use x="857.958984" xlink:href="#DejaVuSans-44"/>
      <use x="934.960938" xlink:href="#DejaVuSans-49"/>
      <use x="964.453125" xlink:href="#DejaVuSans-4d"/>
     </g>
    </g>
   </g>
   <g id="matplotlib.axis_2">
    <g id="ytick_1">
     <g id="line2d_60">
      <path clip-path="url(#pc92735537f)" d="M 69.3625 278.275665 
L 426.4825 278.275665 
" style="fill:none;stroke:#b0b0b0;stroke-linecap:square;stroke-width:0.8;"/>
     </g>
     <g id="line2d_61">
      <defs>
       <path d="M 0 0 
L -3.5 0 
" id="m44b8927ee3" style="stroke:#000000;stroke-width:0.8;"/>
      </defs>
      <g>
       <use style="stroke:#000000;stroke-width:0.8;" x="69.3625" xlink:href="#m44b8927ee3" y="278.275665"/>
      </g>
     </g>
     <g id="text_4">
      <!-- 0.0 -->
      <defs>
       <path d="M 10.6875 12.40625 
L 21 12.40625 
L 21 0 
L 10.6875 0 
z
" id="DejaVuSans-2e"/>
      </defs>
      <g transform="translate(30.55625 285.874103)scale(0.2 -0.2)">
       <use xlink:href="#DejaVuSans-30"/>
       <use x="63.623047" xlink:href="#DejaVuSans-2e"/>
       <use x="95.410156" xlink:href="#DejaVuSans-30"/>
      </g>
     </g>
    </g>
    <g id="ytick_2">
     <g id="line2d_62">
      <path clip-path="url(#pc92735537f)" d="M 69.3625 225.58022 
L 426.4825 225.58022 
" style="fill:none;stroke:#b0b0b0;stroke-linecap:square;stroke-width:0.8;"/>
     </g>
     <g id="line2d_63">
      <g>
       <use style="stroke:#000000;stroke-width:0.8;" x="69.3625" xlink:href="#m44b8927ee3" y="225.58022"/>
      </g>
     </g>
     <g id="text_5">
      <!-- 0.2 -->
      <g transform="translate(30.55625 233.178657)scale(0.2 -0.2)">
       <use xlink:href="#DejaVuSans-30"/>
       <use x="63.623047" xlink:href="#DejaVuSans-2e"/>
       <use x="95.410156" xlink:href="#DejaVuSans-32"/>
      </g>
     </g>
    </g>
    <g id="ytick_3">
     <g id="line2d_64">
      <path clip-path="url(#pc92735537f)" d="M 69.3625 172.884774 
L 426.4825 172.884774 
" style="fill:none;stroke:#b0b0b0;stroke-linecap:square;stroke-width:0.8;"/>
     </g>
     <g id="line2d_65">
      <g>
       <use style="stroke:#000000;stroke-width:0.8;" x="69.3625" xlink:href="#m44b8927ee3" y="172.884774"/>
      </g>
     </g>
     <g id="text_6">
      <!-- 0.4 -->
      <defs>
       <path d="M 37.796875 64.3125 
L 12.890625 25.390625 
L 37.796875 25.390625 
z
M 35.203125 72.90625 
L 47.609375 72.90625 
L 47.609375 25.390625 
L 58.015625 25.390625 
L 58.015625 17.1875 
L 47.609375 17.1875 
L 47.609375 0 
L 37.796875 0 
L 37.796875 17.1875 
L 4.890625 17.1875 
L 4.890625 26.703125 
z
" id="DejaVuSans-34"/>
      </defs>
      <g transform="translate(30.55625 180.483212)scale(0.2 -0.2)">
       <use xlink:href="#DejaVuSans-30"/>
       <use x="63.623047" xlink:href="#DejaVuSans-2e"/>
       <use x="95.410156" xlink:href="#DejaVuSans-34"/>
      </g>
     </g>
    </g>
    <g id="ytick_4">
     <g id="line2d_66">
      <path clip-path="url(#pc92735537f)" d="M 69.3625 120.189329 
L 426.4825 120.189329 
" style="fill:none;stroke:#b0b0b0;stroke-linecap:square;stroke-width:0.8;"/>
     </g>
     <g id="line2d_67">
      <g>
       <use style="stroke:#000000;stroke-width:0.8;" x="69.3625" xlink:href="#m44b8927ee3" y="120.189329"/>
      </g>
     </g>
     <g id="text_7">
      <!-- 0.6 -->
      <defs>
       <path d="M 33.015625 40.375 
Q 26.375 40.375 22.484375 35.828125 
Q 18.609375 31.296875 18.609375 23.390625 
Q 18.609375 15.53125 22.484375 10.953125 
Q 26.375 6.390625 33.015625 6.390625 
Q 39.65625 6.390625 43.53125 10.953125 
Q 47.40625 15.53125 47.40625 23.390625 
Q 47.40625 31.296875 43.53125 35.828125 
Q 39.65625 40.375 33.015625 40.375 
z
M 52.59375 71.296875 
L 52.59375 62.3125 
Q 48.875 64.0625 45.09375 64.984375 
Q 41.3125 65.921875 37.59375 65.921875 
Q 27.828125 65.921875 22.671875 59.328125 
Q 17.53125 52.734375 16.796875 39.40625 
Q 19.671875 43.65625 24.015625 45.921875 
Q 28.375 48.1875 33.59375 48.1875 
Q 44.578125 48.1875 50.953125 41.515625 
Q 57.328125 34.859375 57.328125 23.390625 
Q 57.328125 12.15625 50.6875 5.359375 
Q 44.046875 -1.421875 33.015625 -1.421875 
Q 20.359375 -1.421875 13.671875 8.265625 
Q 6.984375 17.96875 6.984375 36.375 
Q 6.984375 53.65625 15.1875 63.9375 
Q 23.390625 74.21875 37.203125 74.21875 
Q 40.921875 74.21875 44.703125 73.484375 
Q 48.484375 72.75 52.59375 71.296875 
z
" id="DejaVuSans-36"/>
      </defs>
      <g transform="translate(30.55625 127.787766)scale(0.2 -0.2)">
       <use xlink:href="#DejaVuSans-30"/>
       <use x="63.623047" xlink:href="#DejaVuSans-2e"/>
       <use x="95.410156" xlink:href="#DejaVuSans-36"/>
      </g>
     </g>
    </g>
    <g id="ytick_5">
     <g id="line2d_68">
      <path clip-path="url(#pc92735537f)" d="M 69.3625 67.493883 
L 426.4825 67.493883 
" style="fill:none;stroke:#b0b0b0;stroke-linecap:square;stroke-width:0.8;"/>
     </g>
     <g id="line2d_69">
      <g>
       <use style="stroke:#000000;stroke-width:0.8;" x="69.3625" xlink:href="#m44b8927ee3" y="67.493883"/>
      </g>
     </g>
     <g id="text_8">
      <!-- 0.8 -->
      <defs>
       <path d="M 31.78125 34.625 
Q 24.75 34.625 20.71875 30.859375 
Q 16.703125 27.09375 16.703125 20.515625 
Q 16.703125 13.921875 20.71875 10.15625 
Q 24.75 6.390625 31.78125 6.390625 
Q 38.8125 6.390625 42.859375 10.171875 
Q 46.921875 13.96875 46.921875 20.515625 
Q 46.921875 27.09375 42.890625 30.859375 
Q 38.875 34.625 31.78125 34.625 
z
M 21.921875 38.8125 
Q 15.578125 40.375 12.03125 44.71875 
Q 8.5 49.078125 8.5 55.328125 
Q 8.5 64.0625 14.71875 69.140625 
Q 20.953125 74.21875 31.78125 74.21875 
Q 42.671875 74.21875 48.875 69.140625 
Q 55.078125 64.0625 55.078125 55.328125 
Q 55.078125 49.078125 51.53125 44.71875 
Q 48 40.375 41.703125 38.8125 
Q 48.828125 37.15625 52.796875 32.3125 
Q 56.78125 27.484375 56.78125 20.515625 
Q 56.78125 9.90625 50.3125 4.234375 
Q 43.84375 -1.421875 31.78125 -1.421875 
Q 19.734375 -1.421875 13.25 4.234375 
Q 6.78125 9.90625 6.78125 20.515625 
Q 6.78125 27.484375 10.78125 32.3125 
Q 14.796875 37.15625 21.921875 38.8125 
z
M 18.3125 54.390625 
Q 18.3125 48.734375 21.84375 45.5625 
Q 25.390625 42.390625 31.78125 42.390625 
Q 38.140625 42.390625 41.71875 45.5625 
Q 45.3125 48.734375 45.3125 54.390625 
Q 45.3125 60.0625 41.71875 63.234375 
Q 38.140625 66.40625 31.78125 66.40625 
Q 25.390625 66.40625 21.84375 63.234375 
Q 18.3125 60.0625 18.3125 54.390625 
z
" id="DejaVuSans-38"/>
      </defs>
      <g transform="translate(30.55625 75.092321)scale(0.2 -0.2)">
       <use xlink:href="#DejaVuSans-30"/>
       <use x="63.623047" xlink:href="#DejaVuSans-2e"/>
       <use x="95.410156" xlink:href="#DejaVuSans-38"/>
      </g>
     </g>
    </g>
    <g id="ytick_6">
     <g id="line2d_70">
      <path clip-path="url(#pc92735537f)" d="M 69.3625 14.798437 
L 426.4825 14.798437 
" style="fill:none;stroke:#b0b0b0;stroke-linecap:square;stroke-width:0.8;"/>
     </g>
     <g id="line2d_71">
      <g>
       <use style="stroke:#000000;stroke-width:0.8;" x="69.3625" xlink:href="#m44b8927ee3" y="14.798437"/>
      </g>
     </g>
     <g id="text_9">
      <!-- 1.0 -->
      <g transform="translate(30.55625 22.396875)scale(0.2 -0.2)">
       <use xlink:href="#DejaVuSans-31"/>
       <use x="63.623047" xlink:href="#DejaVuSans-2e"/>
       <use x="95.410156" xlink:href="#DejaVuSans-30"/>
      </g>
     </g>
    </g>
    <g id="text_10">
     <!-- proportion of trials -->
     <defs>
      <path d="M 18.109375 8.203125 
L 18.109375 -20.796875 
L 9.078125 -20.796875 
L 9.078125 54.6875 
L 18.109375 54.6875 
L 18.109375 46.390625 
Q 20.953125 51.265625 25.265625 53.625 
Q 29.59375 56 35.59375 56 
Q 45.5625 56 51.78125 48.09375 
Q 58.015625 40.1875 58.015625 27.296875 
Q 58.015625 14.40625 51.78125 6.484375 
Q 45.5625 -1.421875 35.59375 -1.421875 
Q 29.59375 -1.421875 25.265625 0.953125 
Q 20.953125 3.328125 18.109375 8.203125 
z
M 48.6875 27.296875 
Q 48.6875 37.203125 44.609375 42.84375 
Q 40.53125 48.484375 33.40625 48.484375 
Q 26.265625 48.484375 22.1875 42.84375 
Q 18.109375 37.203125 18.109375 27.296875 
Q 18.109375 17.390625 22.1875 11.75 
Q 26.265625 6.109375 33.40625 6.109375 
Q 40.53125 6.109375 44.609375 11.75 
Q 48.6875 17.390625 48.6875 27.296875 
z
" id="DejaVuSans-70"/>
      <path d="M 41.109375 46.296875 
Q 39.59375 47.171875 37.8125 47.578125 
Q 36.03125 48 33.890625 48 
Q 26.265625 48 22.1875 43.046875 
Q 18.109375 38.09375 18.109375 28.8125 
L 18.109375 0 
L 9.078125 0 
L 9.078125 54.6875 
L 18.109375 54.6875 
L 18.109375 46.1875 
Q 20.953125 51.171875 25.484375 53.578125 
Q 30.03125 56 36.53125 56 
Q 37.453125 56 38.578125 55.875 
Q 39.703125 55.765625 41.0625 55.515625 
z
" id="DejaVuSans-72"/>
      <path d="M 18.3125 70.21875 
L 18.3125 54.6875 
L 36.8125 54.6875 
L 36.8125 47.703125 
L 18.3125 47.703125 
L 18.3125 18.015625 
Q 18.3125 11.328125 20.140625 9.421875 
Q 21.96875 7.515625 27.59375 7.515625 
L 36.8125 7.515625 
L 36.8125 0 
L 27.59375 0 
Q 17.1875 0 13.234375 3.875 
Q 9.28125 7.765625 9.28125 18.015625 
L 9.28125 47.703125 
L 2.6875 47.703125 
L 2.6875 54.6875 
L 9.28125 54.6875 
L 9.28125 70.21875 
z
" id="DejaVuSans-74"/>
      <path d="M 9.421875 54.6875 
L 18.40625 54.6875 
L 18.40625 0 
L 9.421875 0 
z
M 9.421875 75.984375 
L 18.40625 75.984375 
L 18.40625 64.59375 
L 9.421875 64.59375 
z
" id="DejaVuSans-69"/>
      <path d="M 54.890625 33.015625 
L 54.890625 0 
L 45.90625 0 
L 45.90625 32.71875 
Q 45.90625 40.484375 42.875 44.328125 
Q 39.84375 48.1875 33.796875 48.1875 
Q 26.515625 48.1875 22.3125 43.546875 
Q 18.109375 38.921875 18.109375 30.90625 
L 18.109375 0 
L 9.078125 0 
L 9.078125 54.6875 
L 18.109375 54.6875 
L 18.109375 46.1875 
Q 21.34375 51.125 25.703125 53.5625 
Q 30.078125 56 35.796875 56 
Q 45.21875 56 50.046875 50.171875 
Q 54.890625 44.34375 54.890625 33.015625 
z
" id="DejaVuSans-6e"/>
     </defs>
     <g transform="translate(22.396875 238.44779)rotate(-90)scale(0.2 -0.2)">
      <use xlink:href="#DejaVuSans-70"/>
      <use x="63.476562" xlink:href="#DejaVuSans-72"/>
      <use x="104.558594" xlink:href="#DejaVuSans-6f"/>
      <use x="165.740234" xlink:href="#DejaVuSans-70"/>
      <use x="229.216797" xlink:href="#DejaVuSans-6f"/>
      <use x="290.398438" xlink:href="#DejaVuSans-72"/>
      <use x="331.511719" xlink:href="#DejaVuSans-74"/>
      <use x="370.720703" xlink:href="#DejaVuSans-69"/>
      <use x="398.503906" xlink:href="#DejaVuSans-6f"/>
      <use x="459.685547" xlink:href="#DejaVuSans-6e"/>
      <use x="523.064453" xlink:href="#DejaVuSans-20"/>
      <use x="554.851562" xlink:href="#DejaVuSans-6f"/>
      <use x="616.033203" xlink:href="#DejaVuSans-66"/>
      <use x="651.238281" xlink:href="#DejaVuSans-20"/>
      <use x="683.025391" xlink:href="#DejaVuSans-74"/>
      <use x="722.234375" xlink:href="#DejaVuSans-72"/>
      <use x="763.347656" xlink:href="#DejaVuSans-69"/>
      <use x="791.130859" xlink:href="#DejaVuSans-61"/>
      <use x="852.410156" xlink:href="#DejaVuSans-6c"/>
      <use x="880.193359" xlink:href="#DejaVuSans-73"/>
     </g>
    </g>
   </g>
   <g id="line2d_72">
    <path clip-path="url(#pc92735537f)" d="M -1 260.710517 
L 45.367285 260.710517 
L 45.367285 257.197487 
L 106.399021 257.197487 
L 106.399021 253.684457 
L 132.072036 253.684457 
L 132.072036 250.171428 
L 138.958499 250.171428 
L 138.958499 246.658398 
L 143.045719 246.658398 
L 143.045719 243.145368 
L 150.2867 243.145368 
L 150.2867 239.632338 
L 158.004573 239.632338 
L 158.004573 236.119309 
L 169.332774 236.119309 
L 169.332774 232.606279 
L 198.411149 232.606279 
L 198.411149 229.093249 
L 199.009544 229.093249 
L 199.009544 225.58022 
L 228.179307 225.58022 
L 228.179307 222.06719 
L 235.007635 222.06719 
L 235.007635 218.55416 
L 235.557038 218.55416 
L 235.557038 215.041131 
L 284.734 215.041131 
L 284.734 211.528101 
L 291.507033 211.528101 
L 291.507033 208.015071 
L 294.247253 208.015071 
L 294.247253 204.502041 
L 298.65307 204.502041 
L 298.65307 200.989012 
L 301.75589 200.989012 
L 301.75589 197.475982 
L 302.74623 197.475982 
L 302.74623 193.962952 
L 304.035018 193.962952 
L 304.035018 190.449923 
L 304.978923 190.449923 
L 304.978923 186.936893 
L 305.720623 186.936893 
L 305.720623 183.423863 
L 309.489935 183.423863 
L 309.489935 179.910834 
L 310.386829 179.910834 
L 310.497746 169.371744 
L 311.538598 169.371744 
L 311.538598 165.858715 
L 312.768479 165.858715 
L 312.768479 162.345685 
L 313.449644 162.345685 
L 313.449644 158.832655 
L 313.605443 158.832655 
L 313.605443 155.319626 
L 316.42268 155.319626 
L 316.42268 151.806596 
L 317.959779 151.806596 
L 317.959779 148.293566 
L 321.901063 148.293566 
L 321.901063 144.780537 
L 323.186912 144.780537 
L 323.186912 141.267507 
L 324.190834 141.267507 
L 324.190834 137.754477 
L 325.052003 137.754477 
L 325.052003 134.241447 
L 326.057035 134.241447 
L 326.057035 130.728418 
L 326.6106 130.728418 
L 326.6106 127.215388 
L 327.54465 127.215388 
L 327.621655 120.189329 
L 329.395872 120.189329 
L 329.395872 116.676299 
L 332.3394 116.676299 
L 332.3394 113.163269 
L 332.651517 113.163269 
L 332.651517 109.650239 
L 334.315368 109.650239 
L 334.315368 106.13721 
L 334.448626 106.13721 
L 334.448626 102.62418 
L 336.403418 102.62418 
L 336.403418 99.11115 
L 338.707413 99.11115 
L 338.707413 95.598121 
L 339.371146 95.598121 
L 339.371146 92.085091 
L 339.877683 92.085091 
L 339.877683 88.572061 
L 340.231978 88.572061 
L 340.231978 85.059032 
L 341.964444 85.059032 
L 341.964444 81.546002 
L 342.751569 81.546002 
L 342.751569 78.032972 
L 344.850527 78.032972 
L 344.850527 74.519942 
L 346.526456 74.519942 
L 346.526456 71.006913 
L 346.808579 71.006913 
L 346.808579 67.493883 
L 351.616871 67.493883 
L 351.616871 63.980853 
L 360.104128 63.980853 
L 360.104128 60.467824 
L 365.897251 60.467824 
L 365.897251 56.954794 
L 368.336468 56.954794 
L 368.336468 53.441764 
L 370.019941 53.441764 
L 370.066719 46.415705 
L 370.977354 46.415705 
L 370.977354 42.902675 
L 373.680109 42.902675 
L 373.680109 39.389645 
L 374.679581 39.389645 
L 374.679581 35.876616 
L 378.63358 35.876616 
L 378.63358 32.363586 
L 380.229514 32.363586 
L 380.229514 28.850556 
L 388.695342 28.850556 
L 388.695342 25.337527 
L 388.695342 25.337527 
L 426.4825 25.337527 
L 426.4825 25.337527 
" style="fill:none;stroke:#000000;stroke-linecap:square;stroke-width:1.5;"/>
   </g>
   <g id="line2d_73"/>
   <g id="line2d_74">
    <path clip-path="url(#pc92735537f)" d="M 253.683837 278.275665 
L 253.683837 274.762636 
L 267.150802 274.762636 
L 267.150802 271.249606 
L 275.318466 271.249606 
L 275.318466 267.736576 
L 278.816301 267.736576 
L 278.816301 264.223546 
L 280.629347 264.223546 
L 280.629347 260.710517 
L 282.576179 260.710517 
L 282.576179 257.197487 
L 287.4349 257.197487 
L 287.4349 253.684457 
L 288.242485 253.684457 
L 288.242485 250.171428 
L 292.166319 250.171428 
L 292.166319 246.658398 
L 295.02369 246.658398 
L 295.02369 236.119309 
L 301.955635 236.119309 
L 301.955635 232.606279 
L 305.474689 232.606279 
L 305.474689 229.093249 
L 308.053327 229.093249 
L 308.053327 225.58022 
L 317.101358 225.58022 
L 317.101358 222.06719 
L 327.196554 222.06719 
L 327.196554 218.55416 
L 327.851918 218.55416 
L 327.851918 215.041131 
L 331.141214 215.041131 
L 331.141214 211.528101 
L 331.919992 211.528101 
L 331.919992 208.015071 
L 332.165102 208.015071 
L 332.165102 204.502041 
L 335.010792 204.502041 
L 335.010792 200.989012 
L 335.338362 200.989012 
L 335.338362 197.475982 
L 340.378815 197.475982 
L 340.378815 193.962952 
L 342.3034 193.962952 
L 342.3034 190.449923 
L 343.717283 190.449923 
L 343.717283 186.936893 
L 344.368195 186.936893 
L 344.368195 183.423863 
L 346.113046 183.423863 
L 346.113046 179.910834 
L 346.320206 179.910834 
L 346.320206 176.397804 
L 349.948723 176.397804 
L 349.948723 172.884774 
L 351.547571 172.884774 
L 351.547571 169.371744 
L 352.030533 169.371744 
L 352.030533 165.858715 
L 354.698931 165.858715 
L 354.698931 162.345685 
L 359.150419 162.345685 
L 359.150419 158.832655 
L 359.327048 158.832655 
L 359.327048 155.319626 
L 359.736618 155.319626 
L 359.736618 151.806596 
L 360.123391 151.806596 
L 360.123391 148.293566 
L 363.967638 148.293566 
L 364.073993 141.267507 
L 364.532102 141.267507 
L 364.532102 137.754477 
L 364.81181 137.754477 
L 364.846657 130.728418 
L 365.176418 130.728418 
L 365.176418 127.215388 
L 365.50388 127.215388 
L 365.50388 123.702358 
L 366.338001 123.702358 
L 366.338001 120.189329 
L 367.930472 120.189329 
L 367.963081 113.163269 
L 370.361906 113.163269 
L 370.361906 109.650239 
L 373.099287 109.650239 
L 373.099287 106.13721 
L 373.347014 106.13721 
L 373.347014 102.62418 
L 373.795417 102.62418 
L 373.795417 99.11115 
L 375.255259 99.11115 
L 375.255259 95.598121 
L 375.533539 95.598121 
L 375.533539 92.085091 
L 377.847834 92.085091 
L 377.847834 88.572061 
L 378.555594 88.572061 
L 378.555594 85.059032 
L 380.39242 85.059032 
L 380.39242 81.546002 
L 384.727093 81.546002 
L 384.727093 78.032972 
L 386.142806 78.032972 
L 386.142806 74.519942 
L 390.876733 74.519942 
L 390.876733 71.006913 
L 393.974577 71.006913 
L 393.974577 67.493883 
L 395.22259 67.493883 
L 395.22259 63.980853 
L 399.90734 63.980853 
L 399.90734 60.467824 
L 403.780771 60.467824 
L 403.780771 56.954794 
L 405.913759 56.954794 
L 405.913759 53.441764 
L 409.547714 53.441764 
L 409.547714 49.928735 
L 411.722523 49.928735 
L 411.722523 46.415705 
L 416.032332 46.415705 
L 416.032332 42.902675 
L 421.583872 42.902675 
L 421.583872 39.389645 
L 421.583872 39.389645 
L 426.4825 39.389645 
L 426.4825 39.389645 
" style="fill:none;stroke:#00bfbf;stroke-linecap:square;stroke-width:1.5;"/>
   </g>
   <g id="line2d_75"/>
   <g id="line2d_76">
    <path clip-path="url(#pc92735537f)" d="M 332.755097 278.275665 
L 332.755097 274.762636 
L 334.382044 274.762636 
L 334.382044 271.249606 
L 337.693891 271.249606 
L 337.693891 267.736576 
L 338.980074 267.736576 
L 338.980074 264.223546 
L 341.394026 264.223546 
L 341.394026 260.710517 
L 342.639927 260.710517 
L 342.639927 257.197487 
L 343.16788 257.197487 
L 343.22311 250.171428 
L 344.983634 250.171428 
L 344.983634 246.658398 
L 346.113046 246.658398 
L 346.113046 243.145368 
L 348.441945 243.145368 
L 348.441945 239.632338 
L 349.22567 239.632338 
L 349.22567 236.119309 
L 349.54036 236.119309 
L 349.54036 232.606279 
L 350.092007 232.606279 
L 350.092007 229.093249 
L 351.315832 229.093249 
L 351.315832 225.58022 
L 351.686068 225.58022 
L 351.778173 218.55416 
L 353.671791 218.55416 
L 353.671791 215.041131 
L 355.12929 215.041131 
L 355.12929 211.528101 
L 355.851972 211.528101 
L 355.851972 208.015071 
L 356.209186 208.015071 
L 356.209186 204.502041 
L 358.257173 204.502041 
L 358.257173 200.989012 
L 360.181134 200.989012 
L 360.181134 197.475982 
L 360.887514 197.475982 
L 360.887514 193.962952 
L 361.283757 193.962952 
L 361.283757 190.449923 
L 363.126087 190.449923 
L 363.14415 183.423863 
L 363.557699 183.423863 
L 363.557699 179.910834 
L 367.4386 179.910834 
L 367.4386 176.397804 
L 370.423815 176.397804 
L 370.423815 172.884774 
L 373.550049 172.884774 
L 373.550049 169.371744 
L 375.934138 169.371744 
L 375.934138 165.858715 
L 376.630457 165.858715 
L 376.630457 162.345685 
L 377.356656 162.345685 
L 377.356656 158.832655 
L 378.711436 158.832655 
L 378.711436 155.319626 
L 379.78809 155.319626 
L 379.78809 151.806596 
L 380.716548 151.806596 
L 380.716548 148.293566 
L 382.027404 148.293566 
L 382.027404 144.780537 
L 383.817197 144.780537 
L 383.852073 137.754477 
L 384.268589 137.754477 
L 384.268589 134.241447 
L 385.30527 134.241447 
L 385.372825 127.215388 
L 385.563706 127.215388 
L 385.563706 123.702358 
L 385.787282 123.702358 
L 385.820727 116.676299 
L 385.954269 116.676299 
L 385.998699 109.650239 
L 387.613739 109.650239 
L 387.613739 106.13721 
L 389.475044 106.13721 
L 389.475044 102.62418 
L 391.857134 102.62418 
L 391.857134 99.11115 
L 392.14049 99.11115 
L 392.14049 95.598121 
L 392.567171 95.598121 
L 392.567171 92.085091 
L 392.721372 92.085091 
L 392.721372 88.572061 
L 393.768017 88.572061 
L 393.768017 85.059032 
L 395.739734 85.059032 
L 395.739734 81.546002 
L 396.845461 81.546002 
L 396.845461 78.032972 
L 398.5758 78.032972 
L 398.5758 74.519942 
L 401.665756 74.519942 
L 401.665756 71.006913 
L 405.51243 71.006913 
L 405.51243 67.493883 
L 411.548845 67.493883 
L 411.548845 63.980853 
L 421.869268 63.980853 
L 421.869268 60.467824 
L 423.01402 60.467824 
L 423.01402 56.954794 
L 424.166035 56.954794 
L 424.166035 53.441764 
L 424.166035 53.441764 
L 426.4825 53.441764 
L 426.4825 53.441764 
" style="fill:none;stroke:#bf00bf;stroke-linecap:square;stroke-width:1.5;"/>
   </g>
   <g id="line2d_77"/>
   <g id="line2d_78">
    <path clip-path="url(#pc92735537f)" d="M 369.644026 278.275665 
L 369.644026 274.762636 
L 371.554654 274.762636 
L 371.554654 271.249606 
L 371.569751 271.249606 
L 371.569751 267.736576 
L 372.154769 267.736576 
L 372.154769 264.223546 
L 372.747315 264.223546 
L 372.747315 260.710517 
L 372.864932 260.710517 
L 372.864932 257.197487 
L 373.967849 257.197487 
L 373.967849 253.684457 
L 374.778368 253.684457 
L 374.778368 250.171428 
L 375.768787 250.171428 
L 375.768787 246.658398 
L 376.413113 246.658398 
L 376.413113 243.145368 
L 376.900731 243.145368 
L 376.900731 239.632338 
L 378.750316 239.632338 
L 378.750316 236.119309 
L 379.124505 236.119309 
L 379.124505 232.606279 
L 379.533973 232.606279 
L 379.533973 229.093249 
L 379.661204 229.093249 
L 379.661204 225.58022 
L 379.838749 225.58022 
L 379.838749 222.06719 
L 380.242065 222.06719 
L 380.242065 218.55416 
L 380.254613 218.55416 
L 380.254613 215.041131 
L 380.404928 215.041131 
L 380.404928 211.528101 
L 380.766216 211.528101 
L 380.766216 208.015071 
L 381.272306 208.015071 
L 381.272306 204.502041 
L 382.051561 204.502041 
L 382.051561 200.989012 
L 382.758663 200.989012 
L 382.758663 197.475982 
L 383.184943 197.475982 
L 383.184943 193.962952 
L 383.466996 193.962952 
L 383.466996 190.449923 
L 384.749902 190.449923 
L 384.749902 186.936893 
L 384.749902 186.936893 
L 384.749902 183.423863 
L 386.120665 183.423863 
L 386.120665 179.910834 
L 386.671098 179.910834 
L 386.671098 176.397804 
L 387.409483 176.397804 
L 387.409483 172.884774 
L 389.060814 172.884774 
L 389.060814 169.371744 
L 389.24767 169.371744 
L 389.24767 165.858715 
L 389.38216 165.858715 
L 389.38216 162.345685 
L 389.711583 162.345685 
L 389.711583 158.832655 
L 391.334819 158.832655 
L 391.334819 155.319626 
L 393.946463 155.319626 
L 393.946463 151.806596 
L 394.662776 151.806596 
L 394.662776 148.293566 
L 395.549869 148.293566 
L 395.549869 144.780537 
L 395.57704 144.780537 
L 395.57704 141.267507 
L 397.074042 141.267507 
L 397.074042 137.754477 
L 397.744543 137.754477 
L 397.744543 134.241447 
L 401.974923 134.241447 
L 401.974923 130.728418 
L 405.636844 130.728418 
L 405.636844 127.215388 
L 406.01537 127.215388 
L 406.01537 123.702358 
L 410.99785 123.702358 
L 410.99785 120.189329 
L 413.02065 120.189329 
L 413.02065 116.676299 
L 417.006269 116.676299 
L 417.006269 113.163269 
L 418.934143 113.163269 
L 418.934143 109.650239 
L 418.934143 109.650239 
L 418.934143 109.650239 
L 426.4825 109.650239 
" style="fill:none;stroke:#ff0000;stroke-linecap:square;stroke-width:3;"/>
   </g>
   <g id="line2d_79"/>
   <g id="line2d_80">
    <path clip-path="url(#pc92735537f)" d="M 426.4825 278.275665 
L 426.4825 12.163665 
" style="fill:none;stroke:#000000;stroke-linecap:square;stroke-width:1.5;"/>
   </g>
   <g id="patch_3">
    <path d="M 69.3625 278.275665 
L 69.3625 12.163665 
" style="fill:none;stroke:#000000;stroke-linecap:square;stroke-linejoin:miter;stroke-width:0.8;"/>
   </g>
   <g id="patch_4">
    <path d="M 426.4825 278.275665 
L 426.4825 12.163665 
" style="fill:none;stroke:#000000;stroke-linecap:square;stroke-linejoin:miter;stroke-width:0.8;"/>
   </g>
   <g id="patch_5">
    <path d="M 69.3625 278.275665 
L 426.4825 278.275665 
" style="fill:none;stroke:#000000;stroke-linecap:square;stroke-linejoin:miter;stroke-width:0.8;"/>
   </g>
   <g id="patch_6">
    <path d="M 69.3625 12.163665 
L 426.4825 12.163665 
" style="fill:none;stroke:#000000;stroke-linecap:square;stroke-linejoin:miter;stroke-width:0.8;"/>
   </g>
   <g id="text_11">
    <!-- {f10-f14}, 5-D -->
    <defs>
     <path d="M 51.125 -9.28125 
L 51.125 -16.3125 
L 48.09375 -16.3125 
Q 35.9375 -16.3125 31.8125 -12.6875 
Q 27.6875 -9.078125 27.6875 1.703125 
L 27.6875 13.375 
Q 27.6875 20.75 25.046875 23.578125 
Q 22.40625 26.421875 15.484375 26.421875 
L 12.5 26.421875 
L 12.5 33.40625 
L 15.484375 33.40625 
Q 22.46875 33.40625 25.078125 36.203125 
Q 27.6875 39.015625 27.6875 46.296875 
L 27.6875 58.015625 
Q 27.6875 68.796875 31.8125 72.390625 
Q 35.9375 75.984375 48.09375 75.984375 
L 51.125 75.984375 
L 51.125 69 
L 47.796875 69 
Q 40.921875 69 38.8125 66.84375 
Q 36.71875 64.703125 36.71875 57.8125 
L 36.71875 45.703125 
Q 36.71875 38.03125 34.5 34.5625 
Q 32.28125 31.109375 26.90625 29.890625 
Q 32.328125 28.5625 34.515625 25.09375 
Q 36.71875 21.625 36.71875 14.015625 
L 36.71875 1.90625 
Q 36.71875 -4.984375 38.8125 -7.125 
Q 40.921875 -9.28125 47.796875 -9.28125 
z
" id="DejaVuSans-7b"/>
     <path d="M 4.890625 31.390625 
L 31.203125 31.390625 
L 31.203125 23.390625 
L 4.890625 23.390625 
z
" id="DejaVuSans-2d"/>
     <path d="M 12.5 -9.28125 
L 15.921875 -9.28125 
Q 22.75 -9.28125 24.828125 -7.171875 
Q 26.90625 -5.078125 26.90625 1.90625 
L 26.90625 14.015625 
Q 26.90625 21.625 29.09375 25.09375 
Q 31.296875 28.5625 36.71875 29.890625 
Q 31.296875 31.109375 29.09375 34.5625 
Q 26.90625 38.03125 26.90625 45.703125 
L 26.90625 57.8125 
Q 26.90625 64.75 24.828125 66.875 
Q 22.75 69 15.921875 69 
L 12.5 69 
L 12.5 75.984375 
L 15.578125 75.984375 
Q 27.734375 75.984375 31.8125 72.390625 
Q 35.890625 68.796875 35.890625 58.015625 
L 35.890625 46.296875 
Q 35.890625 39.015625 38.515625 36.203125 
Q 41.15625 33.40625 48.09375 33.40625 
L 51.125 33.40625 
L 51.125 26.421875 
L 48.09375 26.421875 
Q 41.15625 26.421875 38.515625 23.578125 
Q 35.890625 20.75 35.890625 13.375 
L 35.890625 1.703125 
Q 35.890625 -9.078125 31.8125 -12.6875 
Q 27.734375 -16.3125 15.578125 -16.3125 
L 12.5 -16.3125 
z
" id="DejaVuSans-7d"/>
     <path d="M 11.71875 12.40625 
L 22.015625 12.40625 
L 22.015625 4 
L 14.015625 -11.625 
L 7.71875 -11.625 
L 11.71875 4 
z
" id="DejaVuSans-2c"/>
     <path d="M 10.796875 72.90625 
L 49.515625 72.90625 
L 49.515625 64.59375 
L 19.828125 64.59375 
L 19.828125 46.734375 
Q 21.96875 47.46875 24.109375 47.828125 
Q 26.265625 48.1875 28.421875 48.1875 
Q 40.625 48.1875 47.75 41.5 
Q 54.890625 34.8125 54.890625 23.390625 
Q 54.890625 11.625 47.5625 5.09375 
Q 40.234375 -1.421875 26.90625 -1.421875 
Q 22.3125 -1.421875 17.546875 -0.640625 
Q 12.796875 0.140625 7.71875 1.703125 
L 7.71875 11.625 
Q 12.109375 9.234375 16.796875 8.0625 
Q 21.484375 6.890625 26.703125 6.890625 
Q 35.15625 6.890625 40.078125 11.328125 
Q 45.015625 15.765625 45.015625 23.390625 
Q 45.015625 31 40.078125 35.4375 
Q 35.15625 39.890625 26.703125 39.890625 
Q 22.75 39.890625 18.8125 39.015625 
Q 14.890625 38.140625 10.796875 36.28125 
z
" id="DejaVuSans-35"/>
    </defs>
    <g transform="translate(175.0725 32.68278)scale(0.2 -0.2)">
     <use xlink:href="#DejaVuSans-7b"/>
     <use x="63.623047" xlink:href="#DejaVuSans-66"/>
     <use x="98.828125" xlink:href="#DejaVuSans-31"/>
     <use x="162.451172" xlink:href="#DejaVuSans-30"/>
     <use x="226.074219" xlink:href="#DejaVuSans-2d"/>
     <use x="262.158203" xlink:href="#DejaVuSans-66"/>
     <use x="297.363281" xlink:href="#DejaVuSans-31"/>
     <use x="360.986328" xlink:href="#DejaVuSans-34"/>
     <use x="424.609375" xlink:href="#DejaVuSans-7d"/>
     <use x="488.232422" xlink:href="#DejaVuSans-2c"/>
     <use x="520.019531" xlink:href="#DejaVuSans-20"/>
     <use x="551.806641" xlink:href="#DejaVuSans-35"/>
     <use x="615.429688" xlink:href="#DejaVuSans-2d"/>
     <use x="651.513672" xlink:href="#DejaVuSans-44"/>
    </g>
   </g>
   <g id="text_12">
    <!-- absolute targets -->
    <defs>
     <path d="M 48.6875 27.296875 
Q 48.6875 37.203125 44.609375 42.84375 
Q 40.53125 48.484375 33.40625 48.484375 
Q 26.265625 48.484375 22.1875 42.84375 
Q 18.109375 37.203125 18.109375 27.296875 
Q 18.109375 17.390625 22.1875 11.75 
Q 26.265625 6.109375 33.40625 6.109375 
Q 40.53125 6.109375 44.609375 11.75 
Q 48.6875 17.390625 48.6875 27.296875 
z
M 18.109375 46.390625 
Q 20.953125 51.265625 25.265625 53.625 
Q 29.59375 56 35.59375 56 
Q 45.5625 56 51.78125 48.09375 
Q 58.015625 40.1875 58.015625 27.296875 
Q 58.015625 14.40625 51.78125 6.484375 
Q 45.5625 -1.421875 35.59375 -1.421875 
Q 29.59375 -1.421875 25.265625 0.953125 
Q 20.953125 3.328125 18.109375 8.203125 
L 18.109375 0 
L 9.078125 0 
L 9.078125 75.984375 
L 18.109375 75.984375 
z
" id="DejaVuSans-62"/>
     <path d="M 8.5 21.578125 
L 8.5 54.6875 
L 17.484375 54.6875 
L 17.484375 21.921875 
Q 17.484375 14.15625 20.5 10.265625 
Q 23.53125 6.390625 29.59375 6.390625 
Q 36.859375 6.390625 41.078125 11.03125 
Q 45.3125 15.671875 45.3125 23.6875 
L 45.3125 54.6875 
L 54.296875 54.6875 
L 54.296875 0 
L 45.3125 0 
L 45.3125 8.40625 
Q 42.046875 3.421875 37.71875 1 
Q 33.40625 -1.421875 27.6875 -1.421875 
Q 18.265625 -1.421875 13.375 4.4375 
Q 8.5 10.296875 8.5 21.578125 
z
M 31.109375 56 
z
" id="DejaVuSans-75"/>
     <path d="M 56.203125 29.59375 
L 56.203125 25.203125 
L 14.890625 25.203125 
Q 15.484375 15.921875 20.484375 11.0625 
Q 25.484375 6.203125 34.421875 6.203125 
Q 39.59375 6.203125 44.453125 7.46875 
Q 49.3125 8.734375 54.109375 11.28125 
L 54.109375 2.78125 
Q 49.265625 0.734375 44.1875 -0.34375 
Q 39.109375 -1.421875 33.890625 -1.421875 
Q 20.796875 -1.421875 13.15625 6.1875 
Q 5.515625 13.8125 5.515625 26.8125 
Q 5.515625 40.234375 12.765625 48.109375 
Q 20.015625 56 32.328125 56 
Q 43.359375 56 49.78125 48.890625 
Q 56.203125 41.796875 56.203125 29.59375 
z
M 47.21875 32.234375 
Q 47.125 39.59375 43.09375 43.984375 
Q 39.0625 48.390625 32.421875 48.390625 
Q 24.90625 48.390625 20.390625 44.140625 
Q 15.875 39.890625 15.1875 32.171875 
z
" id="DejaVuSans-65"/>
    </defs>
    <g transform="translate(69.3625 291.449527)scale(0.14 -0.14)">
     <use xlink:href="#DejaVuSans-61"/>
     <use x="61.279297" xlink:href="#DejaVuSans-62"/>
     <use x="124.755859" xlink:href="#DejaVuSans-73"/>
     <use x="176.855469" xlink:href="#DejaVuSans-6f"/>
     <use x="238.037109" xlink:href="#DejaVuSans-6c"/>
     <use x="265.820312" xlink:href="#DejaVuSans-75"/>
     <use x="329.199219" xlink:href="#DejaVuSans-74"/>
     <use x="368.408203" xlink:href="#DejaVuSans-65"/>
     <use x="429.931641" xlink:href="#DejaVuSans-20"/>
     <use x="461.71875" xlink:href="#DejaVuSans-74"/>
     <use x="500.927734" xlink:href="#DejaVuSans-61"/>
     <use x="562.207031" xlink:href="#DejaVuSans-72"/>
     <use x="603.304688" xlink:href="#DejaVuSans-67"/>
     <use x="666.78125" xlink:href="#DejaVuSans-65"/>
     <use x="728.304688" xlink:href="#DejaVuSans-74"/>
     <use x="767.513672" xlink:href="#DejaVuSans-73"/>
    </g>
   </g>
   <g id="text_13">
    <!-- v2.1 -->
    <g style="fill:#808080;" transform="translate(237.011563 273.534858)scale(0.1 -0.1)">
     <use xlink:href="#DejaVuSans-76"/>
     <use x="59.179688" xlink:href="#DejaVuSans-32"/>
     <use x="122.802734" xlink:href="#DejaVuSans-2e"/>
     <use x="154.589844" xlink:href="#DejaVuSans-31"/>
    </g>
   </g>
   <g id="legend_1">
    <g id="patch_7">
     <path d="M 83.3625 145.588665 
L 212.584375 145.588665 
Q 216.584375 145.588665 216.584375 141.588665 
L 216.584375 26.163665 
Q 216.584375 22.163665 212.584375 22.163665 
L 83.3625 22.163665 
Q 79.3625 22.163665 79.3625 26.163665 
L 79.3625 141.588665 
Q 79.3625 145.588665 83.3625 145.588665 
z
" style="fill:#ffffff;opacity:0.2;stroke:#cccccc;stroke-linejoin:miter;"/>
    </g>
    <g id="line2d_81">
     <path d="M 87.3625 38.36054 
L 127.3625 38.36054 
" style="fill:none;stroke:#000000;stroke-linecap:square;stroke-width:1.5;"/>
    </g>
    <g id="line2d_82"/>
    <g id="text_14">
     <!-- 1: 5/5 -->
     <defs>
      <path d="M 11.71875 12.40625 
L 22.015625 12.40625 
L 22.015625 0 
L 11.71875 0 
z
M 11.71875 51.703125 
L 22.015625 51.703125 
L 22.015625 39.3125 
L 11.71875 39.3125 
z
" id="DejaVuSans-3a"/>
     </defs>
     <g transform="translate(143.3625 45.36054)scale(0.2 -0.2)">
      <use xlink:href="#DejaVuSans-31"/>
      <use x="63.623047" xlink:href="#DejaVuSans-3a"/>
      <use x="97.314453" xlink:href="#DejaVuSans-20"/>
      <use x="129.101562" xlink:href="#DejaVuSans-35"/>
      <use x="192.724609" xlink:href="#DejaVuSans-2f"/>
      <use x="226.416016" xlink:href="#DejaVuSans-35"/>
     </g>
    </g>
    <g id="line2d_83">
     <path d="M 87.3625 67.71679 
L 127.3625 67.71679 
" style="fill:none;stroke:#00bfbf;stroke-linecap:square;stroke-width:1.5;"/>
    </g>
    <g id="line2d_84"/>
    <g id="text_15">
     <!-- -1: 5/5 -->
     <g transform="translate(143.3625 74.71679)scale(0.2 -0.2)">
      <use xlink:href="#DejaVuSans-2d"/>
      <use x="36.083984" xlink:href="#DejaVuSans-31"/>
      <use x="99.707031" xlink:href="#DejaVuSans-3a"/>
      <use x="133.398438" xlink:href="#DejaVuSans-20"/>
      <use x="165.185547" xlink:href="#DejaVuSans-35"/>
      <use x="228.808594" xlink:href="#DejaVuSans-2f"/>
      <use x="262.5" xlink:href="#DejaVuSans-35"/>
     </g>
    </g>
    <g id="line2d_85">
     <path d="M 87.3625 97.07304 
L 127.3625 97.07304 
" style="fill:none;stroke:#bf00bf;stroke-linecap:square;stroke-width:1.5;"/>
    </g>
    <g id="line2d_86"/>
    <g id="text_16">
     <!-- -4: 5/5 -->
     <g transform="translate(143.3625 104.07304)scale(0.2 -0.2)">
      <use xlink:href="#DejaVuSans-2d"/>
      <use x="36.083984" xlink:href="#DejaVuSans-34"/>
      <use x="99.707031" xlink:href="#DejaVuSans-3a"/>
      <use x="133.398438" xlink:href="#DejaVuSans-20"/>
      <use x="165.185547" xlink:href="#DejaVuSans-35"/>
      <use x="228.808594" xlink:href="#DejaVuSans-2f"/>
      <use x="262.5" xlink:href="#DejaVuSans-35"/>
     </g>
    </g>
    <g id="line2d_87">
     <path d="M 87.3625 126.42929 
L 127.3625 126.42929 
" style="fill:none;stroke:#ff0000;stroke-linecap:square;stroke-width:3;"/>
    </g>
    <g id="line2d_88"/>
    <g id="text_17">
     <!-- -8: 4/5 -->
     <g transform="translate(143.3625 133.42929)scale(0.2 -0.2)">
      <use xlink:href="#DejaVuSans-2d"/>
      <use x="36.083984" xlink:href="#DejaVuSans-38"/>
      <use x="99.707031" xlink:href="#DejaVuSans-3a"/>
      <use x="133.398438" xlink:href="#DejaVuSans-20"/>
      <use x="165.185547" xlink:href="#DejaVuSans-34"/>
      <use x="228.808594" xlink:href="#DejaVuSans-2f"/>
      <use x="262.5" xlink:href="#DejaVuSans-35"/>
     </g>
    </g>
   </g>
  </g>
 </g>
 <defs>
  <clipPath id="pc92735537f">
   <rect height="266.112" width="357.12" x="69.3625" y="12.163665"/>
  </clipPath>
 </defs>
</svg>
