<?xml version="1.0" encoding="utf-8" standalone="no"?>
<!DOCTYPE svg PUBLIC "-//W3C//DTD SVG 1.1//EN"
  "http://www.w3.org/Graphics/SVG/1.1/DTD/svg11.dtd">
<!-- Created with matplotlib (http://matplotlib.org/) -->
<svg height="335pt" version="1.1" viewBox="0 0 437 335" width="437pt" xmlns="http://www.w3.org/2000/svg" xmlns:xlink="http://www.w3.org/1999/xlink">
 <defs>
  <style type="text/css">
*{stroke-linecap:butt;stroke-linejoin:round;}
  </style>
 </defs>
 <g id="figure_1">
  <g id="patch_1">
   <path d="M 0 335.188165 
L 437.1825 335.188165 
L 437.1825 0 
L 0 0 
z
" style="fill:#ffffff;"/>
  </g>
  <g id="axes_1">
   <g id="patch_2">
    <path d="M 69.3625 278.275665 
L 426.4825 278.275665 
L 426.4825 12.163665 
L 69.3625 12.163665 
z
" style="fill:#ffffff;"/>
   </g>
   <g id="line2d_1">
    <path clip-path="url(#pcd2923a198)" d="M 275.201179 278.275665 
L 275.201179 274.762636 
L 279.571343 274.762636 
L 279.571343 271.249606 
L 280.942157 271.249606 
L 280.942157 267.736576 
L 282.576179 267.736576 
L 282.576179 264.223546 
L 282.776492 264.223546 
L 282.776492 260.710517 
L 283.174574 260.710517 
L 283.174574 257.197487 
L 288.597003 257.197487 
L 288.597003 253.684457 
L 291.006423 253.684457 
L 291.006423 250.171428 
L 294.247253 250.171428 
L 294.247253 246.658398 
L 299.008124 246.658398 
L 299.008124 243.145368 
L 300.333371 243.145368 
L 300.333371 239.632338 
L 308.344185 239.632338 
L 308.344185 236.119309 
L 317.532529 236.119309 
L 317.532529 232.606279 
L 323.983445 232.606279 
L 323.983445 229.093249 
L 324.929941 229.093249 
L 324.929941 225.58022 
L 325.817781 225.58022 
L 325.817781 222.06719 
L 326.728377 222.06719 
L 326.728377 218.55416 
L 327.079946 218.55416 
L 327.079946 215.041131 
L 330.494287 215.041131 
L 330.494287 211.528101 
L 331.60296 211.528101 
L 331.60296 208.015071 
L 347.695135 208.015071 
L 347.695135 204.502041 
L 348.908857 204.502041 
L 348.908857 200.989012 
L 350.400966 200.989012 
L 350.400966 197.475982 
L 353.561187 197.475982 
L 353.561187 193.962952 
L 364.881478 193.962952 
L 364.881478 190.449923 
L 369.910609 190.449923 
L 369.910609 186.936893 
L 373.752209 186.936893 
L 373.752209 183.423863 
L 387.849142 183.423863 
L 387.849142 179.910834 
L 387.849142 179.910834 
L 387.849142 179.910834 
L 426.4825 179.910834 
" style="fill:none;stroke:#f5deb3;stroke-linecap:square;stroke-width:1.5;"/>
   </g>
   <g id="line2d_2">
    <path clip-path="url(#pcd2923a198)" d="M 366.958176 278.275665 
L 366.958176 267.736576 
L 388.998363 267.736576 
L 388.998363 257.197487 
L 405.453768 257.197487 
L 405.453768 246.658398 
L 438.1825 246.658398 
" style="fill:none;stroke:#f5deb3;stroke-linecap:square;stroke-width:1.5;"/>
   </g>
   <g id="line2d_3">
    <path clip-path="url(#pcd2923a198)" d="M 228.814092 278.275665 
L 228.814092 274.762636 
L 234.45173 274.762636 
L 234.45173 271.249606 
L 278.816301 271.249606 
L 278.816301 267.736576 
L 280.629347 267.736576 
L 280.629347 264.223546 
L 283.372357 264.223546 
L 283.372357 260.710517 
L 291.340755 260.710517 
L 291.340755 257.197487 
L 296.164801 257.197487 
L 296.164801 253.684457 
L 300.333371 253.684457 
L 300.333371 250.171428 
L 303.84394 250.171428 
L 303.84394 246.658398 
L 304.414859 246.658398 
L 304.414859 243.145368 
L 309.715769 243.145368 
L 309.715769 239.632338 
L 312.344337 239.632338 
L 312.344337 236.119309 
L 320.084798 236.119309 
L 320.084798 232.606279 
L 322.333602 232.606279 
L 322.333602 229.093249 
L 330.566609 229.093249 
L 330.566609 225.58022 
L 340.408128 225.58022 
L 340.408128 222.06719 
L 351.012852 222.06719 
L 351.012852 218.55416 
L 364.12708 218.55416 
L 364.12708 215.041131 
L 364.916273 215.041131 
L 364.916273 211.528101 
L 367.405624 211.528101 
L 367.405624 208.015071 
L 372.080173 208.015071 
L 372.080173 204.502041 
L 377.209635 204.502041 
L 377.209635 200.989012 
L 378.294702 200.989012 
L 378.294702 197.475982 
L 394.245479 197.475982 
L 394.245479 193.962952 
L 398.354428 193.962952 
L 398.354428 190.449923 
L 434.443448 190.449923 
L 434.443448 186.936893 
L 437.310979 186.936893 
L 437.310979 183.423863 
L 438.002239 183.423863 
L 438.002239 179.910834 
L 438.1825 179.910834 
" style="fill:none;stroke:#f5deb3;stroke-linecap:square;stroke-width:1.5;"/>
   </g>
   <g id="line2d_4">
    <path clip-path="url(#pcd2923a198)" d="M 265.157693 278.275665 
L 265.157693 274.762636 
L 289.558353 274.762636 
L 289.558353 271.249606 
L 289.64478 271.249606 
L 289.64478 267.736576 
L 292.977624 267.736576 
L 292.977624 264.223546 
L 330.130995 264.223546 
L 330.130995 260.710517 
L 331.496806 260.710517 
L 331.496806 257.197487 
L 336.562704 257.197487 
L 336.562704 253.684457 
L 336.879665 253.684457 
L 336.879665 250.171428 
L 341.594461 250.171428 
L 341.594461 246.658398 
L 354.914603 246.658398 
L 354.914603 243.145368 
L 356.667466 243.145368 
L 356.667466 239.632338 
L 360.373097 239.632338 
L 360.373097 236.119309 
L 360.507006 236.119309 
L 360.507006 232.606279 
L 365.228274 232.606279 
L 365.228274 229.093249 
L 366.118143 229.093249 
L 366.118143 225.58022 
L 367.865186 225.58022 
L 367.865186 222.06719 
L 373.636796 222.06719 
L 373.636796 218.55416 
L 391.641029 218.55416 
L 391.641029 215.041131 
L 404.23477 215.041131 
L 404.23477 211.528101 
L 404.781283 211.528101 
L 404.781283 208.015071 
L 411.167077 208.015071 
L 411.167077 204.502041 
L 413.300866 204.502041 
L 413.300866 200.989012 
L 425.309707 200.989012 
L 425.309707 197.475982 
L 429.272557 197.475982 
L 429.272557 193.962952 
L 433.85794 193.962952 
L 433.85794 190.449923 
L 438.1825 190.449923 
" style="fill:none;stroke:#f5deb3;stroke-linecap:square;stroke-width:1.5;"/>
   </g>
   <g id="line2d_5">
    <path clip-path="url(#pcd2923a198)" d="M 276.817131 278.275665 
L 276.817131 274.762636 
L 287.885271 274.762636 
L 287.885271 271.249606 
L 330.167451 271.249606 
L 330.167451 267.736576 
L 345.748303 267.736576 
L 345.748303 264.223546 
L 375.017419 264.223546 
L 375.017419 260.710517 
L 393.61722 260.710517 
L 393.61722 257.197487 
L 399.8743 257.197487 
L 399.8743 253.684457 
L 401.049309 253.684457 
L 401.049309 250.171428 
L 401.538327 250.171428 
L 401.538327 246.658398 
L 411.728943 246.658398 
L 411.728943 243.145368 
L 414.929953 243.145368 
L 414.929953 239.632338 
L 414.941945 239.632338 
L 414.941945 236.119309 
L 418.497075 236.119309 
L 418.497075 232.606279 
L 422.271061 232.606279 
L 422.271061 229.093249 
L 425.290471 229.093249 
L 425.290471 225.58022 
L 428.596029 225.58022 
L 428.596029 222.06719 
L 428.734798 222.06719 
L 428.734798 218.55416 
L 430.601363 218.55416 
L 430.601363 215.041131 
L 434.810136 215.041131 
L 434.810136 211.528101 
L 438.1825 211.528101 
" style="fill:none;stroke:#f5deb3;stroke-linecap:square;stroke-width:1.5;"/>
   </g>
   <g id="line2d_6"/>
   <g id="line2d_7">
    <path clip-path="url(#pcd2923a198)" d="M 293.616728 278.275665 
L 293.616728 274.762636 
L 301.822566 274.762636 
L 301.822566 271.249606 
L 304.225323 271.249606 
L 304.225323 267.736576 
L 309.206107 267.736576 
L 309.206107 264.223546 
L 319.585318 264.223546 
L 319.585318 260.710517 
L 387.31242 260.710517 
L 387.31242 257.197487 
L 404.691881 257.197487 
L 404.691881 253.684457 
L 408.979398 253.684457 
L 408.979398 250.171428 
L 410.009455 250.171428 
L 410.009455 246.658398 
L 415.181148 246.658398 
L 415.181148 243.145368 
L 428.181767 243.145368 
L 428.181767 239.632338 
L 431.114038 239.632338 
L 431.114038 236.119309 
L 432.631666 236.119309 
L 432.631666 232.606279 
L 432.902407 232.606279 
L 432.902407 229.093249 
L 434.700036 229.093249 
L 434.700036 225.58022 
L 436.903309 225.58022 
L 436.903309 222.06719 
L 438.1825 222.06719 
" style="fill:none;stroke:#f5deb3;stroke-linecap:square;stroke-width:1.5;"/>
   </g>
   <g id="line2d_8">
    <path clip-path="url(#pcd2923a198)" style="fill:none;stroke:#f5deb3;stroke-linecap:square;stroke-width:1.5;"/>
   </g>
   <g id="line2d_9">
    <path clip-path="url(#pcd2923a198)" d="M 282.475701 278.275665 
L 282.475701 274.762636 
L 288.153436 274.762636 
L 288.153436 271.249606 
L 303.330564 271.249606 
L 303.330564 267.736576 
L 304.540793 267.736576 
L 304.540793 264.223546 
L 350.329848 264.223546 
L 350.329848 260.710517 
L 355.87306 260.710517 
L 355.87306 257.197487 
L 361.471276 257.197487 
L 361.471276 253.684457 
L 365.7608 253.684457 
L 365.7608 250.171428 
L 372.952952 250.171428 
L 372.952952 246.658398 
L 390.766525 246.658398 
L 390.766525 243.145368 
L 392.354315 243.145368 
L 392.354315 239.632338 
L 392.393088 239.632338 
L 392.393088 236.119309 
L 406.15292 236.119309 
L 406.15292 232.606279 
L 409.762419 232.606279 
L 409.762419 229.093249 
L 422.715197 229.093249 
L 422.715197 225.58022 
L 427.891415 225.58022 
L 427.891415 222.06719 
L 430.994913 222.06719 
L 430.994913 218.55416 
L 432.886042 218.55416 
L 432.886042 215.041131 
L 437.803667 215.041131 
L 437.803667 211.528101 
L 438.1825 211.528101 
" style="fill:none;stroke:#f5deb3;stroke-linecap:square;stroke-width:1.5;"/>
   </g>
   <g id="line2d_10">
    <path clip-path="url(#pcd2923a198)" d="M 430.38177 278.275665 
L 430.38177 274.762636 
L 438.1825 274.762636 
" style="fill:none;stroke:#f5deb3;stroke-linecap:square;stroke-width:1.5;"/>
   </g>
   <g id="line2d_11">
    <path clip-path="url(#pcd2923a198)" d="M 363.126087 278.275665 
L 363.126087 274.762636 
L 402.672929 274.762636 
L 402.672929 271.249606 
L 420.515232 271.249606 
L 420.515232 267.736576 
L 428.975551 267.736576 
L 428.975551 264.223546 
L 433.037194 264.223546 
L 433.037194 260.710517 
L 437.296081 260.710517 
L 437.296081 257.197487 
L 438.1825 257.197487 
" style="fill:none;stroke:#f5deb3;stroke-linecap:square;stroke-width:1.5;"/>
   </g>
   <g id="line2d_12">
    <path clip-path="url(#pcd2923a198)" d="M 286.705201 278.275665 
L 286.705201 274.762636 
L 290.922467 274.762636 
L 290.922467 271.249606 
L 292.897122 271.249606 
L 292.897122 267.736576 
L 310.108385 267.736576 
L 310.108385 264.223546 
L 310.44232 264.223546 
L 310.44232 260.710517 
L 328.460488 260.710517 
L 328.460488 257.197487 
L 330.890689 257.197487 
L 330.890689 253.684457 
L 332.582337 253.684457 
L 332.582337 250.171428 
L 333.609493 250.171428 
L 333.609493 246.658398 
L 339.520695 246.658398 
L 339.520695 243.145368 
L 347.720221 243.145368 
L 347.720221 239.632338 
L 350.211078 239.632338 
L 350.211078 236.119309 
L 352.030533 236.119309 
L 352.030533 232.606279 
L 354.308207 232.606279 
L 354.308207 229.093249 
L 354.43881 229.093249 
L 354.43881 225.58022 
L 354.698931 225.58022 
L 354.698931 222.06719 
L 356.977387 222.06719 
L 356.977387 218.55416 
L 362.232371 218.55416 
L 362.232371 215.041131 
L 372.244129 215.041131 
L 372.244129 211.528101 
L 382.544063 211.528101 
L 382.544063 208.015071 
L 393.209536 208.015071 
L 393.209536 204.502041 
L 398.652187 204.502041 
L 398.652187 200.989012 
L 403.253189 200.989012 
L 403.253189 197.475982 
L 406.376483 197.475982 
L 406.376483 193.962952 
L 421.239093 193.962952 
L 421.239093 190.449923 
L 427.695322 190.449923 
L 427.695322 186.936893 
L 434.994369 186.936893 
L 434.994369 183.423863 
L 435.831887 183.423863 
L 435.831887 179.910834 
L 438.1825 179.910834 
" style="fill:none;stroke:#f5deb3;stroke-linecap:square;stroke-width:1.5;"/>
   </g>
   <g id="line2d_13">
    <path clip-path="url(#pcd2923a198)" d="M 363.324401 278.275665 
L 363.324401 274.762636 
L 379.572179 274.762636 
L 379.572179 271.249606 
L 385.731488 271.249606 
L 385.731488 267.736576 
L 387.128528 267.736576 
L 387.128528 264.223546 
L 393.484874 264.223546 
L 393.484874 260.710517 
L 398.601276 260.710517 
L 398.601276 257.197487 
L 402.812847 257.197487 
L 402.812847 253.684457 
L 403.145417 253.684457 
L 403.145417 250.171428 
L 403.145417 250.171428 
L 403.145417 246.658398 
L 406.131229 246.658398 
L 406.131229 243.145368 
L 423.190394 243.145368 
L 423.190394 239.632338 
L 423.190394 239.632338 
L 423.190394 239.632338 
L 426.4825 239.632338 
" style="fill:none;stroke:#f5deb3;stroke-linecap:square;stroke-width:1.5;"/>
   </g>
   <g id="line2d_14">
    <path clip-path="url(#pcd2923a198)" d="M 244.030179 278.275665 
L 244.030179 274.762636 
L 257.257682 274.762636 
L 257.257682 271.249606 
L 327.54465 271.249606 
L 327.54465 267.736576 
L 372.392685 267.736576 
L 372.392685 264.223546 
L 383.361424 264.223546 
L 383.361424 260.710517 
L 388.894094 260.710517 
L 388.894094 257.197487 
L 390.373693 257.197487 
L 390.373693 253.684457 
L 399.317412 253.684457 
L 399.317412 250.171428 
L 400.391987 250.171428 
L 400.391987 246.658398 
L 406.210716 246.658398 
L 406.210716 243.145368 
L 409.460209 243.145368 
L 409.460209 239.632338 
L 410.109235 239.632338 
L 410.109235 236.119309 
L 410.473295 236.119309 
L 410.473295 232.606279 
L 412.883045 232.606279 
L 412.883045 229.093249 
L 416.475425 229.093249 
L 416.475425 225.58022 
L 421.123602 225.58022 
L 421.123602 222.06719 
L 425.611633 222.06719 
L 425.611633 218.55416 
L 438.1825 218.55416 
" style="fill:none;stroke:#f5deb3;stroke-linecap:square;stroke-width:1.5;"/>
   </g>
   <g id="line2d_15">
    <path clip-path="url(#pcd2923a198)" style="fill:none;stroke:#f5deb3;stroke-linecap:square;stroke-width:1.5;"/>
   </g>
   <g id="line2d_16">
    <path clip-path="url(#pcd2923a198)" d="M 370.330921 278.275665 
L 370.330921 274.762636 
L 438.1825 274.762636 
" style="fill:none;stroke:#f5deb3;stroke-linecap:square;stroke-width:1.5;"/>
   </g>
   <g id="line2d_17">
    <path clip-path="url(#pcd2923a198)" d="M 381.541636 278.275665 
L 381.541636 274.762636 
L 384.349151 274.762636 
L 384.349151 271.249606 
L 406.649085 271.249606 
L 406.649085 267.736576 
L 438.1825 267.736576 
" style="fill:none;stroke:#f5deb3;stroke-linecap:square;stroke-width:1.5;"/>
   </g>
   <g id="line2d_18">
    <path clip-path="url(#pcd2923a198)" d="M 256.037525 278.275665 
L 256.037525 274.762636 
L 278.269456 274.762636 
L 278.269456 271.249606 
L 287.52532 271.249606 
L 287.52532 267.736576 
L 289.471766 267.736576 
L 289.471766 264.223546 
L 289.903113 264.223546 
L 289.903113 260.710517 
L 304.225323 260.710517 
L 304.225323 257.197487 
L 313.031636 257.197487 
L 313.031636 253.684457 
L 314.732449 253.684457 
L 314.732449 250.171428 
L 318.148427 250.171428 
L 318.148427 246.658398 
L 322.932543 246.658398 
L 322.932543 243.145368 
L 333.098722 243.145368 
L 333.098722 239.632338 
L 334.148262 239.632338 
L 334.148262 236.119309 
L 336.147431 236.119309 
L 336.147431 232.606279 
L 336.848065 232.606279 
L 336.848065 229.093249 
L 350.590089 229.093249 
L 350.590089 225.58022 
L 352.666854 225.58022 
L 352.666854 222.06719 
L 353.160843 222.06719 
L 353.160843 218.55416 
L 353.738028 218.55416 
L 353.738028 215.041131 
L 354.914603 215.041131 
L 354.914603 211.528101 
L 368.642694 211.528101 
L 368.642694 208.015071 
L 369.502279 208.015071 
L 369.502279 204.502041 
L 376.290414 204.502041 
L 376.290414 200.989012 
L 379.82609 200.989012 
L 379.82609 197.475982 
L 387.667343 197.475982 
L 387.667343 193.962952 
L 399.75848 193.962952 
L 399.75848 190.449923 
L 404.2423 190.449923 
L 404.2423 186.936893 
L 408.099953 186.936893 
L 408.099953 183.423863 
L 413.511482 183.423863 
L 413.511482 179.910834 
L 432.676898 179.910834 
L 432.676898 176.397804 
L 438.1825 176.397804 
" style="fill:none;stroke:#f5deb3;stroke-linecap:square;stroke-width:1.5;"/>
   </g>
   <g id="line2d_19">
    <path clip-path="url(#pcd2923a198)" d="M 428.136518 278.275665 
L 428.136518 276.99041 
L 428.136518 276.99041 
L 428.136518 276.99041 
L 428.136518 275.705156 
L 428.136518 275.705156 
L 428.136518 275.705156 
L 428.136518 274.419901 
L 432.421383 274.419901 
L 432.421383 270.564137 
L 436.522376 270.564137 
L 436.522376 266.708372 
L 438.1825 266.708372 
L 438.1825 266.708372 
" style="fill:none;stroke:#f5deb3;stroke-linecap:square;stroke-width:1.5;"/>
   </g>
   <g id="line2d_20">
    <path clip-path="url(#pcd2923a198)" d="M 250.416477 278.275665 
L 250.416477 274.762636 
L 250.416477 274.762636 
L 250.416477 271.249606 
L 255.325793 271.249606 
L 255.325793 267.736576 
L 257.940943 267.736576 
L 257.940943 264.223546 
L 273.405799 264.223546 
L 273.405799 260.710517 
L 294.869426 260.710517 
L 294.869426 257.197487 
L 300.264545 257.197487 
L 300.264545 253.684457 
L 308.517839 253.684457 
L 308.517839 250.171428 
L 318.663338 250.171428 
L 318.663338 246.658398 
L 330.240278 246.658398 
L 330.240278 243.145368 
L 331.814552 243.145368 
L 331.814552 239.632338 
L 334.248597 239.632338 
L 334.248597 236.119309 
L 336.147431 236.119309 
L 336.147431 232.606279 
L 340.173114 232.606279 
L 340.173114 229.093249 
L 340.290768 229.093249 
L 340.290768 225.58022 
L 348.219146 225.58022 
L 348.219146 222.06719 
L 351.961842 222.06719 
L 351.961842 218.55416 
L 352.802094 218.55416 
L 352.802094 215.041131 
L 353.649691 215.041131 
L 353.649691 211.528101 
L 354.850005 211.528101 
L 354.850005 208.015071 
L 358.616513 208.015071 
L 358.616513 204.502041 
L 363.017562 204.502041 
L 363.017562 200.989012 
L 370.423815 200.989012 
L 370.423815 197.475982 
L 370.439279 197.475982 
L 370.439279 193.962952 
L 372.348168 193.962952 
L 372.348168 190.449923 
L 385.339059 190.449923 
L 385.339059 186.936893 
L 386.692981 186.936893 
L 386.692981 183.423863 
L 388.495745 183.423863 
L 388.495745 179.910834 
L 411.658273 179.910834 
L 411.658273 176.397804 
L 413.678065 176.397804 
L 413.678065 172.884774 
L 438.1825 172.884774 
" style="fill:none;stroke:#f5deb3;stroke-linecap:square;stroke-width:1.5;"/>
   </g>
   <g id="line2d_21">
    <path clip-path="url(#pcd2923a198)" style="fill:none;stroke:#f5deb3;stroke-linecap:square;stroke-width:1.5;"/>
   </g>
   <g id="line2d_22">
    <path clip-path="url(#pcd2923a198)" d="M 233.032486 278.275665 
L 233.032486 274.762636 
L 240.232281 274.762636 
L 240.232281 271.249606 
L 249.613493 271.249606 
L 249.613493 267.736576 
L 250.812879 267.736576 
L 250.812879 264.223546 
L 257.940943 264.223546 
L 257.940943 260.710517 
L 261.844092 260.710517 
L 261.844092 257.197487 
L 320.890844 257.197487 
L 320.890844 253.684457 
L 350.400966 253.684457 
L 350.400966 250.171428 
L 352.802094 250.171428 
L 352.802094 246.658398 
L 357.24434 246.658398 
L 357.24434 243.145368 
L 360.046291 243.145368 
L 360.046291 239.632338 
L 368.88305 239.632338 
L 368.88305 236.119309 
L 372.908963 236.119309 
L 372.908963 232.606279 
L 381.991145 232.606279 
L 381.991145 229.093249 
L 387.1502 229.093249 
L 387.1502 225.58022 
L 392.673239 225.58022 
L 392.673239 222.06719 
L 415.920902 222.06719 
L 415.920902 218.55416 
L 416.602913 218.55416 
L 416.602913 215.041131 
L 420.509907 215.041131 
L 420.509907 211.528101 
L 422.044831 211.528101 
L 422.044831 208.015071 
L 425.783295 208.015071 
L 425.783295 204.502041 
L 436.722657 204.502041 
L 436.722657 200.989012 
L 438.1825 200.989012 
" style="fill:none;stroke:#f5deb3;stroke-linecap:square;stroke-width:1.5;"/>
   </g>
   <g id="line2d_23">
    <path clip-path="url(#pcd2923a198)" d="M 373.099287 278.275665 
L 373.099287 274.762636 
L 380.467418 274.762636 
L 380.467418 271.249606 
L 383.840451 271.249606 
L 383.840451 267.736576 
L 384.749902 267.736576 
L 384.749902 264.223546 
L 386.473684 264.223546 
L 386.473684 260.710517 
L 389.916305 260.710517 
L 389.916305 257.197487 
L 407.604941 257.197487 
L 407.604941 253.684457 
L 412.144385 253.684457 
L 412.144385 250.171428 
L 412.404556 250.171428 
L 412.404556 246.658398 
L 414.326406 246.658398 
L 414.326406 243.145368 
L 423.019069 243.145368 
L 423.019069 239.632338 
L 426.32279 239.632338 
L 426.32279 236.119309 
L 433.725491 236.119309 
L 433.725491 232.606279 
L 438.1825 232.606279 
" style="fill:none;stroke:#f5deb3;stroke-linecap:square;stroke-width:1.5;"/>
   </g>
   <g id="line2d_24">
    <path clip-path="url(#pcd2923a198)" d="M 323.102275 278.275665 
L 323.102275 274.762636 
L 324.684862 274.762636 
L 324.684862 271.249606 
L 332.165102 271.249606 
L 332.165102 267.736576 
L 333.439852 267.736576 
L 333.439852 264.223546 
L 340.58362 264.223546 
L 340.58362 260.710517 
L 341.651572 260.710517 
L 341.651572 257.197487 
L 352.372491 257.197487 
L 352.372491 253.684457 
L 380.454926 253.684457 
L 380.454926 250.171428 
L 411.439162 250.171428 
L 411.439162 246.658398 
L 412.518323 246.658398 
L 412.518323 243.145368 
L 414.119421 243.145368 
L 414.119421 239.632338 
L 415.709045 239.632338 
L 415.709045 236.119309 
L 417.830934 236.119309 
L 417.830934 232.606279 
L 418.829397 232.606279 
L 418.829397 229.093249 
L 419.099059 229.093249 
L 419.099059 225.58022 
L 422.199197 225.58022 
L 422.199197 222.06719 
L 432.545193 222.06719 
L 432.545193 218.55416 
L 433.394748 218.55416 
L 433.394748 215.041131 
L 434.692162 215.041131 
L 434.692162 211.528101 
L 438.1825 211.528101 
" style="fill:none;stroke:#f5deb3;stroke-linecap:square;stroke-width:1.5;"/>
   </g>
   <g id="line2d_25">
    <path clip-path="url(#pcd2923a198)" style="fill:none;stroke:#f5deb3;stroke-linecap:square;stroke-width:1.5;"/>
   </g>
   <g id="line2d_26">
    <path clip-path="url(#pcd2923a198)" d="M 341.594461 278.275665 
L 341.594461 274.762636 
L 343.305834 274.762636 
L 343.305834 271.249606 
L 343.717283 271.249606 
L 343.717283 267.736576 
L 344.260334 267.736576 
L 344.260334 264.223546 
L 344.475808 264.223546 
L 344.475808 260.710517 
L 345.695965 260.710517 
L 345.695965 257.197487 
L 346.577877 257.197487 
L 346.577877 253.684457 
L 346.885229 253.684457 
L 346.885229 250.171428 
L 350.660814 250.171428 
L 350.660814 246.658398 
L 361.806935 246.658398 
L 361.806935 243.145368 
L 362.890631 243.145368 
L 362.890631 239.632338 
L 364.215426 239.632338 
L 364.215426 236.119309 
L 364.707114 236.119309 
L 364.707114 232.606279 
L 368.20693 232.606279 
L 368.20693 229.093249 
L 377.489914 229.093249 
L 377.489914 225.58022 
L 378.360061 225.58022 
L 378.360061 222.06719 
L 378.386179 222.06719 
L 378.386179 218.55416 
L 379.047331 218.55416 
L 379.047331 215.041131 
L 381.087783 215.041131 
L 381.087783 211.528101 
L 381.39492 211.528101 
L 381.39492 208.015071 
L 382.484277 208.015071 
L 382.484277 204.502041 
L 395.658457 204.502041 
L 395.658457 200.989012 
L 398.846834 200.989012 
L 398.846834 197.475982 
L 398.964921 197.475982 
L 398.964921 193.962952 
L 400.080415 193.962952 
L 400.080415 190.449923 
L 401.943307 190.449923 
L 401.943307 186.936893 
L 408.293743 186.936893 
L 408.293743 183.423863 
L 408.534863 183.423863 
L 408.534863 179.910834 
L 412.436186 179.910834 
L 412.436186 176.397804 
L 413.641098 176.397804 
L 413.641098 172.884774 
L 425.405767 172.884774 
L 425.405767 169.371744 
L 426.823583 169.371744 
L 426.823583 165.858715 
L 431.507548 165.858715 
L 431.507548 162.345685 
L 434.751186 162.345685 
L 434.751186 158.832655 
L 438.1825 158.832655 
" style="fill:none;stroke:#f5deb3;stroke-linecap:square;stroke-width:1.5;"/>
   </g>
   <g id="line2d_27">
    <path clip-path="url(#pcd2923a198)" d="M 396.871893 278.275665 
L 396.871893 274.762636 
L 396.871893 274.762636 
L 396.871893 274.762636 
L 426.4825 274.762636 
" style="fill:none;stroke:#f5deb3;stroke-linecap:square;stroke-width:1.5;"/>
   </g>
   <g id="line2d_28">
    <path clip-path="url(#pcd2923a198)" d="M 296.014245 278.275665 
L 296.014245 274.762636 
L 296.762245 274.762636 
L 296.762245 271.249606 
L 306.571394 271.249606 
L 306.571394 267.736576 
L 317.77037 267.736576 
L 317.77037 264.223546 
L 340.466698 264.223546 
L 340.466698 260.710517 
L 368.787055 260.710517 
L 368.787055 257.197487 
L 385.653264 257.197487 
L 385.653264 253.684457 
L 413.026896 253.684457 
L 413.026896 250.171428 
L 415.77977 250.171428 
L 415.77977 246.658398 
L 418.190368 246.658398 
L 418.190368 243.145368 
L 418.229515 243.145368 
L 418.229515 239.632338 
L 420.392607 239.632338 
L 420.392607 236.119309 
L 420.838913 236.119309 
L 420.838913 232.606279 
L 423.824876 232.606279 
L 423.824876 229.093249 
L 429.843536 229.093249 
L 429.843536 225.58022 
L 431.482259 225.58022 
L 431.482259 222.06719 
L 438.1825 222.06719 
" style="fill:none;stroke:#f5deb3;stroke-linecap:square;stroke-width:1.5;"/>
   </g>
   <g id="line2d_29">
    <path clip-path="url(#pcd2923a198)" d="M 291.257395 278.275665 
L 291.257395 274.762636 
L 291.257395 274.762636 
L 291.257395 271.249606 
L 291.257395 271.249606 
L 291.257395 267.736576 
L 324.190834 267.736576 
L 324.190834 264.223546 
L 324.190834 264.223546 
L 324.190834 260.710517 
L 324.190834 260.710517 
L 324.190834 257.197487 
L 331.105507 257.197487 
L 331.105507 253.684457 
L 331.105507 253.684457 
L 331.105507 250.171428 
L 331.105507 250.171428 
L 331.105507 246.658398 
L 372.303608 246.658398 
L 372.303608 243.145368 
L 372.303608 243.145368 
L 372.303608 239.632338 
L 372.303608 239.632338 
L 372.303608 236.119309 
L 417.000531 236.119309 
L 417.000531 232.606279 
L 417.000531 232.606279 
L 417.000531 229.093249 
L 417.000531 229.093249 
L 417.000531 225.58022 
L 434.869013 225.58022 
L 434.869013 222.06719 
L 434.869013 222.06719 
L 434.869013 218.55416 
L 434.869013 218.55416 
L 434.869013 215.041131 
L 438.1825 215.041131 
" style="fill:none;stroke:#f5deb3;stroke-linecap:square;stroke-width:1.5;"/>
   </g>
   <g id="line2d_30">
    <path clip-path="url(#pcd2923a198)" d="M 406.634777 278.275665 
L 406.634777 274.762636 
L 409.567884 274.762636 
L 409.567884 271.249606 
L 438.1825 271.249606 
" style="fill:none;stroke:#f5deb3;stroke-linecap:square;stroke-width:1.5;"/>
   </g>
   <g id="matplotlib.axis_1">
    <g id="xtick_1">
     <g id="line2d_31">
      <path clip-path="url(#pcd2923a198)" d="M 69.3625 278.275665 
L 69.3625 12.163665 
" style="fill:none;stroke:#b0b0b0;stroke-linecap:square;stroke-width:0.8;"/>
     </g>
     <g id="line2d_32">
      <defs>
       <path d="M 0 0 
L 0 3.5 
" id="ma69e922502" style="stroke:#000000;stroke-width:0.8;"/>
      </defs>
      <g>
       <use style="stroke:#000000;stroke-width:0.8;" x="69.3625" xlink:href="#ma69e922502" y="278.275665"/>
      </g>
     </g>
     <g id="text_1">
      <!-- 0 -->
      <defs>
       <path d="M 31.78125 66.40625 
Q 24.171875 66.40625 20.328125 58.90625 
Q 16.5 51.421875 16.5 36.375 
Q 16.5 21.390625 20.328125 13.890625 
Q 24.171875 6.390625 31.78125 6.390625 
Q 39.453125 6.390625 43.28125 13.890625 
Q 47.125 21.390625 47.125 36.375 
Q 47.125 51.421875 43.28125 58.90625 
Q 39.453125 66.40625 31.78125 66.40625 
z
M 31.78125 74.21875 
Q 44.046875 74.21875 50.515625 64.515625 
Q 56.984375 54.828125 56.984375 36.375 
Q 56.984375 17.96875 50.515625 8.265625 
Q 44.046875 -1.421875 31.78125 -1.421875 
Q 19.53125 -1.421875 13.0625 8.265625 
Q 6.59375 17.96875 6.59375 36.375 
Q 6.59375 54.828125 13.0625 64.515625 
Q 19.53125 74.21875 31.78125 74.21875 
z
" id="DejaVuSans-30"/>
      </defs>
      <g transform="translate(63 300.47254)scale(0.2 -0.2)">
       <use xlink:href="#DejaVuSans-30"/>
      </g>
     </g>
    </g>
    <g id="xtick_2">
     <g id="line2d_33">
      <path clip-path="url(#pcd2923a198)" d="M 285.68299 278.275665 
L 285.68299 12.163665 
" style="fill:none;stroke:#b0b0b0;stroke-linecap:square;stroke-width:0.8;"/>
     </g>
     <g id="line2d_34">
      <g>
       <use style="stroke:#000000;stroke-width:0.8;" x="285.68299" xlink:href="#ma69e922502" y="278.275665"/>
      </g>
     </g>
     <g id="text_2">
      <!-- 2 -->
      <defs>
       <path d="M 19.1875 8.296875 
L 53.609375 8.296875 
L 53.609375 0 
L 7.328125 0 
L 7.328125 8.296875 
Q 12.9375 14.109375 22.625 23.890625 
Q 32.328125 33.6875 34.8125 36.53125 
Q 39.546875 41.84375 41.421875 45.53125 
Q 43.3125 49.21875 43.3125 52.78125 
Q 43.3125 58.59375 39.234375 62.25 
Q 35.15625 65.921875 28.609375 65.921875 
Q 23.96875 65.921875 18.8125 64.3125 
Q 13.671875 62.703125 7.8125 59.421875 
L 7.8125 69.390625 
Q 13.765625 71.78125 18.9375 73 
Q 24.125 74.21875 28.421875 74.21875 
Q 39.75 74.21875 46.484375 68.546875 
Q 53.21875 62.890625 53.21875 53.421875 
Q 53.21875 48.921875 51.53125 44.890625 
Q 49.859375 40.875 45.40625 35.40625 
Q 44.1875 33.984375 37.640625 27.21875 
Q 31.109375 20.453125 19.1875 8.296875 
z
" id="DejaVuSans-32"/>
      </defs>
      <g transform="translate(279.32049 300.47254)scale(0.2 -0.2)">
       <use xlink:href="#DejaVuSans-32"/>
      </g>
     </g>
    </g>
    <g id="xtick_3">
     <g id="line2d_35">
      <defs>
       <path d="M 0 0 
L 0 2 
" id="m3ae8839c3d" style="stroke:#000000;stroke-width:0.6;"/>
      </defs>
      <g>
       <use style="stroke:#000000;stroke-width:0.6;" x="101.921978" xlink:href="#m3ae8839c3d" y="278.275665"/>
      </g>
     </g>
    </g>
    <g id="xtick_4">
     <g id="line2d_36">
      <g>
       <use style="stroke:#000000;stroke-width:0.6;" x="120.968052" xlink:href="#m3ae8839c3d" y="278.275665"/>
      </g>
     </g>
    </g>
    <g id="xtick_5">
     <g id="line2d_37">
      <g>
       <use style="stroke:#000000;stroke-width:0.6;" x="134.481456" xlink:href="#m3ae8839c3d" y="278.275665"/>
      </g>
     </g>
    </g>
    <g id="xtick_6">
     <g id="line2d_38">
      <g>
       <use style="stroke:#000000;stroke-width:0.6;" x="144.963267" xlink:href="#m3ae8839c3d" y="278.275665"/>
      </g>
     </g>
    </g>
    <g id="xtick_7">
     <g id="line2d_39">
      <g>
       <use style="stroke:#000000;stroke-width:0.6;" x="153.52753" xlink:href="#m3ae8839c3d" y="278.275665"/>
      </g>
     </g>
    </g>
    <g id="xtick_8">
     <g id="line2d_40">
      <g>
       <use style="stroke:#000000;stroke-width:0.6;" x="160.768511" xlink:href="#m3ae8839c3d" y="278.275665"/>
      </g>
     </g>
    </g>
    <g id="xtick_9">
     <g id="line2d_41">
      <g>
       <use style="stroke:#000000;stroke-width:0.6;" x="167.040934" xlink:href="#m3ae8839c3d" y="278.275665"/>
      </g>
     </g>
    </g>
    <g id="xtick_10">
     <g id="line2d_42">
      <g>
       <use style="stroke:#000000;stroke-width:0.6;" x="172.573604" xlink:href="#m3ae8839c3d" y="278.275665"/>
      </g>
     </g>
    </g>
    <g id="xtick_11">
     <g id="line2d_43">
      <g>
       <use style="stroke:#000000;stroke-width:0.6;" x="210.082223" xlink:href="#m3ae8839c3d" y="278.275665"/>
      </g>
     </g>
    </g>
    <g id="xtick_12">
     <g id="line2d_44">
      <g>
       <use style="stroke:#000000;stroke-width:0.6;" x="229.128297" xlink:href="#m3ae8839c3d" y="278.275665"/>
      </g>
     </g>
    </g>
    <g id="xtick_13">
     <g id="line2d_45">
      <g>
       <use style="stroke:#000000;stroke-width:0.6;" x="242.641701" xlink:href="#m3ae8839c3d" y="278.275665"/>
      </g>
     </g>
    </g>
    <g id="xtick_14">
     <g id="line2d_46">
      <g>
       <use style="stroke:#000000;stroke-width:0.6;" x="253.123512" xlink:href="#m3ae8839c3d" y="278.275665"/>
      </g>
     </g>
    </g>
    <g id="xtick_15">
     <g id="line2d_47">
      <g>
       <use style="stroke:#000000;stroke-width:0.6;" x="261.687775" xlink:href="#m3ae8839c3d" y="278.275665"/>
      </g>
     </g>
    </g>
    <g id="xtick_16">
     <g id="line2d_48">
      <g>
       <use style="stroke:#000000;stroke-width:0.6;" x="268.928756" xlink:href="#m3ae8839c3d" y="278.275665"/>
      </g>
     </g>
    </g>
    <g id="xtick_17">
     <g id="line2d_49">
      <g>
       <use style="stroke:#000000;stroke-width:0.6;" x="275.201179" xlink:href="#m3ae8839c3d" y="278.275665"/>
      </g>
     </g>
    </g>
    <g id="xtick_18">
     <g id="line2d_50">
      <g>
       <use style="stroke:#000000;stroke-width:0.6;" x="280.733849" xlink:href="#m3ae8839c3d" y="278.275665"/>
      </g>
     </g>
    </g>
    <g id="xtick_19">
     <g id="line2d_51">
      <g>
       <use style="stroke:#000000;stroke-width:0.6;" x="318.242468" xlink:href="#m3ae8839c3d" y="278.275665"/>
      </g>
     </g>
    </g>
    <g id="xtick_20">
     <g id="line2d_52">
      <g>
       <use style="stroke:#000000;stroke-width:0.6;" x="337.288542" xlink:href="#m3ae8839c3d" y="278.275665"/>
      </g>
     </g>
    </g>
    <g id="xtick_21">
     <g id="line2d_53">
      <g>
       <use style="stroke:#000000;stroke-width:0.6;" x="350.801946" xlink:href="#m3ae8839c3d" y="278.275665"/>
      </g>
     </g>
    </g>
    <g id="xtick_22">
     <g id="line2d_54">
      <g>
       <use style="stroke:#000000;stroke-width:0.6;" x="361.283757" xlink:href="#m3ae8839c3d" y="278.275665"/>
      </g>
     </g>
    </g>
    <g id="xtick_23">
     <g id="line2d_55">
      <g>
       <use style="stroke:#000000;stroke-width:0.6;" x="369.84802" xlink:href="#m3ae8839c3d" y="278.275665"/>
      </g>
     </g>
    </g>
    <g id="xtick_24">
     <g id="line2d_56">
      <g>
       <use style="stroke:#000000;stroke-width:0.6;" x="377.089001" xlink:href="#m3ae8839c3d" y="278.275665"/>
      </g>
     </g>
    </g>
    <g id="xtick_25">
     <g id="line2d_57">
      <g>
       <use style="stroke:#000000;stroke-width:0.6;" x="383.361424" xlink:href="#m3ae8839c3d" y="278.275665"/>
      </g>
     </g>
    </g>
    <g id="xtick_26">
     <g id="line2d_58">
      <g>
       <use style="stroke:#000000;stroke-width:0.6;" x="388.894094" xlink:href="#m3ae8839c3d" y="278.275665"/>
      </g>
     </g>
    </g>
    <g id="xtick_27">
     <g id="line2d_59">
      <g>
       <use style="stroke:#000000;stroke-width:0.6;" x="426.402713" xlink:href="#m3ae8839c3d" y="278.275665"/>
      </g>
     </g>
    </g>
    <g id="text_3">
     <!-- log10 of FEvals / DIM -->
     <defs>
      <path d="M 9.421875 75.984375 
L 18.40625 75.984375 
L 18.40625 0 
L 9.421875 0 
z
" id="DejaVuSans-6c"/>
      <path d="M 30.609375 48.390625 
Q 23.390625 48.390625 19.1875 42.75 
Q 14.984375 37.109375 14.984375 27.296875 
Q 14.984375 17.484375 19.15625 11.84375 
Q 23.34375 6.203125 30.609375 6.203125 
Q 37.796875 6.203125 41.984375 11.859375 
Q 46.1875 17.53125 46.1875 27.296875 
Q 46.1875 37.015625 41.984375 42.703125 
Q 37.796875 48.390625 30.609375 48.390625 
z
M 30.609375 56 
Q 42.328125 56 49.015625 48.375 
Q 55.71875 40.765625 55.71875 27.296875 
Q 55.71875 13.875 49.015625 6.21875 
Q 42.328125 -1.421875 30.609375 -1.421875 
Q 18.84375 -1.421875 12.171875 6.21875 
Q 5.515625 13.875 5.515625 27.296875 
Q 5.515625 40.765625 12.171875 48.375 
Q 18.84375 56 30.609375 56 
z
" id="DejaVuSans-6f"/>
      <path d="M 45.40625 27.984375 
Q 45.40625 37.75 41.375 43.109375 
Q 37.359375 48.484375 30.078125 48.484375 
Q 22.859375 48.484375 18.828125 43.109375 
Q 14.796875 37.75 14.796875 27.984375 
Q 14.796875 18.265625 18.828125 12.890625 
Q 22.859375 7.515625 30.078125 7.515625 
Q 37.359375 7.515625 41.375 12.890625 
Q 45.40625 18.265625 45.40625 27.984375 
z
M 54.390625 6.78125 
Q 54.390625 -7.171875 48.1875 -13.984375 
Q 42 -20.796875 29.203125 -20.796875 
Q 24.46875 -20.796875 20.265625 -20.09375 
Q 16.0625 -19.390625 12.109375 -17.921875 
L 12.109375 -9.1875 
Q 16.0625 -11.328125 19.921875 -12.34375 
Q 23.78125 -13.375 27.78125 -13.375 
Q 36.625 -13.375 41.015625 -8.765625 
Q 45.40625 -4.15625 45.40625 5.171875 
L 45.40625 9.625 
Q 42.625 4.78125 38.28125 2.390625 
Q 33.9375 0 27.875 0 
Q 17.828125 0 11.671875 7.65625 
Q 5.515625 15.328125 5.515625 27.984375 
Q 5.515625 40.671875 11.671875 48.328125 
Q 17.828125 56 27.875 56 
Q 33.9375 56 38.28125 53.609375 
Q 42.625 51.21875 45.40625 46.390625 
L 45.40625 54.6875 
L 54.390625 54.6875 
z
" id="DejaVuSans-67"/>
      <path d="M 12.40625 8.296875 
L 28.515625 8.296875 
L 28.515625 63.921875 
L 10.984375 60.40625 
L 10.984375 69.390625 
L 28.421875 72.90625 
L 38.28125 72.90625 
L 38.28125 8.296875 
L 54.390625 8.296875 
L 54.390625 0 
L 12.40625 0 
z
" id="DejaVuSans-31"/>
      <path id="DejaVuSans-20"/>
      <path d="M 37.109375 75.984375 
L 37.109375 68.5 
L 28.515625 68.5 
Q 23.6875 68.5 21.796875 66.546875 
Q 19.921875 64.59375 19.921875 59.515625 
L 19.921875 54.6875 
L 34.71875 54.6875 
L 34.71875 47.703125 
L 19.921875 47.703125 
L 19.921875 0 
L 10.890625 0 
L 10.890625 47.703125 
L 2.296875 47.703125 
L 2.296875 54.6875 
L 10.890625 54.6875 
L 10.890625 58.5 
Q 10.890625 67.625 15.140625 71.796875 
Q 19.390625 75.984375 28.609375 75.984375 
z
" id="DejaVuSans-66"/>
      <path d="M 9.8125 72.90625 
L 51.703125 72.90625 
L 51.703125 64.59375 
L 19.671875 64.59375 
L 19.671875 43.109375 
L 48.578125 43.109375 
L 48.578125 34.8125 
L 19.671875 34.8125 
L 19.671875 0 
L 9.8125 0 
z
" id="DejaVuSans-46"/>
      <path d="M 9.8125 72.90625 
L 55.90625 72.90625 
L 55.90625 64.59375 
L 19.671875 64.59375 
L 19.671875 43.015625 
L 54.390625 43.015625 
L 54.390625 34.71875 
L 19.671875 34.71875 
L 19.671875 8.296875 
L 56.78125 8.296875 
L 56.78125 0 
L 9.8125 0 
z
" id="DejaVuSans-45"/>
      <path d="M 2.984375 54.6875 
L 12.5 54.6875 
L 29.59375 8.796875 
L 46.6875 54.6875 
L 56.203125 54.6875 
L 35.6875 0 
L 23.484375 0 
z
" id="DejaVuSans-76"/>
      <path d="M 34.28125 27.484375 
Q 23.390625 27.484375 19.1875 25 
Q 14.984375 22.515625 14.984375 16.5 
Q 14.984375 11.71875 18.140625 8.90625 
Q 21.296875 6.109375 26.703125 6.109375 
Q 34.1875 6.109375 38.703125 11.40625 
Q 43.21875 16.703125 43.21875 25.484375 
L 43.21875 27.484375 
z
M 52.203125 31.203125 
L 52.203125 0 
L 43.21875 0 
L 43.21875 8.296875 
Q 40.140625 3.328125 35.546875 0.953125 
Q 30.953125 -1.421875 24.3125 -1.421875 
Q 15.921875 -1.421875 10.953125 3.296875 
Q 6 8.015625 6 15.921875 
Q 6 25.140625 12.171875 29.828125 
Q 18.359375 34.515625 30.609375 34.515625 
L 43.21875 34.515625 
L 43.21875 35.40625 
Q 43.21875 41.609375 39.140625 45 
Q 35.0625 48.390625 27.6875 48.390625 
Q 23 48.390625 18.546875 47.265625 
Q 14.109375 46.140625 10.015625 43.890625 
L 10.015625 52.203125 
Q 14.9375 54.109375 19.578125 55.046875 
Q 24.21875 56 28.609375 56 
Q 40.484375 56 46.34375 49.84375 
Q 52.203125 43.703125 52.203125 31.203125 
z
" id="DejaVuSans-61"/>
      <path d="M 44.28125 53.078125 
L 44.28125 44.578125 
Q 40.484375 46.53125 36.375 47.5 
Q 32.28125 48.484375 27.875 48.484375 
Q 21.1875 48.484375 17.84375 46.4375 
Q 14.5 44.390625 14.5 40.28125 
Q 14.5 37.15625 16.890625 35.375 
Q 19.28125 33.59375 26.515625 31.984375 
L 29.59375 31.296875 
Q 39.15625 29.25 43.1875 25.515625 
Q 47.21875 21.78125 47.21875 15.09375 
Q 47.21875 7.46875 41.1875 3.015625 
Q 35.15625 -1.421875 24.609375 -1.421875 
Q 20.21875 -1.421875 15.453125 -0.5625 
Q 10.6875 0.296875 5.421875 2 
L 5.421875 11.28125 
Q 10.40625 8.6875 15.234375 7.390625 
Q 20.0625 6.109375 24.8125 6.109375 
Q 31.15625 6.109375 34.5625 8.28125 
Q 37.984375 10.453125 37.984375 14.40625 
Q 37.984375 18.0625 35.515625 20.015625 
Q 33.0625 21.96875 24.703125 23.78125 
L 21.578125 24.515625 
Q 13.234375 26.265625 9.515625 29.90625 
Q 5.8125 33.546875 5.8125 39.890625 
Q 5.8125 47.609375 11.28125 51.796875 
Q 16.75 56 26.8125 56 
Q 31.78125 56 36.171875 55.265625 
Q 40.578125 54.546875 44.28125 53.078125 
z
" id="DejaVuSans-73"/>
      <path d="M 25.390625 72.90625 
L 33.6875 72.90625 
L 8.296875 -9.28125 
L 0 -9.28125 
z
" id="DejaVuSans-2f"/>
      <path d="M 19.671875 64.796875 
L 19.671875 8.109375 
L 31.59375 8.109375 
Q 46.6875 8.109375 53.6875 14.9375 
Q 60.6875 21.78125 60.6875 36.53125 
Q 60.6875 51.171875 53.6875 57.984375 
Q 46.6875 64.796875 31.59375 64.796875 
z
M 9.8125 72.90625 
L 30.078125 72.90625 
Q 51.265625 72.90625 61.171875 64.09375 
Q 71.09375 55.28125 71.09375 36.53125 
Q 71.09375 17.671875 61.125 8.828125 
Q 51.171875 0 30.078125 0 
L 9.8125 0 
z
" id="DejaVuSans-44"/>
      <path d="M 9.8125 72.90625 
L 19.671875 72.90625 
L 19.671875 0 
L 9.8125 0 
z
" id="DejaVuSans-49"/>
      <path d="M 9.8125 72.90625 
L 24.515625 72.90625 
L 43.109375 23.296875 
L 61.8125 72.90625 
L 76.515625 72.90625 
L 76.515625 0 
L 66.890625 0 
L 66.890625 64.015625 
L 48.09375 14.015625 
L 38.1875 14.015625 
L 19.390625 64.015625 
L 19.390625 0 
L 9.8125 0 
z
" id="DejaVuSans-4d"/>
     </defs>
     <g transform="translate(142.849063 323.82879)scale(0.2 -0.2)">
      <use xlink:href="#DejaVuSans-6c"/>
      <use x="27.783203" xlink:href="#DejaVuSans-6f"/>
      <use x="88.964844" xlink:href="#DejaVuSans-67"/>
      <use x="152.441406" xlink:href="#DejaVuSans-31"/>
      <use x="216.064453" xlink:href="#DejaVuSans-30"/>
      <use x="279.6875" xlink:href="#DejaVuSans-20"/>
      <use x="311.474609" xlink:href="#DejaVuSans-6f"/>
      <use x="372.65625" xlink:href="#DejaVuSans-66"/>
      <use x="407.861328" xlink:href="#DejaVuSans-20"/>
      <use x="439.648438" xlink:href="#DejaVuSans-46"/>
      <use x="497.167969" xlink:href="#DejaVuSans-45"/>
      <use x="560.351562" xlink:href="#DejaVuSans-76"/>
      <use x="619.53125" xlink:href="#DejaVuSans-61"/>
      <use x="680.810547" xlink:href="#DejaVuSans-6c"/>
      <use x="708.59375" xlink:href="#DejaVuSans-73"/>
      <use x="760.693359" xlink:href="#DejaVuSans-20"/>
      <use x="792.480469" xlink:href="#DejaVuSans-2f"/>
      <use x="826.171875" xlink:href="#DejaVuSans-20"/>
      <use x="857.958984" xlink:href="#DejaVuSans-44"/>
      <use x="934.960938" xlink:href="#DejaVuSans-49"/>
      <use x="964.453125" xlink:href="#DejaVuSans-4d"/>
     </g>
    </g>
   </g>
   <g id="matplotlib.axis_2">
    <g id="ytick_1">
     <g id="line2d_60">
      <path clip-path="url(#pcd2923a198)" d="M 69.3625 278.275665 
L 426.4825 278.275665 
" style="fill:none;stroke:#b0b0b0;stroke-linecap:square;stroke-width:0.8;"/>
     </g>
     <g id="line2d_61">
      <defs>
       <path d="M 0 0 
L -3.5 0 
" id="m284124247a" style="stroke:#000000;stroke-width:0.8;"/>
      </defs>
      <g>
       <use style="stroke:#000000;stroke-width:0.8;" x="69.3625" xlink:href="#m284124247a" y="278.275665"/>
      </g>
     </g>
     <g id="text_4">
      <!-- 0.0 -->
      <defs>
       <path d="M 10.6875 12.40625 
L 21 12.40625 
L 21 0 
L 10.6875 0 
z
" id="DejaVuSans-2e"/>
      </defs>
      <g transform="translate(30.55625 285.874103)scale(0.2 -0.2)">
       <use xlink:href="#DejaVuSans-30"/>
       <use x="63.623047" xlink:href="#DejaVuSans-2e"/>
       <use x="95.410156" xlink:href="#DejaVuSans-30"/>
      </g>
     </g>
    </g>
    <g id="ytick_2">
     <g id="line2d_62">
      <path clip-path="url(#pcd2923a198)" d="M 69.3625 225.58022 
L 426.4825 225.58022 
" style="fill:none;stroke:#b0b0b0;stroke-linecap:square;stroke-width:0.8;"/>
     </g>
     <g id="line2d_63">
      <g>
       <use style="stroke:#000000;stroke-width:0.8;" x="69.3625" xlink:href="#m284124247a" y="225.58022"/>
      </g>
     </g>
     <g id="text_5">
      <!-- 0.2 -->
      <g transform="translate(30.55625 233.178657)scale(0.2 -0.2)">
       <use xlink:href="#DejaVuSans-30"/>
       <use x="63.623047" xlink:href="#DejaVuSans-2e"/>
       <use x="95.410156" xlink:href="#DejaVuSans-32"/>
      </g>
     </g>
    </g>
    <g id="ytick_3">
     <g id="line2d_64">
      <path clip-path="url(#pcd2923a198)" d="M 69.3625 172.884774 
L 426.4825 172.884774 
" style="fill:none;stroke:#b0b0b0;stroke-linecap:square;stroke-width:0.8;"/>
     </g>
     <g id="line2d_65">
      <g>
       <use style="stroke:#000000;stroke-width:0.8;" x="69.3625" xlink:href="#m284124247a" y="172.884774"/>
      </g>
     </g>
     <g id="text_6">
      <!-- 0.4 -->
      <defs>
       <path d="M 37.796875 64.3125 
L 12.890625 25.390625 
L 37.796875 25.390625 
z
M 35.203125 72.90625 
L 47.609375 72.90625 
L 47.609375 25.390625 
L 58.015625 25.390625 
L 58.015625 17.1875 
L 47.609375 17.1875 
L 47.609375 0 
L 37.796875 0 
L 37.796875 17.1875 
L 4.890625 17.1875 
L 4.890625 26.703125 
z
" id="DejaVuSans-34"/>
      </defs>
      <g transform="translate(30.55625 180.483212)scale(0.2 -0.2)">
       <use xlink:href="#DejaVuSans-30"/>
       <use x="63.623047" xlink:href="#DejaVuSans-2e"/>
       <use x="95.410156" xlink:href="#DejaVuSans-34"/>
      </g>
     </g>
    </g>
    <g id="ytick_4">
     <g id="line2d_66">
      <path clip-path="url(#pcd2923a198)" d="M 69.3625 120.189329 
L 426.4825 120.189329 
" style="fill:none;stroke:#b0b0b0;stroke-linecap:square;stroke-width:0.8;"/>
     </g>
     <g id="line2d_67">
      <g>
       <use style="stroke:#000000;stroke-width:0.8;" x="69.3625" xlink:href="#m284124247a" y="120.189329"/>
      </g>
     </g>
     <g id="text_7">
      <!-- 0.6 -->
      <defs>
       <path d="M 33.015625 40.375 
Q 26.375 40.375 22.484375 35.828125 
Q 18.609375 31.296875 18.609375 23.390625 
Q 18.609375 15.53125 22.484375 10.953125 
Q 26.375 6.390625 33.015625 6.390625 
Q 39.65625 6.390625 43.53125 10.953125 
Q 47.40625 15.53125 47.40625 23.390625 
Q 47.40625 31.296875 43.53125 35.828125 
Q 39.65625 40.375 33.015625 40.375 
z
M 52.59375 71.296875 
L 52.59375 62.3125 
Q 48.875 64.0625 45.09375 64.984375 
Q 41.3125 65.921875 37.59375 65.921875 
Q 27.828125 65.921875 22.671875 59.328125 
Q 17.53125 52.734375 16.796875 39.40625 
Q 19.671875 43.65625 24.015625 45.921875 
Q 28.375 48.1875 33.59375 48.1875 
Q 44.578125 48.1875 50.953125 41.515625 
Q 57.328125 34.859375 57.328125 23.390625 
Q 57.328125 12.15625 50.6875 5.359375 
Q 44.046875 -1.421875 33.015625 -1.421875 
Q 20.359375 -1.421875 13.671875 8.265625 
Q 6.984375 17.96875 6.984375 36.375 
Q 6.984375 53.65625 15.1875 63.9375 
Q 23.390625 74.21875 37.203125 74.21875 
Q 40.921875 74.21875 44.703125 73.484375 
Q 48.484375 72.75 52.59375 71.296875 
z
" id="DejaVuSans-36"/>
      </defs>
      <g transform="translate(30.55625 127.787766)scale(0.2 -0.2)">
       <use xlink:href="#DejaVuSans-30"/>
       <use x="63.623047" xlink:href="#DejaVuSans-2e"/>
       <use x="95.410156" xlink:href="#DejaVuSans-36"/>
      </g>
     </g>
    </g>
    <g id="ytick_5">
     <g id="line2d_68">
      <path clip-path="url(#pcd2923a198)" d="M 69.3625 67.493883 
L 426.4825 67.493883 
" style="fill:none;stroke:#b0b0b0;stroke-linecap:square;stroke-width:0.8;"/>
     </g>
     <g id="line2d_69">
      <g>
       <use style="stroke:#000000;stroke-width:0.8;" x="69.3625" xlink:href="#m284124247a" y="67.493883"/>
      </g>
     </g>
     <g id="text_8">
      <!-- 0.8 -->
      <defs>
       <path d="M 31.78125 34.625 
Q 24.75 34.625 20.71875 30.859375 
Q 16.703125 27.09375 16.703125 20.515625 
Q 16.703125 13.921875 20.71875 10.15625 
Q 24.75 6.390625 31.78125 6.390625 
Q 38.8125 6.390625 42.859375 10.171875 
Q 46.921875 13.96875 46.921875 20.515625 
Q 46.921875 27.09375 42.890625 30.859375 
Q 38.875 34.625 31.78125 34.625 
z
M 21.921875 38.8125 
Q 15.578125 40.375 12.03125 44.71875 
Q 8.5 49.078125 8.5 55.328125 
Q 8.5 64.0625 14.71875 69.140625 
Q 20.953125 74.21875 31.78125 74.21875 
Q 42.671875 74.21875 48.875 69.140625 
Q 55.078125 64.0625 55.078125 55.328125 
Q 55.078125 49.078125 51.53125 44.71875 
Q 48 40.375 41.703125 38.8125 
Q 48.828125 37.15625 52.796875 32.3125 
Q 56.78125 27.484375 56.78125 20.515625 
Q 56.78125 9.90625 50.3125 4.234375 
Q 43.84375 -1.421875 31.78125 -1.421875 
Q 19.734375 -1.421875 13.25 4.234375 
Q 6.78125 9.90625 6.78125 20.515625 
Q 6.78125 27.484375 10.78125 32.3125 
Q 14.796875 37.15625 21.921875 38.8125 
z
M 18.3125 54.390625 
Q 18.3125 48.734375 21.84375 45.5625 
Q 25.390625 42.390625 31.78125 42.390625 
Q 38.140625 42.390625 41.71875 45.5625 
Q 45.3125 48.734375 45.3125 54.390625 
Q 45.3125 60.0625 41.71875 63.234375 
Q 38.140625 66.40625 31.78125 66.40625 
Q 25.390625 66.40625 21.84375 63.234375 
Q 18.3125 60.0625 18.3125 54.390625 
z
" id="DejaVuSans-38"/>
      </defs>
      <g transform="translate(30.55625 75.092321)scale(0.2 -0.2)">
       <use xlink:href="#DejaVuSans-30"/>
       <use x="63.623047" xlink:href="#DejaVuSans-2e"/>
       <use x="95.410156" xlink:href="#DejaVuSans-38"/>
      </g>
     </g>
    </g>
    <g id="ytick_6">
     <g id="line2d_70">
      <path clip-path="url(#pcd2923a198)" d="M 69.3625 14.798437 
L 426.4825 14.798437 
" style="fill:none;stroke:#b0b0b0;stroke-linecap:square;stroke-width:0.8;"/>
     </g>
     <g id="line2d_71">
      <g>
       <use style="stroke:#000000;stroke-width:0.8;" x="69.3625" xlink:href="#m284124247a" y="14.798437"/>
      </g>
     </g>
     <g id="text_9">
      <!-- 1.0 -->
      <g transform="translate(30.55625 22.396875)scale(0.2 -0.2)">
       <use xlink:href="#DejaVuSans-31"/>
       <use x="63.623047" xlink:href="#DejaVuSans-2e"/>
       <use x="95.410156" xlink:href="#DejaVuSans-30"/>
      </g>
     </g>
    </g>
    <g id="text_10">
     <!-- proportion of trials -->
     <defs>
      <path d="M 18.109375 8.203125 
L 18.109375 -20.796875 
L 9.078125 -20.796875 
L 9.078125 54.6875 
L 18.109375 54.6875 
L 18.109375 46.390625 
Q 20.953125 51.265625 25.265625 53.625 
Q 29.59375 56 35.59375 56 
Q 45.5625 56 51.78125 48.09375 
Q 58.015625 40.1875 58.015625 27.296875 
Q 58.015625 14.40625 51.78125 6.484375 
Q 45.5625 -1.421875 35.59375 -1.421875 
Q 29.59375 -1.421875 25.265625 0.953125 
Q 20.953125 3.328125 18.109375 8.203125 
z
M 48.6875 27.296875 
Q 48.6875 37.203125 44.609375 42.84375 
Q 40.53125 48.484375 33.40625 48.484375 
Q 26.265625 48.484375 22.1875 42.84375 
Q 18.109375 37.203125 18.109375 27.296875 
Q 18.109375 17.390625 22.1875 11.75 
Q 26.265625 6.109375 33.40625 6.109375 
Q 40.53125 6.109375 44.609375 11.75 
Q 48.6875 17.390625 48.6875 27.296875 
z
" id="DejaVuSans-70"/>
      <path d="M 41.109375 46.296875 
Q 39.59375 47.171875 37.8125 47.578125 
Q 36.03125 48 33.890625 48 
Q 26.265625 48 22.1875 43.046875 
Q 18.109375 38.09375 18.109375 28.8125 
L 18.109375 0 
L 9.078125 0 
L 9.078125 54.6875 
L 18.109375 54.6875 
L 18.109375 46.1875 
Q 20.953125 51.171875 25.484375 53.578125 
Q 30.03125 56 36.53125 56 
Q 37.453125 56 38.578125 55.875 
Q 39.703125 55.765625 41.0625 55.515625 
z
" id="DejaVuSans-72"/>
      <path d="M 18.3125 70.21875 
L 18.3125 54.6875 
L 36.8125 54.6875 
L 36.8125 47.703125 
L 18.3125 47.703125 
L 18.3125 18.015625 
Q 18.3125 11.328125 20.140625 9.421875 
Q 21.96875 7.515625 27.59375 7.515625 
L 36.8125 7.515625 
L 36.8125 0 
L 27.59375 0 
Q 17.1875 0 13.234375 3.875 
Q 9.28125 7.765625 9.28125 18.015625 
L 9.28125 47.703125 
L 2.6875 47.703125 
L 2.6875 54.6875 
L 9.28125 54.6875 
L 9.28125 70.21875 
z
" id="DejaVuSans-74"/>
      <path d="M 9.421875 54.6875 
L 18.40625 54.6875 
L 18.40625 0 
L 9.421875 0 
z
M 9.421875 75.984375 
L 18.40625 75.984375 
L 18.40625 64.59375 
L 9.421875 64.59375 
z
" id="DejaVuSans-69"/>
      <path d="M 54.890625 33.015625 
L 54.890625 0 
L 45.90625 0 
L 45.90625 32.71875 
Q 45.90625 40.484375 42.875 44.328125 
Q 39.84375 48.1875 33.796875 48.1875 
Q 26.515625 48.1875 22.3125 43.546875 
Q 18.109375 38.921875 18.109375 30.90625 
L 18.109375 0 
L 9.078125 0 
L 9.078125 54.6875 
L 18.109375 54.6875 
L 18.109375 46.1875 
Q 21.34375 51.125 25.703125 53.5625 
Q 30.078125 56 35.796875 56 
Q 45.21875 56 50.046875 50.171875 
Q 54.890625 44.34375 54.890625 33.015625 
z
" id="DejaVuSans-6e"/>
     </defs>
     <g transform="translate(22.396875 238.44779)rotate(-90)scale(0.2 -0.2)">
      <use xlink:href="#DejaVuSans-70"/>
      <use x="63.476562" xlink:href="#DejaVuSans-72"/>
      <use x="104.558594" xlink:href="#DejaVuSans-6f"/>
      <use x="165.740234" xlink:href="#DejaVuSans-70"/>
      <use x="229.216797" xlink:href="#DejaVuSans-6f"/>
      <use x="290.398438" xlink:href="#DejaVuSans-72"/>
      <use x="331.511719" xlink:href="#DejaVuSans-74"/>
      <use x="370.720703" xlink:href="#DejaVuSans-69"/>
      <use x="398.503906" xlink:href="#DejaVuSans-6f"/>
      <use x="459.685547" xlink:href="#DejaVuSans-6e"/>
      <use x="523.064453" xlink:href="#DejaVuSans-20"/>
      <use x="554.851562" xlink:href="#DejaVuSans-6f"/>
      <use x="616.033203" xlink:href="#DejaVuSans-66"/>
      <use x="651.238281" xlink:href="#DejaVuSans-20"/>
      <use x="683.025391" xlink:href="#DejaVuSans-74"/>
      <use x="722.234375" xlink:href="#DejaVuSans-72"/>
      <use x="763.347656" xlink:href="#DejaVuSans-69"/>
      <use x="791.130859" xlink:href="#DejaVuSans-61"/>
      <use x="852.410156" xlink:href="#DejaVuSans-6c"/>
      <use x="880.193359" xlink:href="#DejaVuSans-73"/>
     </g>
    </g>
   </g>
   <g id="line2d_72">
    <path clip-path="url(#pcd2923a198)" d="M -1 271.249606 
L 26.321211 271.249606 
L 26.321211 267.736576 
L 45.367285 267.736576 
L 45.367285 257.197487 
L 69.3625 257.197487 
L 69.3625 243.145368 
L 77.926763 243.145368 
L 77.926763 229.093249 
L 91.440167 229.093249 
L 91.440167 222.06719 
L 96.972837 222.06719 
L 96.972837 215.041131 
L 106.399021 215.041131 
L 106.399021 211.528101 
L 114.246119 211.528101 
L 114.246119 208.015071 
L 120.968052 208.015071 
L 120.968052 200.989012 
L 138.958499 200.989012 
L 138.958499 193.962952 
L 144.963267 193.962952 
L 144.963267 190.449923 
L 146.805597 190.449923 
L 146.805597 186.936893 
L 155.067779 186.936893 
L 155.067779 183.423863 
L 156.559123 183.423863 
L 156.559123 179.910834 
L 165.851671 179.910834 
L 165.851671 176.397804 
L 170.438081 176.397804 
L 170.438081 169.371744 
L 173.606028 169.371744 
L 173.606028 165.858715 
L 174.616247 165.858715 
L 174.616247 162.345685 
L 176.573755 162.345685 
L 176.573755 158.832655 
L 177.522745 158.832655 
L 177.522745 155.319626 
L 178.452942 155.319626 
L 178.452942 151.806596 
L 181.137867 151.806596 
L 181.137867 148.293566 
L 187.627257 148.293566 
L 187.627257 144.780537 
L 191.270431 144.780537 
L 191.270431 141.267507 
L 192.652101 141.267507 
L 192.652101 137.754477 
L 194.651271 137.754477 
L 194.651271 134.241447 
L 195.938294 134.241447 
L 195.938294 130.728418 
L 197.190992 130.728418 
L 197.190992 127.215388 
L 200.18394 127.215388 
L 200.18394 120.189329 
L 201.892252 120.189329 
L 201.892252 116.676299 
L 205.133082 116.676299 
L 205.133082 113.163269 
L 206.165506 113.163269 
L 206.165506 102.62418 
L 210.082223 102.62418 
L 210.082223 99.11115 
L 216.237066 99.11115 
L 216.237066 95.598121 
L 217.457223 95.598121 
L 217.457223 92.085091 
L 218.646486 92.085091 
L 218.646486 88.572061 
L 227.858668 88.572061 
L 227.858668 85.059032 
L 228.497772 85.059032 
L 228.497772 81.546002 
L 233.889168 81.546002 
L 233.889168 78.032972 
L 236.100089 78.032972 
L 236.100089 74.519942 
L 246.038848 74.519942 
L 246.038848 71.006913 
L 255.50474 71.006913 
L 255.50474 67.493883 
L 317.62781 67.493883 
L 317.62781 63.980853 
L 330.710921 63.980853 
L 330.710921 60.467824 
L 348.565268 60.467824 
L 348.565268 56.954794 
L 353.738028 56.954794 
L 353.738028 53.441764 
L 400.088641 53.441764 
L 400.088641 49.928735 
L 412.366572 49.928735 
L 412.366572 46.415705 
L 414.05226 46.415705 
L 414.05226 42.902675 
L 415.055719 42.902675 
L 415.055719 39.389645 
L 415.055719 39.389645 
L 426.4825 39.389645 
L 426.4825 39.389645 
" style="fill:none;stroke:#000000;stroke-linecap:square;stroke-width:1.5;"/>
   </g>
   <g id="line2d_73"/>
   <g id="line2d_74">
    <path clip-path="url(#pcd2923a198)" d="M 293.378082 278.275665 
L 293.378082 274.762636 
L 307.936478 274.762636 
L 307.936478 271.249606 
L 335.468753 271.249606 
L 335.468753 267.736576 
L 335.468753 267.736576 
L 335.468753 267.736576 
L 426.4825 267.736576 
" style="fill:none;stroke:#00bfbf;stroke-linecap:square;stroke-width:1.5;"/>
   </g>
   <g id="line2d_75"/>
   <g id="line2d_76">
    <path clip-path="url(#pcd2923a198)" d="M 332.130164 278.275665 
L 332.130164 274.762636 
L 332.478375 274.762636 
L 332.478375 271.249606 
L 343.853635 271.249606 
L 343.853635 267.736576 
L 343.853635 267.736576 
L 343.853635 267.736576 
L 426.4825 267.736576 
" style="fill:none;stroke:#bf00bf;stroke-linecap:square;stroke-width:1.5;"/>
   </g>
   <g id="line2d_77"/>
   <g id="line2d_78">
    <path clip-path="url(#pcd2923a198)" d="M 345.722142 278.275665 
L 345.722142 274.762636 
L 347.393054 274.762636 
L 347.393054 271.249606 
L 358.596621 271.249606 
L 358.596621 267.736576 
L 358.596621 267.736576 
L 358.596621 267.736576 
L 426.4825 267.736576 
" style="fill:none;stroke:#ff0000;stroke-linecap:square;stroke-width:3;"/>
   </g>
   <g id="line2d_79"/>
   <g id="line2d_80">
    <path clip-path="url(#pcd2923a198)" d="M 426.4825 278.275665 
L 426.4825 12.163665 
" style="fill:none;stroke:#000000;stroke-linecap:square;stroke-width:1.5;"/>
   </g>
   <g id="patch_3">
    <path d="M 69.3625 278.275665 
L 69.3625 12.163665 
" style="fill:none;stroke:#000000;stroke-linecap:square;stroke-linejoin:miter;stroke-width:0.8;"/>
   </g>
   <g id="patch_4">
    <path d="M 426.4825 278.275665 
L 426.4825 12.163665 
" style="fill:none;stroke:#000000;stroke-linecap:square;stroke-linejoin:miter;stroke-width:0.8;"/>
   </g>
   <g id="patch_5">
    <path d="M 69.3625 278.275665 
L 426.4825 278.275665 
" style="fill:none;stroke:#000000;stroke-linecap:square;stroke-linejoin:miter;stroke-width:0.8;"/>
   </g>
   <g id="patch_6">
    <path d="M 69.3625 12.163665 
L 426.4825 12.163665 
" style="fill:none;stroke:#000000;stroke-linecap:square;stroke-linejoin:miter;stroke-width:0.8;"/>
   </g>
   <g id="text_11">
    <!-- {f20-f24}, 5-D -->
    <defs>
     <path d="M 51.125 -9.28125 
L 51.125 -16.3125 
L 48.09375 -16.3125 
Q 35.9375 -16.3125 31.8125 -12.6875 
Q 27.6875 -9.078125 27.6875 1.703125 
L 27.6875 13.375 
Q 27.6875 20.75 25.046875 23.578125 
Q 22.40625 26.421875 15.484375 26.421875 
L 12.5 26.421875 
L 12.5 33.40625 
L 15.484375 33.40625 
Q 22.46875 33.40625 25.078125 36.203125 
Q 27.6875 39.015625 27.6875 46.296875 
L 27.6875 58.015625 
Q 27.6875 68.796875 31.8125 72.390625 
Q 35.9375 75.984375 48.09375 75.984375 
L 51.125 75.984375 
L 51.125 69 
L 47.796875 69 
Q 40.921875 69 38.8125 66.84375 
Q 36.71875 64.703125 36.71875 57.8125 
L 36.71875 45.703125 
Q 36.71875 38.03125 34.5 34.5625 
Q 32.28125 31.109375 26.90625 29.890625 
Q 32.328125 28.5625 34.515625 25.09375 
Q 36.71875 21.625 36.71875 14.015625 
L 36.71875 1.90625 
Q 36.71875 -4.984375 38.8125 -7.125 
Q 40.921875 -9.28125 47.796875 -9.28125 
z
" id="DejaVuSans-7b"/>
     <path d="M 4.890625 31.390625 
L 31.203125 31.390625 
L 31.203125 23.390625 
L 4.890625 23.390625 
z
" id="DejaVuSans-2d"/>
     <path d="M 12.5 -9.28125 
L 15.921875 -9.28125 
Q 22.75 -9.28125 24.828125 -7.171875 
Q 26.90625 -5.078125 26.90625 1.90625 
L 26.90625 14.015625 
Q 26.90625 21.625 29.09375 25.09375 
Q 31.296875 28.5625 36.71875 29.890625 
Q 31.296875 31.109375 29.09375 34.5625 
Q 26.90625 38.03125 26.90625 45.703125 
L 26.90625 57.8125 
Q 26.90625 64.75 24.828125 66.875 
Q 22.75 69 15.921875 69 
L 12.5 69 
L 12.5 75.984375 
L 15.578125 75.984375 
Q 27.734375 75.984375 31.8125 72.390625 
Q 35.890625 68.796875 35.890625 58.015625 
L 35.890625 46.296875 
Q 35.890625 39.015625 38.515625 36.203125 
Q 41.15625 33.40625 48.09375 33.40625 
L 51.125 33.40625 
L 51.125 26.421875 
L 48.09375 26.421875 
Q 41.15625 26.421875 38.515625 23.578125 
Q 35.890625 20.75 35.890625 13.375 
L 35.890625 1.703125 
Q 35.890625 -9.078125 31.8125 -12.6875 
Q 27.734375 -16.3125 15.578125 -16.3125 
L 12.5 -16.3125 
z
" id="DejaVuSans-7d"/>
     <path d="M 11.71875 12.40625 
L 22.015625 12.40625 
L 22.015625 4 
L 14.015625 -11.625 
L 7.71875 -11.625 
L 11.71875 4 
z
" id="DejaVuSans-2c"/>
     <path d="M 10.796875 72.90625 
L 49.515625 72.90625 
L 49.515625 64.59375 
L 19.828125 64.59375 
L 19.828125 46.734375 
Q 21.96875 47.46875 24.109375 47.828125 
Q 26.265625 48.1875 28.421875 48.1875 
Q 40.625 48.1875 47.75 41.5 
Q 54.890625 34.8125 54.890625 23.390625 
Q 54.890625 11.625 47.5625 5.09375 
Q 40.234375 -1.421875 26.90625 -1.421875 
Q 22.3125 -1.421875 17.546875 -0.640625 
Q 12.796875 0.140625 7.71875 1.703125 
L 7.71875 11.625 
Q 12.109375 9.234375 16.796875 8.0625 
Q 21.484375 6.890625 26.703125 6.890625 
Q 35.15625 6.890625 40.078125 11.328125 
Q 45.015625 15.765625 45.015625 23.390625 
Q 45.015625 31 40.078125 35.4375 
Q 35.15625 39.890625 26.703125 39.890625 
Q 22.75 39.890625 18.8125 39.015625 
Q 14.890625 38.140625 10.796875 36.28125 
z
" id="DejaVuSans-35"/>
    </defs>
    <g transform="translate(175.0725 32.68278)scale(0.2 -0.2)">
     <use xlink:href="#DejaVuSans-7b"/>
     <use x="63.623047" xlink:href="#DejaVuSans-66"/>
     <use x="98.828125" xlink:href="#DejaVuSans-32"/>
     <use x="162.451172" xlink:href="#DejaVuSans-30"/>
     <use x="226.074219" xlink:href="#DejaVuSans-2d"/>
     <use x="262.158203" xlink:href="#DejaVuSans-66"/>
     <use x="297.363281" xlink:href="#DejaVuSans-32"/>
     <use x="360.986328" xlink:href="#DejaVuSans-34"/>
     <use x="424.609375" xlink:href="#DejaVuSans-7d"/>
     <use x="488.232422" xlink:href="#DejaVuSans-2c"/>
     <use x="520.019531" xlink:href="#DejaVuSans-20"/>
     <use x="551.806641" xlink:href="#DejaVuSans-35"/>
     <use x="615.429688" xlink:href="#DejaVuSans-2d"/>
     <use x="651.513672" xlink:href="#DejaVuSans-44"/>
    </g>
   </g>
   <g id="text_12">
    <!-- absolute targets -->
    <defs>
     <path d="M 48.6875 27.296875 
Q 48.6875 37.203125 44.609375 42.84375 
Q 40.53125 48.484375 33.40625 48.484375 
Q 26.265625 48.484375 22.1875 42.84375 
Q 18.109375 37.203125 18.109375 27.296875 
Q 18.109375 17.390625 22.1875 11.75 
Q 26.265625 6.109375 33.40625 6.109375 
Q 40.53125 6.109375 44.609375 11.75 
Q 48.6875 17.390625 48.6875 27.296875 
z
M 18.109375 46.390625 
Q 20.953125 51.265625 25.265625 53.625 
Q 29.59375 56 35.59375 56 
Q 45.5625 56 51.78125 48.09375 
Q 58.015625 40.1875 58.015625 27.296875 
Q 58.015625 14.40625 51.78125 6.484375 
Q 45.5625 -1.421875 35.59375 -1.421875 
Q 29.59375 -1.421875 25.265625 0.953125 
Q 20.953125 3.328125 18.109375 8.203125 
L 18.109375 0 
L 9.078125 0 
L 9.078125 75.984375 
L 18.109375 75.984375 
z
" id="DejaVuSans-62"/>
     <path d="M 8.5 21.578125 
L 8.5 54.6875 
L 17.484375 54.6875 
L 17.484375 21.921875 
Q 17.484375 14.15625 20.5 10.265625 
Q 23.53125 6.390625 29.59375 6.390625 
Q 36.859375 6.390625 41.078125 11.03125 
Q 45.3125 15.671875 45.3125 23.6875 
L 45.3125 54.6875 
L 54.296875 54.6875 
L 54.296875 0 
L 45.3125 0 
L 45.3125 8.40625 
Q 42.046875 3.421875 37.71875 1 
Q 33.40625 -1.421875 27.6875 -1.421875 
Q 18.265625 -1.421875 13.375 4.4375 
Q 8.5 10.296875 8.5 21.578125 
z
M 31.109375 56 
z
" id="DejaVuSans-75"/>
     <path d="M 56.203125 29.59375 
L 56.203125 25.203125 
L 14.890625 25.203125 
Q 15.484375 15.921875 20.484375 11.0625 
Q 25.484375 6.203125 34.421875 6.203125 
Q 39.59375 6.203125 44.453125 7.46875 
Q 49.3125 8.734375 54.109375 11.28125 
L 54.109375 2.78125 
Q 49.265625 0.734375 44.1875 -0.34375 
Q 39.109375 -1.421875 33.890625 -1.421875 
Q 20.796875 -1.421875 13.15625 6.1875 
Q 5.515625 13.8125 5.515625 26.8125 
Q 5.515625 40.234375 12.765625 48.109375 
Q 20.015625 56 32.328125 56 
Q 43.359375 56 49.78125 48.890625 
Q 56.203125 41.796875 56.203125 29.59375 
z
M 47.21875 32.234375 
Q 47.125 39.59375 43.09375 43.984375 
Q 39.0625 48.390625 32.421875 48.390625 
Q 24.90625 48.390625 20.390625 44.140625 
Q 15.875 39.890625 15.1875 32.171875 
z
" id="DejaVuSans-65"/>
    </defs>
    <g transform="translate(69.3625 290.219966)scale(0.14 -0.14)">
     <use xlink:href="#DejaVuSans-61"/>
     <use x="61.279297" xlink:href="#DejaVuSans-62"/>
     <use x="124.755859" xlink:href="#DejaVuSans-73"/>
     <use x="176.855469" xlink:href="#DejaVuSans-6f"/>
     <use x="238.037109" xlink:href="#DejaVuSans-6c"/>
     <use x="265.820312" xlink:href="#DejaVuSans-75"/>
     <use x="329.199219" xlink:href="#DejaVuSans-74"/>
     <use x="368.408203" xlink:href="#DejaVuSans-65"/>
     <use x="429.931641" xlink:href="#DejaVuSans-20"/>
     <use x="461.71875" xlink:href="#DejaVuSans-74"/>
     <use x="500.927734" xlink:href="#DejaVuSans-61"/>
     <use x="562.207031" xlink:href="#DejaVuSans-72"/>
     <use x="603.304688" xlink:href="#DejaVuSans-67"/>
     <use x="666.78125" xlink:href="#DejaVuSans-65"/>
     <use x="728.304688" xlink:href="#DejaVuSans-74"/>
     <use x="767.513672" xlink:href="#DejaVuSans-73"/>
    </g>
   </g>
   <g id="text_13">
    <!-- v2.1 -->
    <g style="fill:#808080;" transform="translate(237.011563 273.534858)scale(0.1 -0.1)">
     <use xlink:href="#DejaVuSans-76"/>
     <use x="59.179688" xlink:href="#DejaVuSans-32"/>
     <use x="122.802734" xlink:href="#DejaVuSans-2e"/>
     <use x="154.589844" xlink:href="#DejaVuSans-31"/>
    </g>
   </g>
   <g id="legend_1">
    <g id="patch_7">
     <path d="M 283.260625 145.588665 
L 412.4825 145.588665 
Q 416.4825 145.588665 416.4825 141.588665 
L 416.4825 26.163665 
Q 416.4825 22.163665 412.4825 22.163665 
L 283.260625 22.163665 
Q 279.260625 22.163665 279.260625 26.163665 
L 279.260625 141.588665 
Q 279.260625 145.588665 283.260625 145.588665 
z
" style="fill:#ffffff;opacity:0.2;stroke:#cccccc;stroke-linejoin:miter;"/>
    </g>
    <g id="line2d_81">
     <path d="M 287.260625 38.36054 
L 327.260625 38.36054 
" style="fill:none;stroke:#000000;stroke-linecap:square;stroke-width:1.5;"/>
    </g>
    <g id="line2d_82"/>
    <g id="text_14">
     <!-- 1: 5/5 -->
     <defs>
      <path d="M 11.71875 12.40625 
L 22.015625 12.40625 
L 22.015625 0 
L 11.71875 0 
z
M 11.71875 51.703125 
L 22.015625 51.703125 
L 22.015625 39.3125 
L 11.71875 39.3125 
z
" id="DejaVuSans-3a"/>
     </defs>
     <g transform="translate(343.260625 45.36054)scale(0.2 -0.2)">
      <use xlink:href="#DejaVuSans-31"/>
      <use x="63.623047" xlink:href="#DejaVuSans-3a"/>
      <use x="97.314453" xlink:href="#DejaVuSans-20"/>
      <use x="129.101562" xlink:href="#DejaVuSans-35"/>
      <use x="192.724609" xlink:href="#DejaVuSans-2f"/>
      <use x="226.416016" xlink:href="#DejaVuSans-35"/>
     </g>
    </g>
    <g id="line2d_83">
     <path d="M 287.260625 67.71679 
L 327.260625 67.71679 
" style="fill:none;stroke:#00bfbf;stroke-linecap:square;stroke-width:1.5;"/>
    </g>
    <g id="line2d_84"/>
    <g id="text_15">
     <!-- -1: 2/5 -->
     <g transform="translate(343.260625 74.71679)scale(0.2 -0.2)">
      <use xlink:href="#DejaVuSans-2d"/>
      <use x="36.083984" xlink:href="#DejaVuSans-31"/>
      <use x="99.707031" xlink:href="#DejaVuSans-3a"/>
      <use x="133.398438" xlink:href="#DejaVuSans-20"/>
      <use x="165.185547" xlink:href="#DejaVuSans-32"/>
      <use x="228.808594" xlink:href="#DejaVuSans-2f"/>
      <use x="262.5" xlink:href="#DejaVuSans-35"/>
     </g>
    </g>
    <g id="line2d_85">
     <path d="M 287.260625 97.07304 
L 327.260625 97.07304 
" style="fill:none;stroke:#bf00bf;stroke-linecap:square;stroke-width:1.5;"/>
    </g>
    <g id="line2d_86"/>
    <g id="text_16">
     <!-- -4: 2/5 -->
     <g transform="translate(343.260625 104.07304)scale(0.2 -0.2)">
      <use xlink:href="#DejaVuSans-2d"/>
      <use x="36.083984" xlink:href="#DejaVuSans-34"/>
      <use x="99.707031" xlink:href="#DejaVuSans-3a"/>
      <use x="133.398438" xlink:href="#DejaVuSans-20"/>
      <use x="165.185547" xlink:href="#DejaVuSans-32"/>
      <use x="228.808594" xlink:href="#DejaVuSans-2f"/>
      <use x="262.5" xlink:href="#DejaVuSans-35"/>
     </g>
    </g>
    <g id="line2d_87">
     <path d="M 287.260625 126.42929 
L 327.260625 126.42929 
" style="fill:none;stroke:#ff0000;stroke-linecap:square;stroke-width:3;"/>
    </g>
    <g id="line2d_88"/>
    <g id="text_17">
     <!-- -8: 2/5 -->
     <g transform="translate(343.260625 133.42929)scale(0.2 -0.2)">
      <use xlink:href="#DejaVuSans-2d"/>
      <use x="36.083984" xlink:href="#DejaVuSans-38"/>
      <use x="99.707031" xlink:href="#DejaVuSans-3a"/>
      <use x="133.398438" xlink:href="#DejaVuSans-20"/>
      <use x="165.185547" xlink:href="#DejaVuSans-32"/>
      <use x="228.808594" xlink:href="#DejaVuSans-2f"/>
      <use x="262.5" xlink:href="#DejaVuSans-35"/>
     </g>
    </g>
   </g>
  </g>
 </g>
 <defs>
  <clipPath id="pcd2923a198">
   <rect height="266.112" width="357.12" x="69.3625" y="12.163665"/>
  </clipPath>
 </defs>
</svg>
